<svg xmlns="http://www.w3.org/2000/svg" width="192.837" height="90.094" viewBox="0 0 192.837 90.094">
  <g id="Group_12554" data-name="Group 12554" transform="translate(-138 -16411.5)">
    <g id="Group_3402" data-name="Group 3402" transform="translate(138 16414)">
      <path id="Path_14" data-name="Path 14" d="M263.708,168.215h11.531a1.681,1.681,0,0,1,1.647,2.026,39.021,39.021,0,0,1-16.5,24.307s-19.268,11.561-37.507,2.488c-.038-.019-.074-.035-.113-.05-1.363-.528-27.332-11.566-22.066-45.271,0,0,4.915-27.386,36.865-29.843,0,0,15.448-1.755,29.492,12.289,0,0,7.338,7.644,9.745,17.225a1.683,1.683,0,0,1-1.636,2.086H263.653a1.677,1.677,0,0,1-1.554-1.038c-1.346-3.278-6.293-13.295-17.065-15.1a1.469,1.469,0,0,1-.179-.041,24.214,24.214,0,0,0-22.78,5.7,25.978,25.978,0,0,0-7.376,26.189c2.15,7.373,7.944,15.185,22.514,16.941,0,0,18.247,2.365,24.906-16.773A1.683,1.683,0,0,1,263.708,168.215Z" transform="translate(-199.995 -112.917)" fill="#00fff8"/>
      <path id="Path_16" data-name="Path 16" d="M0,0H14.571" transform="translate(26.685 46.521)" fill="none" stroke="#ff7272" stroke-linecap="round" stroke-width="5"/>
      <path id="Path_17" data-name="Path 17" d="M0,0V46.345" transform="translate(41.254)" fill="none" stroke="#ff7272" stroke-linecap="round" stroke-width="5"/>
      <path id="Path_15" data-name="Path 15" d="M265.138,174s-15.448,2.107-17.2,19.31c0,0-1.755,20.364,19.31,23.875,0,0,10.182,1.053,16.5-5.266" transform="translate(-231.08 -146.79)" fill="none" stroke="#00fff8" stroke-linecap="round" stroke-width="1"/>
    </g>
    <text id="CRONJ" transform="translate(227.837 16468.287)" fill="#fff" font-size="28" font-family="NasalizationRg-Regular, Nasalization"><tspan x="0" y="0">CRONJ</tspan></text>
  </g>
</svg>
