<svg xmlns="http://www.w3.org/2000/svg" width="418" height="421" viewBox="0 0 418 421">
  <g id="Group_165178" data-name="Group 165178" transform="translate(-862 -4527)">
    <path id="Path_28809" data-name="Path 28809" d="M36.842-16898.977s-110.252,30.641-65.555,146.66,125.147,198.479,205.6,183.133c39.426-7.52,101.418-65.662,154.408-152.4,54.758-89.633,62.324-197.342,20.981-222.328C266.875-16985.834,36.842-16898.977,36.842-16898.977Z" transform="translate(901.378 21515.346)" fill="#121d30" opacity="0.07"/>
    <g id="Group_115034" data-name="Group 115034" transform="translate(124 -303)">
      <rect id="Rectangle_1940" data-name="Rectangle 1940" width="310" height="398" rx="20" transform="translate(792 4830)" fill="#fff"/>
      <text id="_5.99_" data-name="5.99%" transform="translate(851 5028)" fill="#22201a" font-size="78" font-family="Gilroy-Bold, Gilroy" font-weight="700" letter-spacing="0.01em"><tspan x="0" y="0">5.99</tspan><tspan y="0" font-size="60" font-family="Gilroy" letter-spacing="0.013em">%</tspan></text>
      <text id="of_Annual_Salary_on_a_successful_hire" data-name="of Annual Salary on
a successful hire" transform="translate(947 5084)" fill="#1a1b22" font-size="16" font-family="Inter" letter-spacing="0.01em" opacity="0.89"><tspan x="-74" y="0">of Annual Salary on</tspan><tspan x="-64" y="20">a successful hire</tspan></text>
      <g id="save-money_6_" data-name="save-money (6)" transform="translate(910 4862)">
        <path id="Path_28806" data-name="Path 28806" d="M104.008,139.4a18.91,18.91,0,1,0,18.91-18.91,18.91,18.91,0,0,0-18.91,18.91Zm18.91,1.2a6.214,6.214,0,0,1-1.578-12.233v-1.6a1.31,1.31,0,1,1,2.621,0v1.519a6.152,6.152,0,0,1,5.125,6.1,1.3,1.3,0,1,1-2.59,0,3.584,3.584,0,1,0-3.579,3.587,6.2,6.2,0,0,1,1.044,12.314v1.562a1.311,1.311,0,0,1-2.621,0V150.2a6.273,6.273,0,0,1-4.671-6.024,1.326,1.326,0,1,1,2.652,0,3.6,3.6,0,0,0,3.2,3.565,1.357,1.357,0,0,1,.2-.017,1.323,1.323,0,0,1,.293.034,3.585,3.585,0,1,0-.1-7.17Zm0,0" transform="translate(-84.723 -120.492)" fill="#3dd0e2"/>
        <path id="Path_28807" data-name="Path 28807" d="M120.951,355.342l-.031.015L108.755,361.1a9.4,9.4,0,0,1,.17,2.045,1.31,1.31,0,0,1-1.309,1.275h-.037l-17.8-.49a1.311,1.311,0,1,1,.072-2.621l16.366.45a6.757,6.757,0,0,0-6.463-5.614l-10.831-.3a14.257,14.257,0,0,1-6.137-1.585l-1.1-.57a16.649,16.649,0,0,0-17,.957L64.252,370.4l1.861-1a8.1,8.1,0,0,1,6.035-.66l18.38,5.159a17.167,17.167,0,0,0,10.519-1.176l25.465-16.472a4.763,4.763,0,0,0-5.559-.921Zm0,0" transform="translate(-52.512 -309.253)" fill="#121d30"/>
        <path id="Path_28808" data-name="Path 28808" d="M.359,363.993,1,340.551l9.257.255-.646,23.442Zm0,0" transform="translate(-0.359 -300.1)" fill="#121d30"/>
      </g>
      <g id="Group_31271" data-name="Group 31271" transform="translate(-137.081 -246)">
        <rect id="Rectangle_1942" data-name="Rectangle 1942" width="270" height="60" rx="8" transform="translate(949.081 5394)" fill="#121d30"/>
        <text id="Contact_Us" data-name="Contact Us" transform="translate(1042.081 5430)" fill="#fff" font-size="16" font-family="Gilroy-Medium, Gilroy" font-weight="500" letter-spacing="0.01em"><tspan x="0" y="0">Contact Us</tspan></text>
      </g>
    </g>
  </g>
</svg>
