<svg xmlns="http://www.w3.org/2000/svg" width="73" height="73" viewBox="0 0 73 73">
  <g id="Group_165168" data-name="Group 165168" transform="translate(-644 -6900)">
    <rect id="Rectangle_1901" data-name="Rectangle 1901" width="73" height="73" transform="translate(644 6900)" fill="none"/>
    <g id="star_4_1_" data-name="star (4) (1)" transform="translate(643.992 6900)">
      <path id="Path_22976" data-name="Path 22976" d="M220.012,234.409a6.641,6.641,0,1,0-6.641,6.641,6.641,6.641,0,0,0,6.641-6.641Z" transform="translate(-176.866 -196.423)" fill="#121d30"/>
      <path id="Path_22977" data-name="Path 22977" d="M213.37,356.3a6.649,6.649,0,0,0-6.641,6.642v13.515h13.283V362.944A6.649,6.649,0,0,0,213.37,356.3Z" transform="translate(-176.866 -306.457)" fill="#121d30"/>
      <path id="Path_22978" data-name="Path 22978" d="M72.816,37.52c-.553-1.705-2.2-2.876-4.518-3.213L49.4,31.556,40.956,14.4c-1.037-2.1-2.658-3.312-4.447-3.312S33.1,12.3,32.062,14.4L23.608,31.556l-18.9,2.751C2.394,34.644.746,35.816.2,37.521s.092,3.622,1.77,5.259L15.641,56.131,12.414,74.983a5.482,5.482,0,0,0,.924,4.608,4.06,4.06,0,0,0,3.011,1.464c.05,0,.1,0,.151,0h8.706V67.437a11.319,11.319,0,0,1,4.7-9.18,11.308,11.308,0,1,1,13.209,0,11.32,11.32,0,0,1,4.694,9.18V81.06h8.781a2.148,2.148,0,0,0,.316-.023,4.034,4.034,0,0,0,2.808-1.493,5.512,5.512,0,0,0,.888-4.562L57.374,56.13l13.67-13.35c1.677-1.638,2.323-3.555,1.77-5.259Z" transform="translate(0 -11.092)" fill="#3dd0e2"/>
    </g>
  </g>
</svg>
