<svg xmlns="http://www.w3.org/2000/svg" width="217" height="217" viewBox="0 0 217 217">
  <g id="Group_165152" data-name="Group 165152" transform="translate(-356 -6043)">
    <rect id="Rectangle_1875" data-name="Rectangle 1875" width="216" height="216" rx="20" transform="translate(356.5 6043.5)" fill="#fff" stroke="#d6dce6" stroke-width="1"/>
    <g id="Group_165151" data-name="Group 165151">
      <text id="Mumbai" transform="translate(464 6216)" fill="#1a1b22" font-size="20" font-family="Gilroy-Semibold, Gilroy" font-weight="600"><tspan x="-37" y="0">Mumbai</tspan></text>
      <g id="Group_165150" data-name="Group 165150">
        <rect id="Rectangle_1900" data-name="Rectangle 1900" width="100" height="100" transform="translate(414 6081)" fill="none"/>
        <path id="gateway-of-india" d="M117.641,109.64h-3.966V76.329h2.379a.872.872,0,0,0,.793-.476l1.586-4.759c.159-.317,0-.476-.159-.793a.824.824,0,0,0-.635-.317h-3.966V63.639h.793a.749.749,0,0,0,.793-.793V58.087a.749.749,0,0,0-.793-.793h-23V51.742a.749.749,0,0,0-.793-.793h-.793v-11.1A3.057,3.057,0,0,0,87.5,36.831V34.293a.793.793,0,0,0-1.586,0v2.538a3.057,3.057,0,0,0-2.379,3.014V46.19H53.4V39.845a3.057,3.057,0,0,0-2.379-3.014V34.293a.793.793,0,1,0-1.586,0v2.538a3.057,3.057,0,0,0-2.379,3.014v11.1H46.26a.749.749,0,0,0-.793.793v5.552h-23a.749.749,0,0,0-.793.793v4.759a.749.749,0,0,0,.793.793h.793v6.345H19.293a.824.824,0,0,0-.635.317,1.189,1.189,0,0,0-.159.793l1.586,4.759a.872.872,0,0,0,.793.476h2.379V109.64H19.293a.793.793,0,1,0,0,1.586h98.348a.793.793,0,1,0,0-1.586Zm-2.221-34.9H91.468V71.57h25.063l-1.11,3.173ZM54.984,52.535H81.95v9.518H54.984Zm34.9,0v9.518H83.537V52.535Zm-26.966,11.1v6.345H59.743V63.639Zm1.586,0h3.173v6.345H64.5Zm4.759,0h3.173v6.345H69.26Zm4.759,0h3.173v6.345H74.019Zm4.759,0H81.95v6.345H78.778Zm4.759,6.345V63.639h6.345v6.345Zm-25.38-6.345v6.345H54.984V63.639ZM53.4,69.984H47.053V63.639H53.4Zm0,1.586v3.173H47.053V71.57Zm30.139,0h6.345v3.173H83.537Zm28.553-1.586H91.468V63.639h20.621Zm1.586-11.1v3.173H91.468V58.88ZM85.123,50.949V43.018H88.3v7.931Zm1.586-12.69A1.5,1.5,0,0,1,88.3,39.845v1.586H85.123V39.845A1.5,1.5,0,0,1,86.709,38.259Zm-3.173,9.518v3.173H53.4V47.776ZM50.225,38.259a1.5,1.5,0,0,1,1.586,1.586v1.586H48.639V39.845A1.5,1.5,0,0,1,50.225,38.259Zm-1.586,4.759h3.173v7.931H48.639Zm-.793,9.518H53.4v9.518H47.053V52.535ZM23.259,58.88H45.466v3.173H23.259Zm1.586,4.759H45.466v6.345H24.845ZM20.4,71.57H45.466v3.173H21.514L20.4,71.57Zm4.442,4.759H45.466V109.64H43.087V91.557a10.97,10.97,0,0,0-6.345-9.993,1.712,1.712,0,0,0-1.745,0,11.541,11.541,0,0,0-6.345,9.993V109.64H24.686V76.329Zm7.138,33.311H30.4V92.192H41.5V109.64H39.914V99.33a6.077,6.077,0,0,0-3.648-5.552H35.79a5.892,5.892,0,0,0-3.807,5.552V109.64ZM30.4,90.605a9.8,9.8,0,0,1,5.393-7.931h.317A9.91,9.91,0,0,1,41.5,90.605Zm3.173,19.035V99.33a4.781,4.781,0,0,1,2.379-3.966,4.462,4.462,0,0,1,2.379,3.966V109.64Zm13.483,0V76.329H53.4V109.64Zm11.1,0V92.35a13.694,13.694,0,0,1,6.5-11.738l3.807-2.538,3.807,2.379a13.765,13.765,0,0,1,6.5,11.9V109.8H58.156ZM73.067,79.184l-4.283-2.7a.708.708,0,0,0-.793,0l-4.283,2.7A15.577,15.577,0,0,0,56.57,92.35v17.29H54.984V71.57H81.95v38.07H80.364V92.192A15.294,15.294,0,0,0,73.067,79.184ZM83.537,109.64V76.329h6.345V109.64Zm11.9-17.449h11.1V109.64h-1.586V99.33a6.077,6.077,0,0,0-3.648-5.552h-.476A5.892,5.892,0,0,0,97.02,99.33V109.64H95.434V92.192Zm0-1.586a9.8,9.8,0,0,1,5.393-7.931h.317a9.91,9.91,0,0,1,5.393,7.931Zm3.173,19.035V99.33a4.781,4.781,0,0,1,2.379-3.966,4.462,4.462,0,0,1,2.379,3.966V109.64Zm9.518,0V91.557a11.373,11.373,0,0,0-6.345-10.152,1.712,1.712,0,0,0-1.745,0,11.483,11.483,0,0,0-6.345,10.152V109.64H91.309V76.329h20.621V109.64Z" transform="translate(395.5 6069.5)" fill="#54576e"/>
      </g>
    </g>
  </g>
</svg>
