<svg xmlns="http://www.w3.org/2000/svg" width="72" height="72" viewBox="0 0 72 72">
  <g id="Group_15357" data-name="Group 15357" transform="translate(-614 -2387)">
    <rect id="Rectangle_1861" data-name="Rectangle 1861" width="72" height="72" transform="translate(614 2387)" fill="none"/>
    <g id="Group_31119" data-name="Group 31119" transform="translate(621 2387)">
      <path id="Path_28706" data-name="Path 28706" d="M50.249,24.222c-.094-9.124,7.438-13.491,7.773-13.709A16.8,16.8,0,0,0,44.851,3.386c-5.594-.573-10.934,3.3-13.783,3.3S23.838,3.464,19.19,3.543A17.637,17.637,0,0,0,4.3,12.572C-2.052,23.59,2.669,39.908,8.857,48.855c3.026,4.372,6.636,9.281,11.367,9.108,4.559-.183,6.282-2.952,11.795-2.952s7.067,2.952,11.884,2.863c4.909-.094,8.013-4.46,11.012-8.843a40.066,40.066,0,0,0,4.993-10.24,15.932,15.932,0,0,1-9.658-14.569Z" transform="translate(-1.282 14.033)" fill="#030104"/>
      <path id="Path_28707" data-name="Path 28707" d="M17.62,11.5A15.863,15.863,0,0,0,21.366,0a16.117,16.117,0,0,0-10.6,5.452A15.091,15.091,0,0,0,6.947,16.59C10.979,16.908,15.11,14.534,17.62,11.5Z" transform="translate(22.277 0)" fill="#030104"/>
    </g>
  </g>
</svg>
