<svg xmlns="http://www.w3.org/2000/svg" width="72" height="72" viewBox="0 0 72 72">
  <g id="Group_15365" data-name="Group 15365" transform="translate(-381 -2350)">
    <rect id="Rectangle_1861" data-name="Rectangle 1861" width="72" height="72" transform="translate(381 2350)" fill="none"/>
    <g id="Group_31357" data-name="Group 31357" transform="translate(-3130.956 281.062)">
      <path id="Path" d="M55.937,1.89A1.2,1.2,0,0,0,54.963,0H51.8a1.191,1.191,0,0,0-.969.5L44.549,9.323a1.188,1.188,0,0,1-1.939,0L36.334.5a1.191,1.191,0,0,0-.969-.5H32.2a1.2,1.2,0,0,0-.969,1.89L32.34,3.447,34.8,6.9,40.04,14.27a1.2,1.2,0,0,1,0,1.395L31.221,28.053a1.2,1.2,0,0,0,.974,1.89h3.171a1.191,1.191,0,0,0,.969-.5l6.278-8.819a1.187,1.187,0,0,1,1.939,0l6.278,8.819a1.191,1.191,0,0,0,.969.5H54.96a1.2,1.2,0,0,0,.969-1.89l-8.8-12.378a1.2,1.2,0,0,1,0-1.395Z" transform="translate(3518.154 2069.938)" fill="#3dd0e2"/>
      <path id="Path-2" data-name="Path" d="M12.787,0H9.2A1.2,1.2,0,0,0,8,1.2V19.171A10.783,10.783,0,0,0,19.5,29.93,11.024,11.024,0,0,0,29.567,18.8V1.2a1.2,1.2,0,0,0-1.2-1.2H24.775a1.2,1.2,0,0,0-1.2,1.2V19.171a4.787,4.787,0,0,1-5.261,4.766,4.931,4.931,0,0,1-4.324-4.974V1.2a1.2,1.2,0,0,0-1.2-1.2Z" transform="translate(3513.596 2069.938)" fill="#3dd0e2"/>
      <path id="Path-3" data-name="Path" d="M28.369,33H24.775a1.2,1.2,0,0,0-1.2,1.2V52.171a4.787,4.787,0,0,1-5.261,4.766,4.931,4.931,0,0,1-4.324-4.974V34.2a1.2,1.2,0,0,0-1.2-1.2H9.2A1.2,1.2,0,0,0,8,34.2V52.171A10.783,10.783,0,0,0,19.5,62.93,11.024,11.024,0,0,0,29.567,51.8V34.2A1.2,1.2,0,0,0,28.369,33Z" transform="translate(3513.596 2076.477)" fill="#121d30"/>
      <path id="Path-4" data-name="Path" d="M54.765,33H33.2A1.2,1.2,0,0,0,32,34.2v3.589a1.2,1.2,0,0,0,1.2,1.2h7.189a1.2,1.2,0,0,1,1.2,1.2V55.765a1.2,1.2,0,0,1-1.2,1.2H33.2a1.2,1.2,0,0,0-1.2,1.2v3.594a1.2,1.2,0,0,0,1.2,1.2H54.765a1.2,1.2,0,0,0,1.2-1.2V58.161a1.2,1.2,0,0,0-1.2-1.2H47.577a1.2,1.2,0,0,1-1.2-1.2V40.189a1.2,1.2,0,0,1,1.2-1.2h7.189a1.2,1.2,0,0,0,1.2-1.2V34.2A1.2,1.2,0,0,0,54.765,33Z" transform="translate(3518.353 2076.477)" fill="#121d30"/>
      <path id="Path-5" data-name="Path" d="M70.7,28H1.209a1.2,1.2,0,1,0,0,2.394H70.7A1.2,1.2,0,1,0,70.7,28Z" transform="translate(3512 2075.486)" fill="#3dd0e2"/>
    </g>
  </g>
</svg>
