<svg xmlns="http://www.w3.org/2000/svg" width="72" height="72" viewBox="0 0 72 72">
  <g id="Group_15342" data-name="Group 15342" transform="translate(-468 -2307)">
    <rect id="Rectangle_1861" data-name="Rectangle 1861" width="72" height="72" transform="translate(468 2307)" fill="none"/>
    <g id="qa" transform="translate(468 2307)">
      <path id="Path_28660" data-name="Path 28660" d="M357.615,309.731h4.07l-2.025-5.367Z" transform="translate(-307.33 -261.566)" fill="#121d30"/>
      <path id="Path_28661" data-name="Path 28661" d="M265.747,199.7H242.971v2.854a9.854,9.854,0,0,1-9.842,9.844H232v18.238a5.629,5.629,0,0,0,5.629,5.629h17.759l7.985,6.84a2.109,2.109,0,0,0,3.453-1.948l-.815-4.9a5.629,5.629,0,0,0,5.367-5.62V205.329a5.629,5.629,0,0,0-5.63-5.629ZM259.1,228.012a2.108,2.108,0,0,1-2.717-1.229L255.331,224h-7.269L247,226.788a2.109,2.109,0,0,1-3.943-1.5l6.336-16.636.018-.048a2.487,2.487,0,0,1,2.3-1.549h0a2.487,2.487,0,0,1,2.3,1.543l.022.058,6.283,16.637a2.11,2.11,0,0,1-1.23,2.72Z" transform="translate(-199.377 -171.622)" fill="#121d30"/>
      <path id="Path_28662" data-name="Path 28662" d="M101.3,80a6.295,6.295,0,1,0,2.791,11.935l-1.19-1.19a2.109,2.109,0,1,1,2.983-2.983l1.143,1.143A6.291,6.291,0,0,0,101.3,80Z" transform="translate(-81.643 -68.75)" fill="#3dd0e2"/>
      <path id="Path_28663" data-name="Path 28663" d="M39.372,30.935V5.629A5.629,5.629,0,0,0,33.743,0H5.629A5.629,5.629,0,0,0,0,5.629V30.935a5.629,5.629,0,0,0,5.367,5.62l-.812,4.9A2.109,2.109,0,0,0,8.008,43.4l7.985-6.839H33.747A5.629,5.629,0,0,0,39.372,30.935Zm-9.757-3.563a2.109,2.109,0,0,1-2.983,0l-1.109-1.109a10.541,10.541,0,1,1,2.953-3.011l1.138,1.138a2.109,2.109,0,0,1,0,2.983Z" fill="#3dd0e2"/>
    </g>
  </g>
</svg>
