<svg xmlns="http://www.w3.org/2000/svg" xmlns:xlink="http://www.w3.org/1999/xlink" width="373" height="180" viewBox="0 0 373 180">
  <defs>
    <clipPath id="clip-path">
      <path id="Path_49452" data-name="Path 49452" d="M498.071,265.857s1.452,12.1.645,18.711.967,15.484.323,19.033-1.452,11.614-.484,12.582c0,0-3.064,1.774-4.194,0,0,0-2.42-14.84-3.065-20s-3.226-24.518-3.871-24.679,1.613,20.485,1.129,24.679-1.129,15.807-.645,18.388c0,0-3.871,1.129-5-.161,0,0,.322-12.9,0-16.13s-4.517-24.034-2.581-30.486S492.264,249.4,498.071,265.857Z" transform="translate(-479.82 -257.538)" fill="#506ac1"/>
    </clipPath>
    <clipPath id="clip-path-2">
      <path id="Path_49456" data-name="Path 49456" d="M492.352,191.181h-6.613l-7.5,4.355-1.21,11.775s1.129,19.034-.484,22.582,6.129-.484,6.936-1.613a18.456,18.456,0,0,0,1.613-3.226s-.807,3.226,3.871,5.161,10.323,2.9,10,2.258-1.936-8.872-2.258-10.807.161-11.291.161-11.291S502.271,195.536,492.352,191.181Z" transform="translate(-476.324 -191.181)" fill="#506ac1"/>
    </clipPath>
    <clipPath id="clip-path-3">
      <path id="Path_49458" data-name="Path 49458" d="M506.7,179.312c0,.161,0,3.064.645,3.871s-3.226.968-3.226.968l-2.851-1.966a17.133,17.133,0,0,0,.432-4C501.54,176.892,506.7,179.312,506.7,179.312Z" transform="translate(-501.27 -177.804)" fill="#fdab7d"/>
    </clipPath>
    <clipPath id="clip-path-4">
      <path id="Path_49465" data-name="Path 49465" d="M505.19,188.373l.645,2.1-3.387,11.936-2.749,7.842-1.768-14.294.376-5.7.753-1.882,2.9,1.774Z" transform="translate(-497.931 -188.373)" fill="#fdfefd"/>
    </clipPath>
  </defs>
  <g id="Group_115030" data-name="Group 115030" transform="translate(-513 -3956)">
    <path id="Rectangle_1875" data-name="Rectangle 1875" d="M20,0H353a20,20,0,0,1,20,20V180a0,0,0,0,1,0,0H0a0,0,0,0,1,0,0V20A20,20,0,0,1,20,0Z" transform="translate(513 3956)" fill="#e6edf7"/>
    <g id="Group_115016" data-name="Group 115016">
      <path id="Path_49283" data-name="Path 49283" d="M536.13,1707.329c0,4.873-70.969,8.824-158.513,8.824S219.1,1712.2,219.1,1707.329s70.969-8.824,158.513-8.824S536.13,1702.456,536.13,1707.329Z" transform="translate(321.896 2393.693)" fill="#121d30" opacity="0.08"/>
      <g id="Group_115015" data-name="Group 115015" transform="translate(273.057 3866.148)">
        <path id="Path_49444" data-name="Path 49444" d="M544.813,218.939l.966-.276.644-14.857a4.2,4.2,0,0,0,2.622-.414c.736-3.036-2.116-16.605-2.116-16.605l-6.072-2.9-1.267-1.012c-1.2-2.622.782-1.748,1.451-4.553,0,0,.082-.378.179-.968l.051,0a1.206,1.206,0,0,0,1.288-1.1,1.1,1.1,0,0,0-.728-.992,1.031,1.031,0,0,0,.368-.727,1.017,1.017,0,0,0,.4-.892.935.935,0,0,0-.172-.448,1.028,1.028,0,0,0,.448-.932,1.049,1.049,0,0,0-.742-.861.955.955,0,0,0,.2-.575,1.147,1.147,0,0,0-1.219-1.058h-.026a1.154,1.154,0,0,0-1.216-1.013,1.391,1.391,0,0,0-.343.043,1.2,1.2,0,0,0-1.175-.779,1.33,1.33,0,0,1-1.978.046,1.28,1.28,0,0,0-.993.446,1.325,1.325,0,0,0-.8-.262,1.232,1.232,0,0,0-1.127.655,1.384,1.384,0,0,0-.391-.057,1.147,1.147,0,0,0-1.219,1.058.959.959,0,0,0,.214.6,1.089,1.089,0,0,0-.859,1.011,1,1,0,0,0,.388.772.982.982,0,0,0-.038,1.744,1.032,1.032,0,0,0-.557.888,1.076,1.076,0,0,0,.795.991,1.455,1.455,0,0,0-.034.3,1.047,1.047,0,0,0,.9,1.15.716.716,0,0,0,.264-.051,4.693,4.693,0,0,0,.449,1.339s1.907,2.392,1.079,3.956c-.091.173-7.887,4.921-7.887,4.921-3.128,5.244,2.76,17.341,2.76,17.341l-.184,13.018,1.84.276s.23,12.7-.414,14.673-1.564,16.835-2.208,18.307.23,1.2.368,2.162-1.288,1.61-.414,3.634,4.6.92,4.968.322-1.242-3.312-.874-3.818.23-.6.184-1.426,0-1.656,0-1.656c.092-4.83,2.714-16.881,2.714-16.881.736-1.288,3.588-15.179,3.588-15.179l-1.472,15.179c-1.564,4.921.092,15.777.322,16.375a5.477,5.477,0,0,1,.322,2.852,2.232,2.232,0,0,0,.46,1.932l-1.058,2.07c2.162,1.748,10.212.552,10.212.552s.874-1.886-1.932-1.794-3.4-1.61-3.4-1.61c.69-.782-.276-2.07.046-2.438s-.322-13.707.69-17.341S544.813,218.939,544.813,218.939Z" transform="translate(-93.908 -28.662)" fill="#8a95a8"/>
        <path id="Path_49477" data-name="Path 49477" d="M543.883,216.469l.919-.262.613-14.136a4,4,0,0,0,2.495-.394c.7-2.889-2.013-15.8-2.013-15.8l-5.777-2.757-1.206-.963c-1.138-2.495.744-1.663,1.381-4.333,0,0,.078-.36.171-.921l.048,0a1.148,1.148,0,0,0,1.225-1.05,1.048,1.048,0,0,0-.693-.944.981.981,0,0,0,.35-.692.968.968,0,0,0,.378-.849.89.89,0,0,0-.164-.426.978.978,0,0,0,.426-.887,1,1,0,0,0-.706-.82.909.909,0,0,0,.187-.547,1.091,1.091,0,0,0-1.16-1.007h-.024a1.1,1.1,0,0,0-1.157-.964,1.323,1.323,0,0,0-.327.041,1.145,1.145,0,0,0-1.118-.741,1.265,1.265,0,0,1-1.882.044,1.217,1.217,0,0,0-.945.424,1.261,1.261,0,0,0-.762-.249,1.172,1.172,0,0,0-1.072.623,1.317,1.317,0,0,0-.372-.054,1.091,1.091,0,0,0-1.16,1.007.913.913,0,0,0,.2.57,1.036,1.036,0,0,0-.817.962.948.948,0,0,0,.369.735,2.5,2.5,0,0,1-.566,2.5,1.024,1.024,0,0,0,.756.943,1.381,1.381,0,0,0-.032.283,1,1,0,0,0,.853,1.094.681.681,0,0,0,.251-.048,4.463,4.463,0,0,0,.427,1.274s1.814,2.276,1.027,3.764c-.087.164-7.5,4.683-7.5,4.683-2.976,4.99,2.626,16.5,2.626,16.5l-.175,12.386,1.75.262s.219,12.079-.394,13.961-1.488,16.019-2.1,17.419.219,1.138.35,2.057-1.226,1.532-.394,3.458,4.377.875,4.727.306-1.182-3.151-.832-3.632.219-.569.175-1.357,0-1.576,0-1.576c.088-4.6,2.582-16.062,2.582-16.062.7-1.225,3.414-14.443,3.414-14.443l-1.4,14.443c-1.488,4.683.088,15.011.306,15.58a5.211,5.211,0,0,1,.306,2.713,2.123,2.123,0,0,0,.438,1.838L536.88,252.4c2.057,1.663,9.716.525,9.716.525s.831-1.794-1.838-1.707-3.239-1.532-3.239-1.532c.657-.744-.263-1.969.044-2.32s-.306-13.042.657-16.5S543.883,216.469,543.883,216.469Z" transform="translate(-32.076 -24.292)" fill="#8a95a8"/>
        <path id="Path_49445" data-name="Path 49445" d="M608.658,181.059s.553-2.93,4.868-1.984,9.626,11.057,3.541,14.648l4.426,2.363s5.643,9.545,4.315,14.081a4.691,4.691,0,0,1-4.2-.283l.553,4.725-1.217.378s1.881,10.49-5.753,26.083l1,16.916,2.1,4.159s4.315,1.512,1.549,1.8-4.2-.189-4.426-.756-.885-3.4-.885-3.4a28.808,28.808,0,0,1-.553,3.591c-.111-.283-.885-4.442-.885-4.442l.885-2.079-2.1-8.127-2.655,6.71s-.553,5.481-.111,5.859,2.545,1.039,1.106,1.512-3.983.284-3.872-.567c.045-.345.217-1.3.407-2.308.277-1.478.589-3.079.589-3.079L606,260.066s-.111-4.347,1.217-5.481,0-11.435,3.762-14.46l-.221-4.347s-1.549-6.238-4.094-9.923,1.992-10.963,1.992-10.963l-.332-.85s-.885.661-2.545-2.362-5.532-13.231-2.1-15.215a17.609,17.609,0,0,1,5.2-2.268s-3.872-1.228-3.762-4.347S606.334,180.209,608.658,181.059Z" transform="translate(-139.748 -35.159)" fill="#8a95a8"/>
        <path id="Path_49446" data-name="Path 49446" d="M388.382,235.7s.249-1.822.4-4.53c-.795.417-.814.417-.019,0,.291-5.237.226-13.792-2.721-18.911l1.081-.154a.85.85,0,0,0,.7-.615.845.845,0,0,1,.248-.4c1.1-1,6.812-6.26,7.64-8.361,0,0-4.016-8.243-7.891-10.357l-2.184-.846s3.171-4.368,2.818-8.948-3.118-10.393-7.055-7.24c0,0-2.391-1.841-4.434,1.964s-1.054,15.144-1.054,15.144-3.733,4.436-3.311,14.3c0,0-2.747,11.343-2.959,11.554s-1.761,2.536-.7,4.65,1.621.634,1.621.634a2.835,2.835,0,0,0,.493-2.889,4.641,4.641,0,0,0-.139-2.113L375,208.291v1.656s-4.068,7.175-.972,21.63c.009,0,0,.008.01.012.286,1.332.621,2.725,1.037,4.182a141.059,141.059,0,0,1,2.25,22.194l-2.186,4.228s-2.4.281-1.481.775a5.665,5.665,0,0,0,2.888.07l1.2-2.818.281,2.818c.634-.07,1.268-4.3,1.268-4.3l-.986-1.268s3.571-13.114,1.057-21.912a22.375,22.375,0,0,1,.364-2.593,16.834,16.834,0,0,0,3.652-.083h0c.423-.057.464-.057.038,0a14.4,14.4,0,0,0,1.723,4.226l6.059,19.939-.353,4.791s-1.268.423-.211.775,2.466.282,2.466-.493-.775-5.073-.775-5.355S392.4,240.067,388.382,235.7Zm-3.754-26.116,3.613-10.169,4.157,3.945-5.284,6.764Z" transform="translate(0 -32.498)" fill="#8a95a8"/>
        <path id="Path_49447" data-name="Path 49447" d="M475.771,257.244a12.619,12.619,0,0,1-6.374-2.55l1.623-37.723.869-.116L471.6,204.4a12.97,12.97,0,0,0,1.912.171,1.676,1.676,0,0,0,1.648-1.295c1.513-6.486-.372-12.959-1.275-15.492a2.712,2.712,0,0,0-1.456-1.57L467.447,184l-.659-.988-.158-1.541a1.591,1.591,0,0,1,.419-1.247,1.591,1.591,0,0,0,.4-.8l.338-1.859h.013a1.192,1.192,0,0,0,1.13-1.246,1.27,1.27,0,0,0-.58-1.088c1.736-5.366-1.1-6.474-1.1-6.474-5.331-2.2-7.3,1.217-7.3,1.217-1.507-.232-1.333,1.854-1.333,1.854l-.091,2.4a5.19,5.19,0,0,0,.045.881,1.225,1.225,0,0,0-.881,1.215,1.192,1.192,0,0,0,1.13,1.246,1.029,1.029,0,0,0,.275-.039l.427,1.889a1.412,1.412,0,0,0,.318.622l.321.363a1.072,1.072,0,0,1,.263.816l-.185,1.853-.7.869-5.116,2.268a2.712,2.712,0,0,0-1.456,1.57c-.9,2.533-2.787,9.006-1.275,15.492a1.677,1.677,0,0,0,1.648,1.295,12.969,12.969,0,0,0,1.911-.171l-.29,12.459.869.116,1.623,37.723a12.619,12.619,0,0,1-6.374,2.55s-.985.058-.638,1.1c0,0,1.622.811,6.143.405a52.957,52.957,0,0,1,5.563-.347l-1.217-3.419.463-1.159-.579-1.8,2.608-32.845,2.608,32.845-.579,1.8.464,1.159L464.7,258.4a52.965,52.965,0,0,1,5.563.347c4.52.406,6.142-.405,6.142-.405C476.755,257.3,475.771,257.244,475.771,257.244Z" transform="translate(-48.909 -28.662)" fill="#8a95a8"/>
        <path id="Path_49478" data-name="Path 49478" d="M474.549,252.953a12.012,12.012,0,0,1-6.068-2.427l1.544-35.909.828-.11-.276-11.859a12.347,12.347,0,0,0,1.82.162,1.6,1.6,0,0,0,1.569-1.233c1.44-6.174-.354-12.336-1.213-14.747a2.582,2.582,0,0,0-1.386-1.495l-4.74-2.1-.627-.94-.15-1.467a1.514,1.514,0,0,1,.4-1.187,1.515,1.515,0,0,0,.382-.762l.322-1.77h.012a1.135,1.135,0,0,0,1.076-1.186,1.209,1.209,0,0,0-.552-1.036c1.652-5.108-1.048-6.163-1.048-6.163-5.075-2.1-6.95,1.158-6.95,1.158-1.434-.22-1.269,1.765-1.269,1.765l-.086,2.281a4.942,4.942,0,0,0,.042.838,1.166,1.166,0,0,0-.839,1.156,1.135,1.135,0,0,0,1.076,1.186.979.979,0,0,0,.262-.037l.406,1.8a1.343,1.343,0,0,0,.3.593l.305.346a1.021,1.021,0,0,1,.25.777l-.176,1.763-.662.828-4.87,2.159a2.582,2.582,0,0,0-1.386,1.495c-.859,2.411-2.653,8.573-1.213,14.747a1.6,1.6,0,0,0,1.569,1.233,12.347,12.347,0,0,0,1.819-.162l-.276,11.859.827.11,1.545,35.909a12.012,12.012,0,0,1-6.067,2.427s-.938.055-.607,1.048c0,0,1.544.772,5.847.386a50.418,50.418,0,0,1,5.3-.331l-1.158-3.255.441-1.1-.552-1.71,2.482-31.265,2.482,31.265-.552,1.71.441,1.1-1.159,3.255a50.426,50.426,0,0,1,5.3.331c4.3.386,5.847-.386,5.847-.386C475.486,253.008,474.549,252.953,474.549,252.953Z" transform="translate(-112.431 -24.293)" fill="#8a95a8"/>
        <g id="Group_115012" data-name="Group 115012" transform="translate(407.066 129.427)">
          <path id="Path_49448" data-name="Path 49448" d="M482.96,396.766c0,.161.968,3.226.323,3.387a6.887,6.887,0,0,1-2.581,0c-.323-.162-.645-.162-1.29.161s-6.452.484-6.774,0,4.517-1.613,6.452-3.387A2.926,2.926,0,0,1,482.96,396.766Z" transform="translate(-469.277 -294.452)" fill="#121d30"/>
          <path id="Path_49449" data-name="Path 49449" d="M517.226,402.139s3.226,2.1,3.065,2.742-4.194,1.129-5.807.645-2.419-.645-1.29-1.935S515.452,401.332,517.226,402.139Z" transform="translate(-493.22 -297.89)" fill="#121d30"/>
          <g id="Group_115005" data-name="Group 115005" transform="translate(6.239 45.927)">
            <path id="Path_49450" data-name="Path 49450" d="M498.071,265.857s1.452,12.1.645,18.711.967,15.484.323,19.033-1.452,11.614-.484,12.582c0,0-3.064,1.774-4.194,0,0,0-2.42-14.84-3.065-20s-3.226-24.518-3.871-24.679,1.613,20.485,1.129,24.679-1.129,15.807-.645,18.388c0,0-3.871,1.129-5-.161,0,0,.322-12.9,0-16.13s-4.517-24.034-2.581-30.486S492.264,249.4,498.071,265.857Z" transform="translate(-479.82 -257.538)" fill="#121d30"/>
            <g id="Group_115004" data-name="Group 115004" clip-path="url(#clip-path)">
              <path id="Path_49451" data-name="Path 49451" d="M495.173,277.9s-9.839-.538-12.743-6.721h0s-6.936,7.366-10,5.108,11.452-12.1,11.452-12.1S496.624,271.123,495.173,277.9Z" transform="translate(-475.147 -261.513)" fill="#20367b" opacity="0.35" style="mix-blend-mode: multiply;isolation: isolate"/>
            </g>
          </g>
          <g id="Group_115007" data-name="Group 115007" transform="translate(4.833 19.244)">
            <path id="Path_49453" data-name="Path 49453" d="M492.352,191.181h-6.613l-7.5,4.355-1.21,11.775s1.129,19.034-.484,22.582,6.129-.484,6.936-1.613a18.456,18.456,0,0,0,1.613-3.226s-.807,3.226,3.871,5.161,10.323,2.9,10,2.258-1.936-8.872-2.258-10.807.161-11.291.161-11.291S502.271,195.536,492.352,191.181Z" transform="translate(-476.324 -191.181)" fill="#121d30"/>
            <g id="Group_115006" data-name="Group 115006" clip-path="url(#clip-path-2)">
              <path id="Path_49454" data-name="Path 49454" d="M476.27,238.417s3.226-.645,4.355-.968c0,0,16.291,7.258,19.033,5.484s-7.581-4.839-7.581-4.839L477.4,233.9Z" transform="translate(-476.292 -216.723)" fill="#20367b" opacity="0.35" style="mix-blend-mode: multiply;isolation: isolate"/>
              <path id="Path_49455" data-name="Path 49455" d="M496.051,213.014c-.228-.014-1.613,5.9-3.065,5.932s-4.355.037-4.355.037l-.484-.807s-6.334-.357-7.1-.484c-1.935-.323-2.419-6.855-2.419-6.855s-2.9,5.4-3.226,6.532,1.29,3.764,1.29,3.764,17.581,3.656,19.194.591S498.632,213.176,496.051,213.014Z" transform="translate(-475.749 -202.933)" fill="#20367b" opacity="0.35" style="mix-blend-mode: multiply;isolation: isolate"/>
            </g>
          </g>
          <g id="Group_115009" data-name="Group 115009" transform="translate(14.865 13.865)">
            <path id="Path_49457" data-name="Path 49457" d="M506.7,179.312c0,.161,0,3.064.645,3.871s-3.226.968-3.226.968l-2.851-1.966a17.133,17.133,0,0,0,.432-4C501.54,176.892,506.7,179.312,506.7,179.312Z" transform="translate(-501.27 -177.804)" fill="#fdab7d"/>
            <g id="Group_115008" data-name="Group 115008" clip-path="url(#clip-path-3)">
              <ellipse id="Ellipse_4735" data-name="Ellipse 4735" cx="4.355" cy="4.194" rx="4.355" ry="4.194" transform="translate(-1.181 -4.621)" fill="#fdab7d" opacity="0.37" style="mix-blend-mode: multiply;isolation: isolate"/>
            </g>
          </g>
          <ellipse id="Ellipse_4736" data-name="Ellipse 4736" cx="5.162" cy="6.855" rx="5.162" ry="6.855" transform="translate(12.877 3.114)" fill="#fdab7d"/>
          <path id="Path_49459" data-name="Path 49459" d="M504.78,152.889l.485-.645s.323-4.033-.484-5.162-3.55-3.379-5.646-3.71c-3.065-.484-1.29,2.742-2.9,2.1s-3.549,1.29-2.9,3.387,1.129,4.355,1.129,4.355-.161-3.71.645-3.387,2.581,1.774,4.839-.161C501.1,148.673,504.456,147.565,504.78,152.889Z" transform="translate(-481.582 -143.323)" fill="#121d30"/>
          <path id="Path_49460" data-name="Path 49460" d="M520.909,166.142c-.221.806-.053,1.555.377,1.673s.957-.439,1.179-1.245.053-1.555-.377-1.672S521.131,165.337,520.909,166.142Z" transform="translate(-498.089 -156.213)" fill="#fdab7d"/>
          <path id="Path_49461" data-name="Path 49461" d="M495.214,166.142c.222.806.053,1.555-.377,1.673s-.957-.439-1.179-1.245-.053-1.555.377-1.672S494.993,165.337,495.214,166.142Z" transform="translate(-481.796 -156.213)" fill="#fdab7d"/>
          <g id="Group_115011" data-name="Group 115011" transform="translate(13.522 18.115)">
            <path id="Path_49462" data-name="Path 49462" d="M505.19,188.373l.645,2.1-3.387,11.936-2.749,7.842-1.768-14.294.376-5.7.753-1.882,2.9,1.774Z" transform="translate(-497.931 -188.373)" fill="#fdfefd"/>
            <g id="Group_115010" data-name="Group 115010" clip-path="url(#clip-path-4)">
              <path id="Path_49463" data-name="Path 49463" d="M506.442,192.786s1.29,1.613.967,1.774-.645.645-1.129.645-1.129-.807-1.129-.807Z" transform="translate(-502.248 -191.012)" fill="#3dd0e2"/>
              <path id="Path_49464" data-name="Path 49464" d="M504.362,198.8l.081,6.367-1.573,7.062-.927-1.976.161-5.323Z" transform="translate(-500.329 -194.609)" fill="#3dd0e2"/>
            </g>
          </g>
          <path id="Path_49466" data-name="Path 49466" d="M506.31,190.379s4.194,5.161,3.226,5.323-2.581.807-2.258,1.613,1.936,2.9-.645,4.355-6.613,9.678-7.1,18.227C499.536,219.9,500.474,199.8,506.31,190.379Z" transform="translate(-485.369 -171.457)" fill="#2c394f"/>
          <path id="Path_49467" data-name="Path 49467" d="M493.475,190.379s-5.143,4.222-4.24,4.6,2.323,1.384,1.822,2.093-2.557,2.374-.385,4.386,4.183,10.95,2.666,19.377C493.338,220.839,496.96,200.9,493.475,190.379Z" transform="translate(-479.146 -171.457)" fill="#2c394f"/>
          <path id="Path_49468" data-name="Path 49468" d="M500.926,229.911l2.2.072-1.1,3.1-2.289-.193Z" transform="translate(-485.488 -195.093)" fill="#fff"/>
          <path id="Path_49469" data-name="Path 49469" d="M506.068,230.7s4.4-1,6.156.142-.176,3.885-2.6,3.4-4.678-.807-4.678-.807Z" transform="translate(-488.606 -195.325)" fill="#fdab7d"/>
          <path id="Path_49470" data-name="Path 49470" d="M498.846,192.425c-.965-1.235-1.383-1.1-.645-.968,1.722.316,7.032,3.315,8.307,5.484,1.389,2.364,1.774,14.678-2.581,17.9-3.632,2.69-19.034-3.549-19.034-3.549l3.872-1.613s7.1.484,9.194.968,3.1-7.682,3.468-8.549A7.95,7.95,0,0,0,498.846,192.425Z" transform="translate(-476.614 -172.051)" fill="#121d30"/>
          <path id="Path_49471" data-name="Path 49471" d="M477.826,191.983s-7.178,2.581-9.113,5.323-4.839,11.13-4.355,13.226,6.129,2.9,14.194-.326l1.29-3.222s-7.608,1.253-7.742.322C470.567,196.661,477.826,191.983,477.826,191.983Z" transform="translate(-464.304 -172.416)" fill="#121d30"/>
          <path id="Path_49472" data-name="Path 49472" d="M477.3,225.753a7.624,7.624,0,0,0-3.388-2.976c-1.29-.484-3.307-.081-3.468,1.21s1.7,2.136,3.106,1.955S477.3,225.753,477.3,225.753Z" transform="translate(-467.966 -190.709)" fill="#fdab7d"/>
          <path id="Path_49473" data-name="Path 49473" d="M506.043,163.185s-.5,4.788-2.487,4.788-2.715-.905-4.707,0-2.968-4.389-2.968-4.389l-.29-.136a6.265,6.265,0,0,1,.362,3.077s-.181,3.621.362,4.163,4.344,2.535,5.25,2.354,4.707-2.535,4.888-3.077a20.861,20.861,0,0,0-.181-3.621,9.942,9.942,0,0,1,.181-3.077C506.814,162.18,506.043,163.185,506.043,163.185Z" transform="translate(-483.01 -154.945)" fill="#121d30"/>
        </g>
        <g id="Group_115014" data-name="Group 115014" transform="translate(386.758 120.082)">
          <path id="Path_49474" data-name="Path 49474" d="M592.253,314.285,553.736,276.38l7.553-7.675,38.518,37.905a5.384,5.384,0,0,1,.061,7.614h0A5.385,5.385,0,0,1,592.253,314.285Z" transform="translate(-497.467 -208.942)" fill="#3dd0e2"/>
          <path id="Path_49475" data-name="Path 49475" d="M606.719,330.707,581.7,306.089l9.791-9.949,25.015,24.618a6.98,6.98,0,0,1,.079,9.87h0A6.98,6.98,0,0,1,606.719,330.707Z" transform="translate(-514.189 -225.345)" fill="#121d30"/>
          <g id="Group_115013" data-name="Group 115013" transform="translate(0)">
            <path id="Path_49476" data-name="Path 49476" d="M424.919,183.933a37.29,37.29,0,1,1,52.735-.422A37.332,37.332,0,0,1,424.919,183.933Zm48.676-49.462a32.105,32.105,0,1,0,.364,45.4A32.142,32.142,0,0,0,473.594,134.471Z" transform="translate(-413.802 -120.082)" fill="#3dd0e2"/>
          </g>
        </g>
      </g>
    </g>
  </g>
</svg>
