<svg xmlns="http://www.w3.org/2000/svg" width="73" height="73" viewBox="0 0 73 73">
  <g id="Group_165173" data-name="Group 165173" transform="translate(-505 -6640)">
    <rect id="Rectangle_1901" data-name="Rectangle 1901" width="73" height="73" transform="translate(505 6640)" fill="none"/>
    <g id="process_6_" data-name="process (6)" transform="translate(504.997 6640)">
      <path id="Path_28738" data-name="Path 28738" d="M183.139,185.278h17.111a2.139,2.139,0,1,0,0-4.278H183.139a2.139,2.139,0,0,0,0,4.278Zm0,0" transform="translate(-155.191 -155.193)" fill="#3dd0e2"/>
      <path id="Path_28739" data-name="Path 28739" d="M183.139,245.278h17.111a2.139,2.139,0,1,0,0-4.278H183.139a2.139,2.139,0,0,0,0,4.278Zm0,0" transform="translate(-155.191 -206.639)" fill="#3dd0e2"/>
      <path id="Path_28740" data-name="Path 28740" d="M183.139,305.278h17.111a2.139,2.139,0,1,0,0-4.278H183.139a2.139,2.139,0,1,0,0,4.278Zm0,0" transform="translate(-155.191 -258.084)" fill="#3dd0e2"/>
      <path id="Path_28741" data-name="Path 28741" d="M332.047,64.455a23.554,23.554,0,0,1,11.767,14.383h-3.366a2.138,2.138,0,0,0-1.78,3.325l7.486,12.892a2.22,2.22,0,0,0,3.559,0c.815-1.4,7.908-13.374,7.629-12.892a2.139,2.139,0,0,0-1.78-3.325h-2.926a32.021,32.021,0,0,0-16.682-21.979,6.52,6.52,0,0,1,.221,1.66,6.144,6.144,0,0,1-4.126,5.936Zm0,0" transform="translate(-284.7 -48.751)" fill="#3dd0e2"/>
      <path id="Path_28742" data-name="Path 28742" d="M68.354.359a2.139,2.139,0,0,0-3.325,1.78V5.065A32.114,32.114,0,0,0,40.754,27.222a6.325,6.325,0,0,1,8.812.833A23.567,23.567,0,0,1,65.029,13.893v3.366a2.139,2.139,0,0,0,3.325,1.78l12.892-7.486a2.219,2.219,0,0,0,0-3.559C79.842,7.174,67.877.08,68.354.359Zm0,0" transform="translate(-34.941 0)" fill="#121d30"/>
      <path id="Path_28743" data-name="Path 28743" d="M.253,226.981a2.139,2.139,0,0,0,1.887,1.13H6.286A32.083,32.083,0,0,0,21.747,245.79a6.5,6.5,0,0,1-.208-1.638,6.126,6.126,0,0,1,4.1-5.92,23.623,23.623,0,0,1-10.055-10.121h1.681a2.138,2.138,0,0,0,1.78-3.325l-7.486-12.892a2.22,2.22,0,0,0-3.559,0c-.569.971-8.1,13.686-7.633,12.892a2.143,2.143,0,0,0-.1,2.2Zm0,0" transform="translate(0 -180.92)" fill="#3dd0e2"/>
      <path id="Path_28744" data-name="Path 28744" d="M198.112,341.347a2.138,2.138,0,0,0-3.325-1.78l-12.892,7.486a2.22,2.22,0,0,0,0,3.559c1.4.815,13.374,7.908,12.892,7.629a2.139,2.139,0,0,0,3.325-1.78v-2.926a32.02,32.02,0,0,0,21.973-16.688,6.477,6.477,0,0,1-1.659.222c-3.633,0-5.009-2.315-6.009-3.98a23.556,23.556,0,0,1-14.31,11.623Zm0,0" transform="translate(-155.191 -285.601)" fill="#121d30"/>
    </g>
  </g>
</svg>
