<svg xmlns="http://www.w3.org/2000/svg" width="373" height="180" viewBox="0 0 373 180">
  <g id="Group_115031" data-name="Group 115031" transform="translate(-120 -3956)">
    <path id="Rectangle_1875" data-name="Rectangle 1875" d="M20,0H353a20,20,0,0,1,20,20V180a0,0,0,0,1,0,0H0a0,0,0,0,1,0,0V20A20,20,0,0,1,20,0Z" transform="translate(120 3956)" fill="#e6edf7"/>
    <g id="Group_115001" data-name="Group 115001" transform="translate(6.109)">
      <path id="Path_49283" data-name="Path 49283" d="M536.13,1707.329c0,4.873-70.969,8.824-158.513,8.824S219.1,1712.2,219.1,1707.329s70.969-8.824,158.513-8.824S536.13,1702.456,536.13,1707.329Z" transform="translate(-77.213 2393.693)" fill="#121d30" opacity="0.08"/>
      <g id="Group_114919" data-name="Group 114919" transform="translate(265.033 3993.646)">
        <rect id="Rectangle_1875-2" data-name="Rectangle 1875" width="45.712" height="106.104" rx="22.856" transform="translate(47.545 107.055) rotate(180)" fill="#587aa3"/>
        <rect id="Rectangle_1876" data-name="Rectangle 1876" width="54.01" height="107.869" rx="3" transform="translate(54.01 107.869) rotate(180)" fill="#121d30"/>
        <g id="Group_114904" data-name="Group 114904" transform="translate(30.374 37.112)">
          <g id="Group_114903" data-name="Group 114903">
            <g id="Group_114902" data-name="Group 114902">
              <g id="Group_114901" data-name="Group 114901">
                <path id="Path_49306" data-name="Path 49306" d="M1393.911,1228.32l1.977,3.116,1.825,2.876c0-.015-.126-.451-.332-1.712-.039-.239-.081-.508-.126-.81a2.121,2.121,0,0,0-.057-.265h0a8.525,8.525,0,0,0-3.284-3.2Z" transform="translate(-1393.911 -1228.32)" fill="#eddad3"/>
              </g>
            </g>
          </g>
        </g>
        <g id="Group_114907" data-name="Group 114907" transform="translate(30.377 37.113)">
          <g id="Group_114906" data-name="Group 114906">
            <g id="Group_114905" data-name="Group 114905">
              <path id="Path_49307" data-name="Path 49307" d="M1397.2,1231.511h0a4.053,4.053,0,0,1,.192,1.1l-.715-1.079s-1.277-1.831-1.714-2.307a7.27,7.27,0,0,0-1.038-.893S1396.441,1229.536,1397.2,1231.511Z" transform="translate(-1393.929 -1228.329)" fill="#ffca55"/>
            </g>
          </g>
        </g>
        <path id="Path_49308" data-name="Path 49308" d="M1236.214,956.293v96.7a4.7,4.7,0,0,1-4.7,4.7H1195.2a4.7,4.7,0,0,1-4.7-4.7v-96.7a4.7,4.7,0,0,1,4.7-4.7h36.306A4.7,4.7,0,0,1,1236.214,956.293Z" transform="translate(-1186.708 -950.639)" fill="#6bb0ff" opacity="0.73" style="mix-blend-mode: screen;isolation: isolate"/>
        <g id="Group_114913" data-name="Group 114913" transform="translate(6.472 16.187)">
          <path id="Path_49309" data-name="Path 49309" d="M1288.839,1680.574a7.265,7.265,0,0,0,2.024,2.979c1.268.886,2.577,2.153,2.232,3.039s-4.58.417-6.351-2.156c-1.119-1.625-2.256-1.988-2.253-2.758s1.3-2.309,1.369-2.527C1285.945,1678.881,1288.839,1680.574,1288.839,1680.574Z" transform="translate(-1274.888 -1599.289)" fill="#353a3d"/>
          <path id="Path_49310" data-name="Path 49310" d="M1298.139,1673.864a7.738,7.738,0,0,1-.313.758c-.033,0-3.269-.863-2.978-1.423a5.142,5.142,0,0,1,.675-.924Z" transform="translate(-1283.875 -1593.337)" fill="#81807e"/>
          <g id="Group_114908" data-name="Group 114908" transform="translate(6.051 42.993)">
            <path id="Path_49311" data-name="Path 49311" d="M1257.3,1399.583s.936-2.221,1.661-2.36.129.439.129.439-.921,1.526-1.231,2.166A3.6,3.6,0,0,1,1257.3,1399.583Z" transform="translate(-1257.3 -1397.202)" fill="#434343"/>
          </g>
          <g id="Group_114909" data-name="Group 114909" transform="translate(6.907 39.124)">
            <path id="Path_49312" data-name="Path 49312" d="M1267.583,1369.719a17.711,17.711,0,0,0-.232,2.165c-.039,1.089.134,1.5-.189,2.02-.243.391-.836.539-.909.36s.453-1.848-.233-2.082-.519,2.113-.872,1.82-1.615-1.705-1.222-2.5,1.231-1.174,1.631-2.429a2.832,2.832,0,0,1,.88-1.485Z" transform="translate(-1263.851 -1367.588)" fill="#eea886"/>
          </g>
          <g id="Group_114910" data-name="Group 114910" transform="translate(7.882 43.616)">
            <path id="Path_49313" data-name="Path 49313" d="M1272.6,1402.025s.827.554-.317,3.611l-.969-.537a11.241,11.241,0,0,0,.642-2.729S1272.224,1401.788,1272.6,1402.025Z" transform="translate(-1271.316 -1401.968)" fill="#545554"/>
          </g>
          <g id="Group_114911" data-name="Group 114911" transform="translate(0.836 43.897)">
            <path id="Path_49314" data-name="Path 49314" d="M1228.084,1409.232l-7.212-5.117L1217.4,1414l6.285,7.61Z" transform="translate(-1217.396 -1404.115)" fill="#545554"/>
          </g>
          <path id="Path_49315" data-name="Path 49315" d="M1332.306,1395.688v19.4c-1.986-6.026-6.325-19.057-7.37-21.19-.91-1.866-9.163-12.634-9.769-11.865a83.722,83.722,0,0,0-4.437,12.017c-.444,2.221-10.564,18.712-10.564,18.712s-.178-.037-.45-.11a5.574,5.574,0,0,1-2.739-1.6,2.155,2.155,0,0,1-.209-.324s7.433-16.136,8.133-19.188c.246-1.066.523-6.278,1.5-11.714a45.351,45.351,0,0,1,1.8-7.1c.308-.852,1.208-1.207,2.41-1.244.2-.01.418-.005.638.005.366.021.753.063,1.155.12a23.573,23.573,0,0,1,2.875.648c.826.24,1.652.507,2.42.779.894.319,1.72.643,2.4.92.225.089.434.178.628.256.214.089.4.173.564.241.429.188.68.3.68.3s1.3,2.316,2.916,5.258c2.222,4.046,5.039,9.262,5.9,11.269A37.858,37.858,0,0,1,1332.306,1395.688Z" transform="translate(-1285.56 -1331.849)" fill="#353a3d"/>
          <path id="Path_49316" data-name="Path 49316" d="M1308.389,1194.47l3.053,3.413v5.65c-2.185-2.075-4.756-4.725-5.713-5.567a1.714,1.714,0,0,0-.345-.261,2.66,2.66,0,0,1-.679-.9c-.084-.141-.178-.3-.272-.471-.141-.256-.287-.533-.439-.826-.1-.193-.2-.392-.308-.6s-.2-.413-.308-.617c-.2-.413-.408-.826-.591-1.213-.141-.293-.272-.57-.392-.821-.078-.172-.157-.329-.225-.475s-.131-.277-.183-.4c-.131-.282-.214-.465-.235-.507a13.829,13.829,0,0,1-.026,2.42,11.756,11.756,0,0,1-.314,1.819,14.1,14.1,0,0,0-.324,2.818v.031c0,.026-.005.047-.005.073v.031c-.052,1.923.078,4,.136,5.1a4.034,4.034,0,0,1-.5,2.5l-.219-.031-.377-.052-.428-.057-.58-.083-2.253-.314-.821-.115-.188-.026-1.427-.2-2.88-.4-1.15-.162-.622-.089-1.516-.214-.679-.1h-.01s-.586-4.134-.627-6.366a40.821,40.821,0,0,0-1.328-6.915.165.165,0,0,1-.01-.042v-.005c0-.005,0-.005-.005-.005v-.01s-3.288,3.455-3.925,4.96c-.157.371-.575,1.254-1.134,2.383-.01.026-.021.052-.031.073-1.516,3.068-4,7.861-4.966,8.985-.115.146-.214.23-.282.24a.516.516,0,0,1-.094.01c-.6.005-1.61-.831-2.106-1.281-.183-.162-.292-.272-.292-.272s.042-.1.125-.277c.7-1.6,4.25-9.675,5.143-11.572.084-.178.146-.3.178-.361a.812.812,0,0,0,.052-.1c.669-1.291,5.217-11.175,5.912-11.672a3.839,3.839,0,0,1,.366-.214,1.367,1.367,0,0,0,.178-.089.09.09,0,0,0,.026-.01c.115-.052.235-.11.371-.172.042-.021.089-.042.136-.063.094-.042.188-.083.287-.131.549-.24,1.2-.512,1.824-.768.178-.073.35-.141.512-.2.246-.1.486-.188.706-.272.031-.01.057-.021.084-.031a10.6,10.6,0,0,1,1.411-.481h.094c.047,0,.11.005.183.01.909.052,3.622.3,4.5.387l.277.026s.418.193,1.045.476l.005.005.052.021c.366.167.794.366,1.249.575.951.439,2.028.941,2.88,1.343.816.392,2.049,1.056,2.143,1.129Z" transform="translate(-1264.696 -1164.664)" fill="#decbc4"/>
          <path id="Path_49317" data-name="Path 49317" d="M1397.66,1369.742a3.735,3.735,0,0,1,.391,1.9s-12.455-1.453-13.771-2.026c0,0-.052-1.691.228-1.72C1384.814,1367.861,1397.66,1369.742,1397.66,1369.742Z" transform="translate(-1361.632 -1328.729)" fill="#495055"/>
          <path id="Path_49318" data-name="Path 49318" d="M1405.423,1146.237c.039,1.954,3.823,3.024,3.823,3.024s1.583-1.985,1.2-2.175c-.148-.075-.209-.371-.227-.7a6.914,6.914,0,0,1,.022-.886c.011-.138.022-.227.022-.227s-.541-.571-1.229-1.25c-1.2-1.189-2.855-2.711-2.857-2.106a.557.557,0,0,0,.014.115C1406.486,1143.391,1405.423,1146.237,1405.423,1146.237Z" transform="translate(-1380.017 -1132.16)" fill="#eea886"/>
          <path id="Path_49319" data-name="Path 49319" d="M1402.026,1369.714s-.272,1.714-.3,2.161l-.576-.115s.159-1.814.252-2.118Z" transform="translate(-1376.306 -1330.251)" fill="#5d676c"/>
          <path id="Path_49320" data-name="Path 49320" d="M1474.889,1379.974s.218,1.558.224,2.147l-.609-.079s-.125-1.946-.195-2.149Z" transform="translate(-1439.901 -1339.161)" fill="#353a3d"/>
          <path id="Path_49321" data-name="Path 49321" d="M1416.577,1154h0c.008.012.168.252.442.6a7.927,7.927,0,0,0,2.9,2.414,6.9,6.9,0,0,1,.021-.886,1.964,1.964,0,0,0,.376-.045,11.623,11.623,0,0,0-.823-1.2l-.76-.227Z" transform="translate(-1389.713 -1142.783)" fill="#a77860"/>
          <path id="Path_49322" data-name="Path 49322" d="M1402.444,1099.328c.327.712.638,1.229.726,1.433h0a2.52,2.52,0,0,0,.442.6,4.362,4.362,0,0,0,2.923,1.527,1.965,1.965,0,0,0,.376-.046,1.787,1.787,0,0,0,1.3-.9,10.236,10.236,0,0,0,.652-8.4s-6.456-1.826-7.466.118C1400.691,1095.018,1401.675,1097.655,1402.444,1099.328Z" transform="translate(-1376.307 -1089.548)" fill="#eea886"/>
          <path id="Path_49323" data-name="Path 49323" d="M1402.43,1072.177s.6-.033.748-1.17-.15-1.435-.15-1.435a26.7,26.7,0,0,0-3.622-1.261c-.957-.145-3.311-.285-3.862.346,0,0-1.341-.312-1.706,1.914-.579,3.53,1.974,6.958,1.974,6.958s-.022-2.306.487-2.612.948.421.948.421l1.04.186s-1.58-3.412.315-3.538S1401.345,1072.375,1402.43,1072.177Z" transform="translate(-1369.871 -1068.189)" fill="#e2d2ca"/>
          <path id="Path_49324" data-name="Path 49324" d="M1408.171,1109.4c-.1-1.016-1.937-1.4-1.813-.339s1.028,2.088,1.446,2.052S1408.246,1110.174,1408.171,1109.4Z" transform="translate(-1380.824 -1103.168)" fill="#eea886"/>
          <path id="Path_49325" data-name="Path 49325" d="M1281.673,1198.631c-.721,1.468-5.226,11.286-6.016,11.432s-2.894-1.674-2.894-1.674,5.027-11.081,5.449-11.826,5.245-11.26,5.961-11.773a30.272,30.272,0,0,1,3.7-1.651c.275-.109.541-.212.787-.305.319.355,5.448,6.151,4.966,11.289-.145,1.544-.339,4.061-.766,6.712-.442,2.754-1.156,5.868-1.617,8.218a43.089,43.089,0,0,1-2.675,8.3l-4.8-2.4a1.671,1.671,0,0,1-.826-2.057c1.08-3.025,3.238-9.136,3.239-11.791a60.361,60.361,0,0,0-.584-7.422A31.917,31.917,0,0,0,1281.673,1198.631Z" transform="translate(-1264.692 -1167.853)" fill="#3c4145"/>
          <path id="Path_49326" data-name="Path 49326" d="M1467.329,1203.923v5.959c-2.138-2.086-4.751-4.882-5.713-5.76a1.7,1.7,0,0,0-.345-.261,2.662,2.662,0,0,1-.679-.9c-.089-.141-.178-.3-.272-.47-.141-.256-.288-.533-.439-.826-.1-.193-.2-.392-.308-.6s-.2-.413-.308-.617c-.2-.413-.408-.826-.591-1.213-.141-.293-.277-.57-.392-.821-.078-.172-.157-.329-.225-.476s-.131-.277-.183-.4c-.131-.282-.214-.465-.235-.507a5.9,5.9,0,0,1-.026,2.42,18.185,18.185,0,0,0-.637,4.636v.031c.4,4.981,2.493,12.032,3.115,14.029a.884.884,0,0,1-.173.836.484.484,0,0,1-.084.1l-1.495,1.38s-1.3-3.994-1.965-6.811c-.016-.078-.037-.157-.052-.23a15.166,15.166,0,0,1-.309-1.678v-.005c-.12-1.119-.361-2.425-.622-3.816s-.522-2.87-.685-4.328c-.418-3.7-.847-7.37-1.155-9.523-.1-.7-.2-1.349-.292-1.944a51.216,51.216,0,0,0-1.171-5.859l.031-.026c.366.167.794.366,1.249.575.951.439,2.028.941,2.88,1.343.816.392,2.049,1.056,2.143,1.129l5.885,11.332Z" transform="translate(-1420.583 -1170.819)" fill="#3c4145"/>
          <path id="Path_49327" data-name="Path 49327" d="M1390.26,1187.685l1.841,1.038-.786.8,2.095,11.309c.427-2.651.621-5.168.766-6.712.482-5.138-4.647-10.934-4.966-11.289-.246.093-.512.2-.787.305Z" transform="translate(-1365.237 -1167.853)" fill="#51565c"/>
          <path id="Path_49328" data-name="Path 49328" d="M1451.886,1186.056a59.607,59.607,0,0,1,1.49,7.855c.307,2.154.739,5.821,1.153,9.522l.429-10.591-.877-.95.78-.974-1.669-4.26c-.456-.211-.885-.408-1.248-.574Z" transform="translate(-1420.408 -1170.654)" fill="#51565c"/>
          <path id="Path_49329" data-name="Path 49329" d="M1324.127,1185.171c-1.5.593-3.743,1.364-4.156,1.661-.716.513-5.086,11.018-5.508,11.763Z" transform="translate(-1300.942 -1169.885)" fill="#3c4145"/>
          <path id="Path_49330" data-name="Path 49330" d="M1218.118,1420.341l-1.07-.171-6.051-7.577,3.63-9.937.682.191Z" transform="translate(-1210.997 -1358.95)" fill="#545554"/>
          <path id="Path_49331" data-name="Path 49331" d="M1393.74,1176.84l1.527-.927s.043.837,3.823,3.024l-1.073,3.024Z" transform="translate(-1369.86 -1161.836)" fill="#f5e2d9"/>
          <path id="Path_49332" data-name="Path 49332" d="M1435.688,1179.142a7.113,7.113,0,0,1-1.006,2.6l2.1,2.732.153-4.43Z" transform="translate(-1405.452 -1164.643)" fill="#f5e2d9"/>
          <path id="Path_49333" data-name="Path 49333" d="M1432.7,1199.055a7.12,7.12,0,0,0-.26,2.079,1.983,1.983,0,0,0,1.535-.081A7.14,7.14,0,0,0,1432.7,1199.055Z" transform="translate(-1403.474 -1181.954)" fill="#3dd0e2"/>
          <g id="Group_114912" data-name="Group 114912" transform="translate(31.13 35.801)">
            <path id="Path_49334" data-name="Path 49334" d="M1449.42,1346.89a30.732,30.732,0,0,0,0-4.726l-.194.012a31.456,31.456,0,0,1,0,4.676Z" transform="translate(-1449.227 -1342.164)" fill="#ad9f99"/>
          </g>
          <path id="Path_49335" data-name="Path 49335" d="M1438.265,1374.286s1.833.219,2.439.37l-.079,2.054-2.4-.256Z" transform="translate(-1408.532 -1334.287)" fill="#69737a"/>
          <path id="Path_49336" data-name="Path 49336" d="M1432.522,1211.712a41.33,41.33,0,0,1,2.032,10.858c.228,5.783-.384,7.277-.384,7.277l-2.258,2.032-.756-2.641a34.371,34.371,0,0,0,.946-13.856c-.2-1.347-.491-3.9-.491-3.9Z" transform="translate(-1402.388 -1192.76)" fill="#464157"/>
        </g>
        <rect id="Rectangle_1877" data-name="Rectangle 1877" width="49.426" height="106.107" rx="4" transform="translate(3.792 0.948)" fill="#a3cdff" opacity="0.98" style="mix-blend-mode: screen;isolation: isolate"/>
        <g id="Group_114918" data-name="Group 114918" transform="translate(33.615 16.456)">
          <g id="Group_114915" data-name="Group 114915" transform="translate(21.63 38.147)">
            <g id="Group_114914" data-name="Group 114914">
              <path id="Path_49337" data-name="Path 49337" d="M1586.343,1362.169s.734,1.07,1.119,1.105a8.078,8.078,0,0,1,1.262.477c.337.1,1.359.041,1.658.265.122.092.641.951.91,1.111s.856.416.705.645-.742.142-.742.142a.39.39,0,0,1,.166.4c-.137.467-.438.527-.438.527s.13.32.024.5a.857.857,0,0,1-.527.449.787.787,0,0,1-.215.493.718.718,0,0,1-.663.2s-.261.448-.547.406a2.418,2.418,0,0,1-.679-.319,8.952,8.952,0,0,1-2.415-2.878,6.617,6.617,0,0,0-1.719-2.218Z" transform="translate(-1584.241 -1362.169)" fill="#eea886"/>
            </g>
          </g>
          <g id="Group_114916" data-name="Group 114916" transform="translate(24.742 40.657)">
            <path id="Path_49338" data-name="Path 49338" d="M1611.861,1382.444s-1.343-1.161-1.944-1.057-.14.55-.14.55-.448-.449-.851-.127.165.815.165.815a.513.513,0,0,0-.709.21c-.276.459.29.76.29.76s-.811-.011-.576.607a2.71,2.71,0,0,0,1.624,1.411.622.622,0,0,0,.6-.409.709.709,0,0,0,.884-.685s.869-.313.523-.961A.627.627,0,0,0,1611.861,1382.444Z" transform="translate(-1608.055 -1381.38)" fill="#db9c7c"/>
          </g>
          <path id="Path_49339" data-name="Path 49339" d="M1582.165,1731.376a7.662,7.662,0,0,0,3.457,1.573c1.628.1,3.5.527,3.677,1.515s-4.945,2.242-6.9,1.54c-2.924-1.048-3.123-.554-3.542-1.25s-.094-2.794-.152-3.028C1578.629,1731.438,1582.165,1731.376,1582.165,1731.376Z" transform="translate(-1557.737 -1644.984)" fill="#121d30"/>
          <path id="Path_49340" data-name="Path 49340" d="M1582.294,1725.279a7.276,7.276,0,0,1,.31.8c-.027.022-3.463,1.017-3.464.351,0-.54.028-1.132.028-1.132Z" transform="translate(-1558.176 -1639.684)" fill="#81807e"/>
          <path id="Path_49341" data-name="Path 49341" d="M1444.4,1419.042c.042.2-.188.334-.554.413a15.013,15.013,0,0,1-3.3.073l-.371-.026s-7-21.451-8.374-24.243c-.91-1.866-9.163-12.633-9.769-11.865a34.22,34.22,0,0,1-2.127-8.426c-.084-.617-.152-1.26-.209-1.923a24.284,24.284,0,0,1,2.451.575c.826.241,1.652.507,2.42.779.894.319,1.72.643,2.4.92.225.089.434.178.627.256.214.089.4.173.564.241.429.188.68.3.68.3s1.3,2.316,2.917,5.258c2.221,4.046,5.039,9.262,5.9,11.269a49.463,49.463,0,0,1,2.995,11.248C1440.888,1406.738,1444.228,1418.211,1444.4,1419.042Z" transform="translate(-1419.56 -1333.477)" fill="#121d30"/>
          <path id="Path_49342" data-name="Path 49342" d="M1443.782,1205.32s-.063.073-.167.2c-.361.423-1.234,1.427-1.788,1.955a.471.471,0,0,0-.052.047c-.062.057-.188.031-.371-.063-1.584-.821-7.265-6.821-8.8-8.17-.1-.089-.193-.162-.256-.209a.086.086,0,0,0-.036-.021.2.2,0,0,0-.052-.031,2.66,2.66,0,0,1-.679-.9c-.084-.141-.178-.3-.272-.47-.068-.131-.141-.261-.214-.4s-.146-.282-.225-.429c-.1-.193-.2-.392-.309-.6-.36-.711-.727-1.458-1.04-2.117-.073-.162-.151-.319-.219-.47-.12-.251-.225-.476-.319-.674-.042-.089-.078-.173-.115-.251-.026-.063-.052-.115-.078-.167a1.135,1.135,0,0,0-.063-.136c-.047-.1-.078-.178-.094-.209a.005.005,0,0,0-.005-.005,13.821,13.821,0,0,1-.026,2.42v.005a11.711,11.711,0,0,1-.313,1.814,14.087,14.087,0,0,0-.324,2.817v.031c0,.026-.005.047-.005.073v.031c-.052,1.923.078,4,.136,5.1a4.033,4.033,0,0,1-.5,2.5l-.219-.031c-.094-.016-.225-.031-.376-.052l-.428-.058-.58-.083-2.253-.314-.821-.115-.188-.026-1.427-.2-2.467-.345v-.037c-.042-.5-.073-1.019-.094-1.547v-.005c-.031-.773-.037-1.573-.016-2.394a55.979,55.979,0,0,1,.481-5.708c.334-2.52.727-4.84.863-7.422a34.486,34.486,0,0,0,.005-3.528v-.005c-.042-.753-.1-1.542-.2-2.368-.01-.084-.021-.167-.036-.251-.073-.585-.162-1.192-.272-1.819.878.078,1.74.157,2.164.2h.005l.272.026s.418.194,1.045.476l.005.005.052.021c.366.167.794.366,1.249.575.952.439,2.028.941,2.88,1.343.815.392,2.049,1.056,2.143,1.129l5.885,11.332,8.316,9.3Z" transform="translate(-1418.711 -1166.254)" fill="#fff"/>
          <path id="Path_49343" data-name="Path 49343" d="M1428.8,1375.527l-.627-.073c-.167-.021-.366-.047-.591-.073-.183-.021-.392-.047-.611-.073-.7-.089-1.558-.194-2.493-.314-.768-.094-1.584-.2-2.4-.313-.747-.1-1.495-.2-2.211-.3-.084-.617-.152-1.26-.209-1.924a.173.173,0,0,0-.005-.052v-.037c.794.115,1.636.23,2.467.35.486.073.967.141,1.432.209.063.01.125.016.188.026.277.042.554.078.815.12.847.12,1.626.235,2.253.324.209.031.4.058.58.083.162.026.3.047.428.063v.005c.152.021.282.037.376.052l.219.031A3.731,3.731,0,0,1,1428.8,1375.527Z" transform="translate(-1419.525 -1332.886)" fill="#495055"/>
          <path id="Path_49344" data-name="Path 49344" d="M1421.473,1153.249h-.005l-.005-.005a8.376,8.376,0,0,1-.92-.324c-.01-.084-.021-.167-.036-.251-.073-.585-.162-1.192-.272-1.819-.084-.486-.178-.983-.287-1.495-.084-.4-.162-.795-.219-1.176v-.005c-.068-.073-.125-.146-.178-.214.052.057.11.115.167.172q-.055-.314-.094-.612v-.005c-.057-.4-.1-.779-.136-1.15.543.45,1.213,1.082,1.777,1.641.69.679,1.228,1.255,1.228,1.255s-.01.089-.021.225a7.763,7.763,0,0,0-.021.889,2.173,2.173,0,0,0,.026.272c.031.209.094.376.2.428C1423.057,1151.268,1421.473,1153.249,1421.473,1153.249Z" transform="translate(-1419.386 -1136.418)" fill="#eea886"/>
          <path id="Path_49345" data-name="Path 49345" d="M1474.889,1379.974s.218,1.558.224,2.147l-.609-.079s-.125-1.946-.195-2.149Z" transform="translate(-1467.044 -1339.43)" fill="#353a3d"/>
          <path id="Path_49346" data-name="Path 49346" d="M1422.889,1157.17a7.736,7.736,0,0,0-.021.889,7.6,7.6,0,0,1-2.723-2.2v-.005c-.068-.073-.125-.146-.178-.214.052.057.11.115.167.172q-.055-.314-.094-.612l1.641.486.763.23a11.56,11.56,0,0,1,.82,1.2A1.861,1.861,0,0,1,1422.889,1157.17Z" transform="translate(-1419.803 -1144.103)" fill="#a77860"/>
          <path id="Path_49347" data-name="Path 49347" d="M1423.563,1102.014a1.781,1.781,0,0,1-1.3.9,1.872,1.872,0,0,1-.376.047,4.217,4.217,0,0,1-2.755-1.354q-.055-.314-.094-.612v-.005c-.057-.4-.1-.779-.136-1.15a18.671,18.671,0,0,1-.078-2.368c.005-.314.021-.617.047-.9.021-.308.052-.606.1-.889a11.6,11.6,0,0,1,.742-2.833,23.2,23.2,0,0,1,4.506.769A10.227,10.227,0,0,1,1423.563,1102.014Z" transform="translate(-1418.799 -1089.893)" fill="#eea886"/>
          <path id="Path_49348" data-name="Path 49348" d="M1425.341,1072.8c-.146,1.134-.747,1.171-.747,1.171-1.087.193-1.934-.319-3.831-.193s-.314,3.539-.314,3.539l-1.04-.183-.005-.005a1.141,1.141,0,0,0-.157-.2c.021-.308.052-.606.1-.889a11.6,11.6,0,0,1,.742-2.833,6.762,6.762,0,0,1,2.085-2.953h.005c1.171.345,3.01,1.113,3.01,1.113S1425.488,1071.673,1425.341,1072.8Z" transform="translate(-1419.177 -1070.246)" fill="#121d30"/>
          <path id="Path_49349" data-name="Path 49349" d="M1419.091,1115.618a1.225,1.225,0,0,1-.2.7c.005-.314.021-.617.047-.9.021-.308.052-.606.1-.888a.678.678,0,0,1,.037.178A5.412,5.412,0,0,1,1419.091,1115.618Z" transform="translate(-1418.864 -1108.74)" fill="#eea886"/>
          <path id="Path_49350" data-name="Path 49350" d="M1420.506,1245.282c-.146,1.547-.34,4.061-.763,6.717-.272,1.688-.648,3.507-1,5.211-.031-.774-.037-1.573-.016-2.394a55.988,55.988,0,0,1,.481-5.708c.334-2.519.727-4.84.863-7.422A9.447,9.447,0,0,1,1420.506,1245.282Z" transform="translate(-1418.711 -1219.283)" fill="#3c4145"/>
          <path id="Path_49351" data-name="Path 49351" d="M1457.062,1204.167c-.2-2.582,1.1-4.98.589-7.135l0,0c.109.239,3.012,6.6,3.63,6.831s8.492,9.043,9.151,8.428c.7-.657,2.312-2.529,2.312-2.529l-8.459-9.132L1458.4,1189.3c-.1-.075-1.328-.739-2.145-1.127-.85-.4-1.925-.9-2.879-1.344l-1.248-.574-.03.024a61.631,61.631,0,0,1,1.461,7.8c.307,2.154.739,5.821,1.153,9.522h0c.327,2.917,1.073,5.911,1.311,8.145a73,73,0,0,0,2.326,8.721l1.5-1.381a.906.906,0,0,0,.251-.935A77.777,77.777,0,0,1,1457.062,1204.167Z" transform="translate(-1447.74 -1171.097)" fill="#121d30"/>
          <path id="Path_49352" data-name="Path 49352" d="M1423.789,1245.282c-.146,1.547-.34,4.061-.763,6.717l-.538-2.891c.334-2.519.727-4.84.862-7.422A9.442,9.442,0,0,1,1423.789,1245.282Z" transform="translate(-1421.994 -1219.283)" fill="#51565c"/>
          <path id="Path_49353" data-name="Path 49353" d="M1451.886,1186.056a59.607,59.607,0,0,1,1.49,7.855c.307,2.154.739,5.821,1.153,9.522l.429-10.591-.877-.95.78-.974-1.669-4.26c-.456-.211-.885-.408-1.248-.574Z" transform="translate(-1447.551 -1170.923)" fill="#51565c"/>
          <path id="Path_49354" data-name="Path 49354" d="M1428.254,1195.185v.005l-.016.031v.016l-.711,1.986c-.042-.753-.1-1.542-.2-2.368-.01-.084-.021-.167-.036-.251.287.183.606.371.956.575l.005.005Z" transform="translate(-1426.166 -1178.354)" fill="#f5e2d9"/>
          <path id="Path_49355" data-name="Path 49355" d="M1435.688,1179.142a7.113,7.113,0,0,1-1.006,2.6l2.1,2.732.153-4.43Z" transform="translate(-1432.595 -1164.912)" fill="#f5e2d9"/>
          <path id="Path_49356" data-name="Path 49356" d="M1432.7,1199.055a7.12,7.12,0,0,0-.26,2.079,1.983,1.983,0,0,0,1.535-.081A7.14,7.14,0,0,0,1432.7,1199.055Z" transform="translate(-1430.617 -1182.223)" fill="#3dd0e2"/>
          <g id="Group_114917" data-name="Group 114917" transform="translate(3.988 35.533)">
            <path id="Path_49357" data-name="Path 49357" d="M1449.42,1346.89a30.732,30.732,0,0,0,0-4.726l-.194.012a31.456,31.456,0,0,1,0,4.676Z" transform="translate(-1449.227 -1342.164)" fill="#ad9f99"/>
          </g>
          <path id="Path_49358" data-name="Path 49358" d="M1438.265,1374.286s1.833.219,2.439.37l-.079,2.054-2.4-.256Z" transform="translate(-1435.675 -1334.556)" fill="#69737a"/>
          <path id="Path_49359" data-name="Path 49359" d="M1432.522,1211.712a41.33,41.33,0,0,1,2.032,10.858c.228,5.783-.384,7.277-.384,7.277l-2.258,2.032-.756-2.641a34.371,34.371,0,0,0,.946-13.856c-.2-1.347-.491-3.9-.491-3.9Z" transform="translate(-1429.531 -1193.029)" fill="#3dd0e2"/>
        </g>
      </g>
      <g id="Group_114966" data-name="Group 114966" transform="translate(171.374 4013.217)">
        <path id="Path_49392" data-name="Path 49392" d="M523.6,1685.246a3.577,3.577,0,0,0-1.267-1.214c-.732-.341-2.234.848-2.366,1.51l-1.74,2.54.33.226.929-1.356c-.632,1.523-1.536,3.345-.9,4.261.852,1.229,2.785,2.473,3.3,2.258s.408-3.791.408-3.791C521.74,1686.522,523.6,1685.246,523.6,1685.246Z" transform="translate(-508.626 -1606.89)" fill="#121d30"/>
        <g id="Group_114952" data-name="Group 114952" transform="translate(11.343 77.142)">
          <path id="Path_49393" data-name="Path 49393" d="M535.16,1685.646a19.72,19.72,0,0,0-.96,2.167c-.326.947-.387,3.568-.592,3.751s-1.825-.635-2.041-1.615a7.177,7.177,0,0,1,1.066-3.97,6.4,6.4,0,0,1,1.261-1.546A1.626,1.626,0,0,1,535.16,1685.646Z" transform="translate(-531.525 -1684.432)" fill="#de9673"/>
        </g>
        <path id="Path_49394" data-name="Path 49394" d="M546.78,1517.885s-.992,5.264-.992,6.523a11.585,11.585,0,0,1-1.144,4.844c-.8,1.526-4.316,11.95-4.621,13.164s-.566,2.361-.566,2.361-1.755-.8-1.755-1.946,1.526-10.6,1.793-12.473,2.479-11.443,2.479-11.443Z" transform="translate(-525.551 -1462.506)" fill="#de9673"/>
        <path id="Path_49395" data-name="Path 49395" d="M522.111,1513.845s.343,4.387.305,5.531-.572,3.738-.572,4.425,0,14.913.569,16.629-1.6.536-1.6.536-3.776-9.358-3.776-13.261.458-5.849.191-8.329a30.272,30.272,0,0,0-1.454-5.743Z" transform="translate(-506.491 -1458.809)" fill="#eea886"/>
        <path id="Path_49396" data-name="Path 49396" d="M502.58,1353.68a13.643,13.643,0,0,0-2.564,5.806c-.534,3.319.632,9.577,1.047,11.387.364,1.588,1.06,6.673,1.1,7.207,0,0,6.825.773,12.013-.867,0,0,.474-7.1.78-10.115s-1.184-13.189-1.184-13.189Z" transform="translate(-492.671 -1319.759)" fill="#3dd0e2"/>
        <path id="Path_49397" data-name="Path 49397" d="M549.88,1721.634c-2.445-2.135-1.791-4.327-1.791-4.327a3.623,3.623,0,0,0-1.771-.149c-.794.2-1.219,2.091-.9,2.7l.247,3.109.4-.032-.132-1.659c.472,1.6.92,3.613,2,3.93,1.455.425,3.769.173,4.034-.321S549.88,1721.634,549.88,1721.634Z" transform="translate(-532.167 -1635.686)" fill="#121d30"/>
        <path id="Path_49398" data-name="Path 49398" d="M572.239,1175.433s-.6,3.6-.082,4.81-2.776-1.414-2.776-1.414S570.749,1174.862,572.239,1175.433Z" transform="translate(-553.091 -1164.755)" fill="#121d30"/>
        <path id="Path_49399" data-name="Path 49399" d="M541.087,1098.534s-5.295-1.212-5.954,4.446,1.722,6.368.11,10.2,3.938-1.249,3.938-1.249Z" transform="translate(-523.159 -1097.858)" fill="#121d30"/>
        <path id="Path_49400" data-name="Path 49400" d="M547.75,1098.625a4.6,4.6,0,0,1,4.713,4.351,11.2,11.2,0,0,1-.393,1.722c-.257.755.363,3.021.181,3.127a4.933,4.933,0,0,1-.922.227s-.861,2.432-1.722,2.387a7.146,7.146,0,0,1-5.554-3.907C542.6,1103.433,542.261,1098.735,547.75,1098.625Z" transform="translate(-530.278 -1098.031)" fill="#eea886"/>
        <g id="Group_114954" data-name="Group 114954" transform="translate(2.662 42.779)">
          <g id="Group_114953" data-name="Group 114953">
            <path id="Path_49401" data-name="Path 49401" d="M465.094,1424.071s.127-2.177.7-2.515.243.335.243.335-.324,1.58-.4,2.22A3.27,3.27,0,0,1,465.094,1424.071Z" transform="translate(-465.094 -1421.461)" fill="#1d3b54"/>
          </g>
        </g>
        <g id="Group_114956" data-name="Group 114956" transform="translate(2.745 39.015)">
          <g id="Group_114955" data-name="Group 114955">
            <path id="Path_49402" data-name="Path 49402" d="M468.315,1394.134a16,16,0,0,0,.457,1.917c.3.941.568,1.241.449,1.78-.089.407-.55.712-.666.582s-.173-1.713-.828-1.706.2,1.96-.194,1.816-1.893-.966-1.8-1.764.7-1.374.657-2.565a2.563,2.563,0,0,1,.3-1.532Z" transform="translate(-465.73 -1392.662)" fill="#eea886"/>
          </g>
        </g>
        <g id="Group_114958" data-name="Group 114958" transform="translate(4.362 42.985)">
          <g id="Group_114957" data-name="Group 114957">
            <path id="Path_49403" data-name="Path 49403" d="M478.55,1423.052s.873.223.821,3.176l-.989-.165a10.179,10.179,0,0,0-.277-2.522S478.155,1422.964,478.55,1423.052Z" transform="translate(-478.105 -1423.043)" fill="#1d3b54"/>
          </g>
        </g>
        <g id="Group_114960" data-name="Group 114960" transform="translate(0.732 44.653)">
          <g id="Group_114959" data-name="Group 114959">
            <path id="Path_49404" data-name="Path 49404" d="M458.027,1437.991l-7.7-2.184.023,9.483,7.662,4.592Z" transform="translate(-450.327 -1435.807)" fill="#121d30"/>
          </g>
        </g>
        <g id="Group_114961" data-name="Group 114961" transform="translate(0 44.653)">
          <path id="Path_49405" data-name="Path 49405" d="M453.142,1449.881l-.965.178-7.453-4.635.092-9.574.64-.044Z" transform="translate(-444.725 -1435.807)" fill="#121d30"/>
        </g>
        <path id="Path_49406" data-name="Path 49406" d="M514.149,1195.3s2.052.843,2.419,1.1,1.1,3.225,1.283,3.482,1.954,2.458,1.709,4.242a4.6,4.6,0,0,1-1.5,2.694c-.513.55-.988,3.509-1.149,3.949s.35,6.213.35,6.213a12.659,12.659,0,0,1-11.409-1.651,45.3,45.3,0,0,0,1.076-4.562c0-.7-.7-5.607-2.566-8.5s.33-5.974,1.759-6.34,4.178-1.393,4.178-1.393Z" transform="translate(-495.945 -1181.403)" fill="#3dd0e2"/>
        <path id="Path_49407" data-name="Path 49407" d="M476.044,1201.8s-3.014-.186-4.526,1.573-1.429,3.848-1.814,4.755-1.265,4.81-1.457,5.442-.38,4.186-.655,7.044-.219,8.2-.219,8.2l2.884-.523s.116-5.088.189-8.039,2.474-8.163,3.381-10.445S478.345,1203.232,476.044,1201.8Z" transform="translate(-464.41 -1187.721)" fill="#3dd0e2"/>
        <path id="Path_49408" data-name="Path 49408" d="M591.883,1207.554a2.488,2.488,0,0,1,1.957,1.4c.632,1.319.874,2.417,1.039,2.746a44.268,44.268,0,0,1,2.589,5.637c.137.962-.082,2.721-1.292,3.188s-5.552.522-5.552.522,1.1-2.234.082-3.389c0,0,3.152-.569,3.9-.645C595.392,1216.939,590.885,1208.543,591.883,1207.554Z" transform="translate(-571.56 -1192.727)" fill="#3dd0e2"/>
        <g id="Group_114962" data-name="Group 114962" transform="translate(13.104 15.653)">
          <path id="Path_49409" data-name="Path 49409" d="M545.006,1216.78l5.872,13.715,7.321-3.449-5.415-13.171Z" transform="translate(-545.006 -1213.875)" fill="#121d30"/>
        </g>
        <g id="Group_114963" data-name="Group 114963" transform="translate(15.334 25.295)">
          <path id="Path_49410" data-name="Path 49410" d="M563.208,1287.665s-.8.211-1.047.248.06.5.368.517S563.208,1287.665,563.208,1287.665Z" transform="translate(-562.068 -1287.665)" fill="#eea886"/>
        </g>
        <g id="Group_114964" data-name="Group 114964" transform="translate(15.334 24.936)">
          <path id="Path_49411" data-name="Path 49411" d="M563.745,1289.178a1.675,1.675,0,0,0,.526-.1s.274-.18.477-.3a1.629,1.629,0,0,1,.16-.083,3.073,3.073,0,0,0,.884-.431c.345-.268,1.468-1.338,1.468-1.338l-.742-1.119-.574-.891a14.479,14.479,0,0,0-2.764.279,1,1,0,0,0-.1.066,3.906,3.906,0,0,0-.533.608c-.049.047-.5.543-.477.743a.658.658,0,0,0,.349.536,1.573,1.573,0,0,0,.379.778.978.978,0,0,0,.509.7S563.444,1289.121,563.745,1289.178Z" transform="translate(-562.073 -1284.916)" fill="#eea886"/>
        </g>
        <path id="Path_49412" data-name="Path 49412" d="M591.256,1247.99s3.575-.639,4.563-.743a12.344,12.344,0,0,0-.113-2.318,9.033,9.033,0,0,0-1.053-2.49l1.828,1.675a20.875,20.875,0,0,1,1.537,3.554,3.432,3.432,0,0,1-.677,2.767c-.889,1.054-5.088.571-5.088.571A3.7,3.7,0,0,0,591.256,1247.99Z" transform="translate(-572.108 -1223.054)" fill="#3dd0e2"/>
        <path id="Path_49413" data-name="Path 49413" d="M555.874,1165.591s-.116.341-.251.848c-.069.259-.143.562-.209.883a6.055,6.055,0,0,0-.09,2.639s-1.923.606-3.353-2.129c0,0,.728-2.883-.062-4.665S555.874,1165.591,555.874,1165.591Z" transform="translate(-537.826 -1153.758)" fill="#eea886"/>
        <path id="Path_49414" data-name="Path 49414" d="M550.55,1099.034a12.209,12.209,0,0,1-4.441,1.682c-2.2.242-3.417,3.562-3.417,3.562s-3.452-5.375-.672-8.678S551.144,1094.855,550.55,1099.034Z" transform="translate(-528.365 -1094.09)" fill="#121d30"/>
        <path id="Path_49415" data-name="Path 49415" d="M564.07,1138.969a.673.673,0,0,0-1.163-.513c-.71.559.166,2.6.74,2.417S564.07,1139.407,564.07,1138.969Z" transform="translate(-547.233 -1132.47)" fill="#eea886"/>
        <path id="Path_49416" data-name="Path 49416" d="M552.672,1193.864s.905,2.671-1.211,2.657-3.038-1.678-3.642-3.155a7.688,7.688,0,0,1,1.429-.542A21.47,21.47,0,0,1,552.672,1193.864Z" transform="translate(-534.347 -1179.92)" fill="#eea886"/>
        <path id="Path_49417" data-name="Path 49417" d="M481.2,1444.213l-.993.128v-.463Z" transform="translate(-475.571 -1398.17)" fill="#1d3b54"/>
        <path id="Path_49418" data-name="Path 49418" d="M465.724,1440.11l-.548.065s0-.165,0-.22S465.705,1440.076,465.724,1440.11Z" transform="translate(-462.503 -1394.751)" fill="#1d3b54"/>
        <g id="Group_114965" data-name="Group 114965" transform="translate(14.043 81.283)">
          <path id="Path_49419" data-name="Path 49419" d="M554.071,1716.456a19.987,19.987,0,0,0,.624,2.318c.346.954,1.968,3.057,1.923,3.331a2.6,2.6,0,0,1-2.636.028,7.272,7.272,0,0,1-1.69-3.806,8.981,8.981,0,0,1-.077-1.991A1.774,1.774,0,0,1,554.071,1716.456Z" transform="translate(-552.191 -1716.118)" fill="#eea886"/>
        </g>
        <path id="Path_49420" data-name="Path 49420" d="M563.471,1175.539c-.069.259-.171.571-.25.88a9.166,9.166,0,0,1-2.57-2.566A10.831,10.831,0,0,0,563.471,1175.539Z" transform="translate(-545.503 -1163.43)" fill="#a77860"/>
      </g>
      <g id="Group_115000" data-name="Group 115000" transform="translate(202.303 4012.231)">
        <g id="Group_114968" data-name="Group 114968" transform="translate(15.732 21.005)">
          <g id="Group_114967" data-name="Group 114967">
            <path id="Path_49421" data-name="Path 49421" d="M809.155,1268.485a9.917,9.917,0,0,1-2.921.885s-1.343-1.969-2.129-3.443c-1.874-3.516-2.428-5.161-2.268-6.512.287-2.426,5.059-12.134,5.059-12.134l5.3,2.044-4.055,7.208c-.379.738-.867,1.939-1.372,2.915-.661,1.28.135,4.208.606,5.431A18.134,18.134,0,0,0,809.155,1268.485Z" transform="translate(-801.811 -1247.282)" fill="#eea886"/>
          </g>
        </g>
        <g id="Group_114970" data-name="Group 114970" transform="translate(0 80.024)">
          <g id="Group_114969" data-name="Group 114969">
            <path id="Path_49422" data-name="Path 49422" d="M687.938,1701.112a3.509,3.509,0,0,0,.452,2.051c.608,1.173,3.331,4.163,3.144,5.391s-3.335,1.083-5.311-1.079-4.912-4.406-4.8-4.925a13.625,13.625,0,0,1,4.1-3.574C686.553,1698.617,687.938,1701.112,687.938,1701.112Z" transform="translate(-681.417 -1698.94)" fill="#121d30"/>
          </g>
        </g>
        <g id="Group_114972" data-name="Group 114972" transform="translate(3.992 78.77)">
          <g id="Group_114971" data-name="Group 114971">
            <path id="Path_49423" data-name="Path 49423" d="M715.585,1691.613l-1.113,1.2-2.5-2.134,1.151-1.334Z" transform="translate(-711.969 -1689.344)" fill="#eea886"/>
          </g>
        </g>
        <g id="Group_114973" data-name="Group 114973" transform="translate(4.171 61.356)">
          <path id="Path_49424" data-name="Path 49424" d="M713.339,1573.492c1.221-1.385,11.075-11.468,11.075-11.468,5.026-5.793,6.993-5.947,6.993-5.947a29.248,29.248,0,0,1,2.994.262c.248.034,1.054.026,1.313.068,3.2.519,3.289.154,2.12,2.776-1.924,4.311-21.217,16.749-21.217,16.749Z" transform="translate(-713.339 -1556.078)" fill="#121d30"/>
        </g>
        <g id="Group_114975" data-name="Group 114975" transform="translate(45.722 83.982)">
          <g id="Group_114974" data-name="Group 114974">
            <path id="Path_49425" data-name="Path 49425" d="M1034.782,1729.27a13.408,13.408,0,0,0,2.973.879c1.393.19,4.748-.363,5.7.552s-1.1,3.563-4.191,3.957-7.048,1.049-7.433.637-.707-4.117-.387-5.233S1034.782,1729.27,1034.782,1729.27Z" transform="translate(-1031.314 -1729.226)" fill="#121d30"/>
          </g>
        </g>
        <g id="Group_114977" data-name="Group 114977" transform="translate(45.349 82.388)">
          <g id="Group_114976" data-name="Group 114976">
            <path id="Path_49426" data-name="Path 49426" d="M1031.635,1717.024l.663,1.638-3.337.793-.5-1.754Z" transform="translate(-1028.457 -1717.024)" fill="#eea886"/>
          </g>
        </g>
        <g id="Group_114978" data-name="Group 114978" transform="translate(35.519 60.591)">
          <path id="Path_49427" data-name="Path 49427" d="M961.23,1551.316s-1.358-5.18,1.832,7.023c0,0,3.362,13.022,3.732,13.762a27.05,27.05,0,0,1-4.294.931c-.749-.3-7.447-16.982-9.111-20.063C951.922,1550.257,961.23,1551.316,961.23,1551.316Z" transform="translate(-953.231 -1550.224)" fill="#121d30"/>
        </g>
        <g id="Group_114980" data-name="Group 114980" transform="translate(26.978 45.287)">
          <g id="Group_114979" data-name="Group 114979">
            <path id="Path_49428" data-name="Path 49428" d="M904.411,1449.5l-6.7,3.852a36.366,36.366,0,0,0-4.379-4.557c-.179-.134-.359-.27-.541-.411-.258-.194-.515-.394-.773-.6-.187-.146-.376-.3-.561-.445a26.2,26.2,0,0,1-3.124-2.806c-1.9-2.19,2.255-16.036,7.5-9.86C895.836,1434.68,902.865,1441.279,904.411,1449.5Z" transform="translate(-887.87 -1433.106)" fill="#121d30"/>
          </g>
        </g>
        <g id="Group_114982" data-name="Group 114982" transform="translate(19.804 45.219)">
          <g id="Group_114981" data-name="Group 114981">
            <path id="Path_49429" data-name="Path 49429" d="M847.694,1432.583s-3.3,15.16-6.552,20.317c0,0-5.523-1.862-8.06-2.856,0,0-.246-10.956,0-13.819C833.309,1433.554,847.694,1432.583,847.694,1432.583Z" transform="translate(-832.972 -1432.583)" fill="#121d30"/>
          </g>
        </g>
        <g id="Group_114984" data-name="Group 114984" transform="translate(19.25 14.646)">
          <g id="Group_114983" data-name="Group 114983">
            <path id="Path_49430" data-name="Path 49430" d="M828.729,1234.513s1.391-13.623.239-19.962c-.766-4.214.342-11.052,2.869-14.741a9.026,9.026,0,0,1,.952-1.186s5.1,1.351,5.611,1.707a10.454,10.454,0,0,1,1.323,1.394h0c1.451,1.78,3.594,5,3.8,8.13.151,2.275.276,4.365.419,6.521.042.656.088,1.318.135,1.994.114,1.622.245,3.321.408,5.193.091,1.042.793,4.346,1.255,7.394Z" transform="translate(-828.729 -1198.624)" fill="#3dd0e2"/>
          </g>
        </g>
        <path id="Path_49431" data-name="Path 49431" d="M916.688,1493.029c-.258-.194-.515-.394-.773-.6-.187-.146-.376-.3-.561-.444a73.541,73.541,0,0,0,2.293-7.529A23.765,23.765,0,0,1,916.688,1493.029Z" transform="translate(-884.785 -1432.463)" fill="#0f1e2b"/>
        <path id="Path_49432" data-name="Path 49432" d="M922.947,1305.621s-2.968,4.511-3.495-6.63l3.36,4.636C922.854,1304.283,922.9,1304.945,922.947,1305.621Z" transform="translate(-888.347 -1271.229)" fill="#436da6"/>
        <g id="Group_114986" data-name="Group 114986" transform="translate(23.174 9.604)">
          <g id="Group_114985" data-name="Group 114985">
            <path id="Path_49433" data-name="Path 49433" d="M858.9,1165.08a11.512,11.512,0,0,0-.088-4.659c-.619-1.711,5.075,2.887,5.075,2.887s0,.238.01.594c.008.278.023.629.048,1a7.554,7.554,0,0,0,.318,1.9C864.641,1167.767,858.9,1165.08,858.9,1165.08Z" transform="translate(-858.763 -1160.039)" fill="#eea886"/>
          </g>
        </g>
        <g id="Group_114987" data-name="Group 114987" transform="translate(22.762 1.536)">
          <path id="Path_49434" data-name="Path 49434" d="M864.39,1101.082s1.2,2.261.6,2.607c-.5.286.566,2.5.705,2.866s-.905.618-1.128.849-.9,3.087-1.758,3.168a12.845,12.845,0,0,1-5.766-2.393c-1.046-1.1-1.878-6.057-1.161-8.139S862.272,1097.133,864.39,1101.082Z" transform="translate(-855.609 -1098.298)" fill="#eea886"/>
        </g>
        <g id="Group_114988" data-name="Group 114988" transform="translate(21.67 0)">
          <path id="Path_49435" data-name="Path 49435" d="M857.366,1091.352a3.461,3.461,0,0,0-.984-4.244c-2.241-1.82-6.416,1.32-6.885,1.438s-3.25,1.005-1.855,5.142c1.266,3.753,1.429,4.176,1.429,4.176s.769-2.494,1.259-2.845a4.649,4.649,0,0,1,2.432-.4s-.781-2.115.463-2.406S856.112,1090.877,857.366,1091.352Z" transform="translate(-847.254 -1086.542)" fill="#121d30"/>
        </g>
        <g id="Group_114989" data-name="Group 114989" transform="translate(23.987 5.821)">
          <path id="Path_49436" data-name="Path 49436" d="M866.857,1132.124c-.108-.29-.454-1.536-1.526-.813s.645,3.079.831,3.111S867.763,1134.566,866.857,1132.124Z" transform="translate(-864.982 -1131.088)" fill="#eea886"/>
        </g>
        <path id="Path_49437" data-name="Path 49437" d="M876.591,1181.334a7.678,7.678,0,0,1-3.278-2.39,16.827,16.827,0,0,0,3.23,1.393C876.551,1180.615,876.566,1180.966,876.591,1181.334Z" transform="translate(-848.237 -1166.869)" fill="#a77860"/>
        <g id="Group_114990" data-name="Group 114990" transform="translate(35.687 28.576)">
          <path id="Path_49438" data-name="Path 49438" d="M966.89,1307.14l-2.873,14.795-9.5-1.844,2.5-14.867Z" transform="translate(-954.521 -1305.224)" fill="#121d30"/>
          <path id="Path_49439" data-name="Path 49439" d="M970.643,1314.079l-2.552,13.139-8.433-1.638,2.223-13.2Z" transform="translate(-958.986 -1311.442)" fill="#fff"/>
          <path id="Path_49440" data-name="Path 49440" d="M999.7,1313.48l.179-.922-3.409-.662-.312.9Z" transform="translate(-990.713 -1311.024)" fill="#616161"/>
        </g>
        <g id="Group_114995" data-name="Group 114995" transform="translate(41.543 36.173)">
          <g id="Group_114994" data-name="Group 114994">
            <g id="Group_114993" data-name="Group 114993">
              <g id="Group_114992" data-name="Group 114992">
                <g id="Group_114991" data-name="Group 114991">
                  <path id="Path_49441" data-name="Path 49441" d="M1004.737,1368.065a2.065,2.065,0,0,1-.638.162s-.4-.054-.684-.075a1.98,1.98,0,0,0-.221-.007,3.777,3.777,0,0,1-1.205-.01,25.292,25.292,0,0,1-2.654-1.187l.253-1.316.061-1.266a25.408,25.408,0,0,1,3.607-1.006,1.248,1.248,0,0,1,.141.022,4.791,4.791,0,0,1,.911.39c.079.026.845.334.92.57a.806.806,0,0,1-.1.777,1.93,1.93,0,0,1-.008,1.061,1.2,1.2,0,0,1-.194,1.041S1005.039,1367.843,1004.737,1368.065Z" transform="translate(-999.334 -1363.36)" fill="#eea886"/>
                </g>
              </g>
            </g>
          </g>
        </g>
        <g id="Group_114997" data-name="Group 114997" transform="translate(24.196 23.036)">
          <g id="Group_114996" data-name="Group 114996">
            <path id="Path_49442" data-name="Path 49442" d="M884.956,1276.682a9.92,9.92,0,0,1-1.029,2.874s-2.381-.094-4.033-.341c-3.941-.589-5.592-1.125-6.581-2.057-1.778-1.676-6.733-11.292-6.733-11.292l4.8-3.037,3.374,7.551c.368.744,1.041,1.851,1.525,2.838.634,1.293,3.461,2.4,4.724,2.748A18.139,18.139,0,0,0,884.956,1276.682Z" transform="translate(-866.58 -1262.828)" fill="#eea886"/>
          </g>
        </g>
        <g id="Group_114999" data-name="Group 114999" transform="translate(23.141 20.227)">
          <g id="Group_114998" data-name="Group 114998">
            <path id="Path_49443" data-name="Path 49443" d="M866.753,1248.243l-5.453,2.835s-1.081-2.092-1.4-2.772c-.908-1.951-2.313-4.9-.547-6.144,3.812-2.688,5.451,1.772,6.387,4.218A13.057,13.057,0,0,0,866.753,1248.243Z" transform="translate(-858.509 -1241.329)" fill="#3dd0e2"/>
          </g>
        </g>
      </g>
      <g id="Group_114900" data-name="Group 114900" transform="translate(378.2 4010.151)">
        <g id="Group_114878" data-name="Group 114878" transform="translate(0 10.458)">
          <path id="Path_49284" data-name="Path 49284" d="M2044.119,1162.7l-8.3,4.56-8.33-13.109,10.075-3.5Z" transform="translate(-2027.493 -1150.651)" fill="#292c47"/>
        </g>
        <g id="Group_114879" data-name="Group 114879" transform="translate(0.552 10.845)">
          <path id="Path_49285" data-name="Path 49285" d="M2047.263,1164.882l-7.758,4.264-7.79-12.259,9.422-3.273Z" transform="translate(-2031.715 -1153.614)" fill="#fff"/>
        </g>
        <g id="Group_114880" data-name="Group 114880" transform="translate(9.105 17.096)">
          <path id="Path_49286" data-name="Path 49286" d="M2107,1204.176s-1.444-.691-2.077-1.051-2.264-.857-2.4-.974-4.833-.408-5.117-.654-.562.577.656.843,2.914.92,3.006,1.4-1.252.589-1.387.981.038.3.231.389,1.6-.695,2.217-.474,1.563-.085,2.037.077,2.779.938,2.779.938Z" transform="translate(-2097.168 -1201.451)" fill="#eea886"/>
        </g>
        <g id="Group_114881" data-name="Group 114881" transform="translate(1.574 17.109)">
          <path id="Path_49287" data-name="Path 49287" d="M2045.891,1209.866s-1.213-1.092-1.8-1.548-1.689-1.8-1.851-1.878-2.266-4.4-2.609-4.568.325-.754,1.05.29,2,2.388,2.486,2.29.068-1.409.384-1.69.3-.083.456.066-.032,1.777.417,2.274.529,1.507.866,1.89,1.965,2.253,1.965,2.253Z" transform="translate(-2039.54 -1201.554)" fill="#eea886"/>
        </g>
        <g id="Group_114882" data-name="Group 114882" transform="translate(34.048 83.536)">
          <path id="Path_49288" data-name="Path 49288" d="M2288.052,1710.131s.262,1.821.3,2.095,2.919-.161,2.919-.161l.234-2.168A17.1,17.1,0,0,0,2288.052,1710.131Z" transform="translate(-2288.052 -1709.896)" fill="#424773"/>
        </g>
        <g id="Group_114883" data-name="Group 114883" transform="translate(29.304 85.511)">
          <path id="Path_49289" data-name="Path 49289" d="M2256.758,1725.133a7.8,7.8,0,0,1-1.8,1.576c-.885.478-2.274.668-2.8,1.163-.377.357-1.375,1.9,2.3,1.865s5.444.217,5.838-.373-.57-4.354-.57-4.354A7.776,7.776,0,0,1,2256.758,1725.133Z" transform="translate(-2251.749 -1725.01)" fill="#121d30"/>
        </g>
        <g id="Group_114884" data-name="Group 114884" transform="translate(13.37 83.536)">
          <path id="Path_49290" data-name="Path 49290" d="M2129.808,1710.131s.262,1.821.3,2.095,2.919-.161,2.919-.161l.234-2.168A17.1,17.1,0,0,0,2129.808,1710.131Z" transform="translate(-2129.808 -1709.896)" fill="#424773"/>
        </g>
        <g id="Group_114885" data-name="Group 114885" transform="translate(6.929 85.511)">
          <path id="Path_49291" data-name="Path 49291" d="M2087.227,1725.133a7.8,7.8,0,0,1-1.8,1.576c-.884.478-4.139.871-4.662,1.366-.378.357-1.006,1.8,4.163,1.661,3.672-.1,5.444.217,5.837-.373s-.569-4.354-.569-4.354A7.064,7.064,0,0,1,2087.227,1725.133Z" transform="translate(-2080.522 -1725.01)" fill="#121d30"/>
        </g>
        <g id="Group_114886" data-name="Group 114886" transform="translate(25.037 36.975)">
          <path id="Path_49292" data-name="Path 49292" d="M2225.713,1353.581s2.712,4.308,2.51,8.2.983,8.146,1.391,12.215c.454,4.535,2.312,15.272,2.38,17.7s-.288,10.173-.288,10.173l-3.72.085s-3.125-18.771-3.934-20.686-4.822-15.57-4.957-17.1S2225.713,1353.581,2225.713,1353.581Z" transform="translate(-2219.092 -1353.581)" fill="#121d30"/>
        </g>
        <g id="Group_114887" data-name="Group 114887" transform="translate(12.867 36.233)">
          <path id="Path_49293" data-name="Path 49293" d="M2130.476,1349.227s-2.044,10.674-2.313,13.058-.449,11.535-.584,13.025-.9,19.495-1.618,21.708h4.756s3.651-13.089,3.651-19.282,2.821-13.463,4.641-17.549,5.989-4.183,7.107-11.764C2146.116,1348.423,2131.992,1346.822,2130.476,1349.227Z" transform="translate(-2125.96 -1347.901)" fill="#121d30"/>
        </g>
        <g id="Group_114888" data-name="Group 114888" transform="translate(20.651 0.419)">
          <path id="Path_49294" data-name="Path 49294" d="M2192.009,1074.166s-3.64-1.36-5.318,1.411-1.517,8.317.318,9,4.591.326,5.53-1.408a13.888,13.888,0,0,0,1.747-5.915A3.65,3.65,0,0,0,2192.009,1074.166Z" transform="translate(-2185.527 -1073.832)" fill="#eea886"/>
        </g>
        <g id="Group_114889" data-name="Group 114889" transform="translate(22.42 7.836)">
          <path id="Path_49295" data-name="Path 49295" d="M2199.177,1134.043a3.148,3.148,0,0,1-.1,1.467c-.25.484,4.716.5,4.716.5a32.71,32.71,0,0,1,1.167-4.858C2205.725,1128.924,2199.177,1134.043,2199.177,1134.043Z" transform="translate(-2199.069 -1130.588)" fill="#eea886"/>
        </g>
        <g id="Group_114890" data-name="Group 114890" transform="translate(20.807 0)">
          <path id="Path_49296" data-name="Path 49296" d="M2194.227,1079.019s-.343.565-1.741.346-3.106-2.081-3.69-2.285-.59-.547-.59-.547l-.366.534-.621.039s.566-1.665-.288-2.344.886-5.389,5.373-3.821c0,0,3.446.95,3.321,2.91S2195,1078.043,2194.227,1079.019Z" transform="translate(-2186.722 -1070.623)" fill="#121d30"/>
        </g>
        <g id="Group_114891" data-name="Group 114891" transform="translate(22.135 11.338)">
          <path id="Path_49297" data-name="Path 49297" d="M2196.883,1158.752s.016-.925.435-1.014a29.91,29.91,0,0,1,5.143-.291v1.077S2201.469,1159.135,2196.883,1158.752Z" transform="translate(-2196.883 -1157.391)" fill="#e2d2ca"/>
        </g>
        <g id="Group_114892" data-name="Group 114892" transform="translate(22.274 4.482)">
          <path id="Path_49298" data-name="Path 49298" d="M2198.055,1105.64c.078-.329.914-1.268,1.234-.262s-.484,2.359-.932,2.243S2197.857,1106.473,2198.055,1105.64Z" transform="translate(-2197.945 -1104.925)" fill="#eea886"/>
        </g>
        <g id="Group_114893" data-name="Group 114893" transform="translate(5.415 23.626)">
          <path id="Path_49299" data-name="Path 49299" d="M2068.952,1251.429h.007C2068.93,1251.441,2068.926,1251.442,2068.952,1251.429Z" transform="translate(-2068.935 -1251.428)" fill="#323657"/>
        </g>
        <g id="Group_114894" data-name="Group 114894" transform="translate(5.44 12.472)">
          <path id="Path_49300" data-name="Path 49300" d="M2098.4,1200.831a38.492,38.492,0,0,1-6.038,1.077c-3.806.42-13.317-.151-13.377-.6s2.046-16.745,1.926-17.584-.184-3.829-.184-3.829a21.064,21.064,0,0,1-1.889,5.99c-.364.659-1.585,2.725-2.174,2.255-2.849-2.275-7.261-10.847-7.541-10.92.235-.1,2.091-.957,2.351-1.044.228-.076,2.283,2.1,3.529,3.449.555.6.949,1.038.949,1.038.36-.809,1.67-5.907,2.077-7.671.918-3.979.777-4.144.777-4.144,2.785-.842,7.011-2.557,7.011-2.557l5.577-.227a54.273,54.273,0,0,1,7.135,2.037c.191.086.192,4.567.717,5.741l-1.671,3.526s-.966,6.984-1.166,10.091C2096.317,1188.885,2098.4,1200.831,2098.4,1200.831Z" transform="translate(-2069.123 -1166.064)" fill="#121d30"/>
        </g>
        <g id="Group_114895" data-name="Group 114895" transform="translate(29.586 14.509)">
          <path id="Path_49301" data-name="Path 49301" d="M2260.114,1193.212a2.2,2.2,0,0,1-1.237,1.041,1.6,1.6,0,0,1-.893.09l-.218-.04h0l-3.822-.709s-.836-9.631,5.221-11.939C2259.325,1181.707,2261.451,1188.9,2260.114,1193.212Z" transform="translate(-2253.905 -1181.654)" fill="#121d30"/>
        </g>
        <g id="Group_114896" data-name="Group 114896" transform="translate(33.447 22.235)">
          <path id="Path_49302" data-name="Path 49302" d="M2284.565,1245.652h0a1.6,1.6,0,0,1-.893.09l-.218-.04h0l.377-4.922Z" transform="translate(-2283.454 -1240.78)" fill="#252840"/>
        </g>
        <g id="Group_114897" data-name="Group 114897" transform="translate(11.319 26.032)">
          <path id="Path_49303" data-name="Path 49303" d="M2115.067,1270.878l-.467,1.978a15.651,15.651,0,0,1-.483-3.017C2114.673,1270.442,2115.067,1270.878,2115.067,1270.878Z" transform="translate(-2114.116 -1269.84)" fill="#252840"/>
        </g>
        <g id="Group_114898" data-name="Group 114898" transform="translate(28.17 1.072)">
          <path id="Path_49304" data-name="Path 49304" d="M2243.067,1078.833s4.771-.55.082,7.417Z" transform="translate(-2243.067 -1078.825)" fill="#121d30"/>
        </g>
        <g id="Group_114899" data-name="Group 114899" transform="translate(3.35 11.103)">
          <path id="Path_49305" data-name="Path 49305" d="M2053.615,1157.743l-.485-.833,3.819-1.318.485.829Z" transform="translate(-2053.13 -1155.592)" fill="#292c47"/>
        </g>
      </g>
      <g id="Group_114951" data-name="Group 114951" transform="translate(332.658 4011.67)">
        <g id="Group_114922" data-name="Group 114922" transform="translate(7.939 44.676)">
          <g id="Group_114921" data-name="Group 114921">
            <g id="Group_114920" data-name="Group 114920">
              <path id="Path_49360" data-name="Path 49360" d="M1742.148,1424.137a2.579,2.579,0,0,0-.535.735,4.241,4.241,0,0,1-.645.866,9.883,9.883,0,0,0-.906,1.483,7.522,7.522,0,0,1-.09,1.116c-.1.222-.363.647-.165.727s.539-.239.539-.239a.3.3,0,0,0,.072.33.524.524,0,0,0,.515.143s.059.263.208.332a.668.668,0,0,0,.537.053.614.614,0,0,0,.357.22.56.56,0,0,0,.513-.167s.366.172.531.017a1.886,1.886,0,0,0,.294-.506,6.485,6.485,0,0,0,.281-2.837,2.567,2.567,0,0,1,.73-2.082Z" transform="translate(-1739.735 -1424.137)" fill="#eea886"/>
            </g>
          </g>
        </g>
        <g id="Group_114923" data-name="Group 114923" transform="translate(6.122 48.692)">
          <path id="Path_49361" data-name="Path 49361" d="M1725.829,1459.057v-3.24a.947.947,0,0,1,.946-.946h5.137a.947.947,0,0,1,.946.946v3.24a.947.947,0,0,1-.946.946h-5.137A.947.947,0,0,1,1725.829,1459.057Zm.946-3.551a.311.311,0,0,0-.311.311v3.24a.311.311,0,0,0,.311.311h5.137a.312.312,0,0,0,.311-.311v-3.24a.312.312,0,0,0-.311-.311Z" transform="translate(-1725.829 -1454.871)" fill="#0e1e2b"/>
        </g>
        <g id="Group_114924" data-name="Group 114924" transform="translate(0 52.434)">
          <rect id="Rectangle_1878" data-name="Rectangle 1878" width="19.274" height="13.809" transform="translate(19.274 13.809) rotate(180)" fill="#121d30"/>
        </g>
        <g id="Group_114925" data-name="Group 114925" transform="translate(9.637 15.502)">
          <path id="Path_49362" data-name="Path 49362" d="M1760.944,1200.877s.958-.007,1.379,2.945-.377,4.186-.472,5.414-1.536,9.163-1.575,9.513-.233,4.573-.794,5.694-4.693,7.471-4.748,7.788-2.005-1.106-2.005-1.106,3.245-6.793,3.433-7.568,1.494-4.733,1.288-5.941.578-7.873.5-8.614S1759.052,1201.328,1760.944,1200.877Z" transform="translate(-1752.728 -1200.877)" fill="#eea886"/>
        </g>
        <g id="Group_114926" data-name="Group 114926" transform="translate(9.401 15.481)">
          <path id="Path_49363" data-name="Path 49363" d="M1759.344,1200.718s.988.014,1.408,2.966a12.073,12.073,0,0,1-.214,5.295c-.24,1.208-1.06,8.6-1.1,8.952s-1.019,4.807-1.529,6.375c-.388,1.192-4.071,7.433-4.126,7.751s-2.864-1.458-2.864-1.458,3.6-7.026,3.79-7.8a30.9,30.9,0,0,0,.818-4.684c.023-1.44.929-8.507.853-9.248S1756.589,1201.727,1759.344,1200.718Z" transform="translate(-1750.921 -1200.718)" fill="#3dd0e2"/>
        </g>
        <path id="Path_49364" data-name="Path 49364" d="M1851.169,1727.183a28.808,28.808,0,0,1-2.412,3.169s-1.595.558-1.694,1.642c-.065.709,0,1.848,1.819,1.9s2.991-.585,3.325-1.688a3.331,3.331,0,0,1,.963-1.6v2.309h.411s.1-2.233.128-2.643.295-1.989-.571-2.688A2.4,2.4,0,0,0,1851.169,1727.183Z" transform="translate(-1825.086 -1642.853)" fill="#121d30"/>
        <path id="Path_49365" data-name="Path 49365" d="M1751.71,1708.113a7.369,7.369,0,0,1-.86,1.437c-.412.538-1.694,2.746-2.258,2.9s-2.309.462-2.463,1.437-.231,1.668,1.488,1.745,2.848.18,3.67-1.026a8.938,8.938,0,0,1,2.13-2.078v3.147h.667a28.542,28.542,0,0,1,.488-3.506,3.958,3.958,0,0,0-.949-4.055C1752.03,1706.8,1751.71,1708.113,1751.71,1708.113Z" transform="translate(-1737.289 -1625.823)" fill="#121d30"/>
        <path id="Path_49366" data-name="Path 49366" d="M1842.865,1344.4a16.106,16.106,0,0,1,2.76,6.171c.589,3.349-.348,14.588-.322,16.243s1.565,5.773,1.257,8.891-2.88,18.379-2.88,18.379l-1.969-.4s.192-15.82,0-17.129-.579-6.079-.656-6.618-4.887-14.689-4.887-17.1S1837.63,1340.461,1842.865,1344.4Z" transform="translate(-1815.627 -1309.351)" fill="#eea886"/>
        <path id="Path_49367" data-name="Path 49367" d="M1770.521,1354.2s-3.567,13.613-3.99,15.5a39.765,39.765,0,0,0-1.037,4.242,28.035,28.035,0,0,0,.69,4.842l2.425,21.555h1.912s1.206-12.586,1.4-15.127-1.386-6.467-1-7.544,6.2-13.51,6.2-13.51S1781.516,1350.253,1770.521,1354.2Z" transform="translate(-1754.189 -1318.052)" fill="#eea886"/>
        <path id="Path_49368" data-name="Path 49368" d="M1857.86,1730.895a2.848,2.848,0,0,0,2.858-.247,5.557,5.557,0,0,0,1.819-2.649l-1.969-.4Z" transform="translate(-1834.485 -1643.265)" fill="#eea886"/>
        <path id="Path_49369" data-name="Path 49369" d="M1765.475,1714.019s1.54.385,2.13,0,2.6-3.776,3.261-3.98c0,0-.644-1.307-2.273-.357C1768.593,1709.682,1765.911,1713.454,1765.475,1714.019Z" transform="translate(-1754.172 -1627.392)" fill="#eea886"/>
        <path id="Path_49370" data-name="Path 49370" d="M1769.029,1383.168s6.554,3.857,18.837,3.857c0,0,.7-14.247-1.09-18.255s-13.641-1.516-13.641-1.516S1769.451,1380.221,1769.029,1383.168Z" transform="translate(-1757.262 -1329.346)" fill="#121d30"/>
        <g id="Group_114927" data-name="Group 114927" transform="translate(14.301 14.318)">
          <path id="Path_49371" data-name="Path 49371" d="M1794.84,1191.914a19.915,19.915,0,0,1-2.566,1.032c-.661.132-3.228,3.466-3.677,4.683s0,3.042.926,5.185.053,2.857.476,5a49.843,49.843,0,0,1,.714,7.871c-.079,1.191,10.7,1.415,13.161-.754,0,0-2.473-3.7-2.79-4.233s-.053-3.413.238-4.154,2.228-7.04,2.228-7.04,1.585-4.838.153-5.95c-1.243-.965-4.632-1.31-5.241-1.521A10.4,10.4,0,0,0,1794.84,1191.914Z" transform="translate(-1788.421 -1191.815)" fill="#fff"/>
        </g>
        <g id="Group_114928" data-name="Group 114928" transform="translate(18.955 13.74)">
          <path id="Path_49372" data-name="Path 49372" d="M1825.19,1192.316l-1.157-1.355,1.005-3.568A23.551,23.551,0,0,1,1825.19,1192.316Z" transform="translate(-1824.033 -1187.392)" fill="#d6c5be"/>
        </g>
        <g id="Group_114929" data-name="Group 114929" transform="translate(16.662 0.561)">
          <path id="Path_49373" data-name="Path 49373" d="M1812.95,1086.879c-1.132-.4-5.291-1.376-6.27,3.942s1.958,9.1,4.656,8.1,4.365-4.683,4.524-7.487A4.191,4.191,0,0,0,1812.95,1086.879Z" transform="translate(-1806.487 -1086.542)" fill="#eea886"/>
        </g>
        <g id="Group_114930" data-name="Group 114930" transform="translate(16.853 0.126)">
          <path id="Path_49374" data-name="Path 49374" d="M1807.952,1087.925s-.2-4.551,4.32-4.709,5.741,3.566,5.37,6.281a6.644,6.644,0,0,1-2.243,4.146s.163-2.2-.715-2.767-4.4-1.708-5.931-4.353A4.058,4.058,0,0,0,1807.952,1087.925Z" transform="translate(-1807.95 -1083.211)" fill="#121d30"/>
        </g>
        <g id="Group_114931" data-name="Group 114931" transform="translate(22.298 0)">
          <path id="Path_49375" data-name="Path 49375" d="M1849.815,1086.6a3.047,3.047,0,1,0,1.789-4.224A3.259,3.259,0,0,0,1849.815,1086.6Z" transform="translate(-1849.618 -1082.246)" fill="#121d30"/>
        </g>
        <g id="Group_114932" data-name="Group 114932" transform="translate(19.812 9.612)">
          <path id="Path_49376" data-name="Path 49376" d="M1830.59,1158.411a45.476,45.476,0,0,1,.3,4.632s1.979,1.983,4.23-2.315a5.9,5.9,0,0,1-.234-4.186C1835.6,1154.127,1830.59,1158.411,1830.59,1158.411Z" transform="translate(-1830.59 -1155.804)" fill="#eea886"/>
        </g>
        <g id="Group_114933" data-name="Group 114933" transform="translate(20.112 16.851)">
          <path id="Path_49377" data-name="Path 49377" d="M1832.891,1211.2v1.812l2.278-1.7Z" transform="translate(-1832.891 -1211.203)" fill="#eea886"/>
        </g>
        <g id="Group_114934" data-name="Group 114934" transform="translate(20.112 14.318)">
          <path id="Path_49378" data-name="Path 49378" d="M1832.891,1196.16l.946-1.171,3.186-3.175,1.031.992Z" transform="translate(-1832.891 -1191.814)" fill="#d6c5be"/>
        </g>
        <g id="Group_114935" data-name="Group 114935" transform="translate(21.875 14.621)">
          <path id="Path_49379" data-name="Path 49379" d="M1849.191,1194.139s-2.674,4.057-2.8,5.843a162.025,162.025,0,0,0,1.892,19.438c.9,4.294,7.386-.484,7.386-.484s-4.36-7.057-2.686-12.708,2.282-7.91,2.282-7.91-.576-3.147-2.616-3.589C1850.857,1194.34,1849.191,1194.139,1849.191,1194.139Z" transform="translate(-1846.38 -1194.139)" fill="#3dd0e2"/>
        </g>
        <g id="Group_114936" data-name="Group 114936" transform="translate(14.246 15.044)">
          <path id="Path_49380" data-name="Path 49380" d="M1788.052,1203s-.482,1.707,1.4,5.478c0,0-.03,4.827-.083,6.335s-.41,7.209-.41,7.209l1.858,1.088a.524.524,0,0,0,.785-.515c-.526-4.339-2.238-20.8,1.46-25.225l-1.484.438A12.007,12.007,0,0,0,1788.052,1203Z" transform="translate(-1787.996 -1197.37)" fill="#3dd0e2"/>
        </g>
        <g id="Group_114937" data-name="Group 114937" transform="translate(22.699 6.412)">
          <path id="Path_49381" data-name="Path 49381" d="M1853.116,1131.73a.7.7,0,0,1,1.032-.3c.318.238.5.952,0,1.878S1851.873,1134.883,1853.116,1131.73Z" transform="translate(-1852.682 -1131.312)" fill="#eea886"/>
        </g>
        <g id="Group_114938" data-name="Group 114938" transform="translate(17.497 13.74)">
          <path id="Path_49382" data-name="Path 49382" d="M1814.331,1190.96l-1.458.4,2.463-3.971Z" transform="translate(-1812.873 -1187.392)" fill="#fae6de"/>
        </g>
        <g id="Group_114939" data-name="Group 114939" transform="translate(21.058 14.318)">
          <path id="Path_49383" data-name="Path 49383" d="M1840.129,1194.99l1.332,1.746,2.735-4.559-.882-.362Z" transform="translate(-1840.129 -1191.814)" fill="#fae6de"/>
        </g>
        <g id="Group_114940" data-name="Group 114940" transform="translate(19.881 11.473)">
          <path id="Path_49384" data-name="Path 49384" d="M1831.122,1171.556l.073.694s1.574.3,3.633-2.207A4.494,4.494,0,0,1,1831.122,1171.556Z" transform="translate(-1831.122 -1170.043)" fill="#a77860"/>
        </g>
        <g id="Group_114943" data-name="Group 114943" transform="translate(7.523 34.101)">
          <g id="Group_114942" data-name="Group 114942">
            <g id="Group_114941" data-name="Group 114941">
              <path id="Path_49385" data-name="Path 49385" d="M1740.818,1343.488s-.925.6-1.457.263a3.528,3.528,0,0,0-1.485-.335c-.325-.017-1.3-.44-1.329-.03s1.58.776,1.9.919-1.094.835-1.253,1.165,1.118,2.608,2.034,2.022,1.508-1.818,1.689-1.889a6.651,6.651,0,0,0,.684-.4Z" transform="translate(-1736.546 -1343.207)" fill="#eea886"/>
            </g>
          </g>
        </g>
        <g id="Group_114944" data-name="Group 114944" transform="translate(10.198 15.753)">
          <path id="Path_49386" data-name="Path 49386" d="M1776.209,1202.82a2.8,2.8,0,0,0-2.418.945,12.579,12.579,0,0,0-1.958,3.783c-.291.635-3.969,6.508-4.18,6.641s-3.948,3.148-5.642,4.762a29.792,29.792,0,0,1-4.994,3.413l1.243,1.746s10.027-5.344,11.3-7.3,6.34-7.382,6.34-7.382S1778.947,1204.792,1776.209,1202.82Z" transform="translate(-1757.018 -1202.799)" fill="#eea886"/>
        </g>
        <g id="Group_114947" data-name="Group 114947" transform="translate(5.58 36.175)">
          <g id="Group_114946" data-name="Group 114946">
            <g id="Group_114945" data-name="Group 114945">
              <path id="Path_49387" data-name="Path 49387" d="M1724.453,1359.084a24.291,24.291,0,0,0-2.754,2.263c-.068.282.048.421.307.246s2.65-1.84,2.65-1.84-2.784,2.879-2.891,3.1c-.062.128.146.411.293.33s3.07-2.777,3.07-2.777-2.595,2.693-2.629,2.9a.257.257,0,0,0,.432.208c.206-.187,2.756-2.55,2.756-2.55a15.2,15.2,0,0,0-1.69,2.274c.046.119.215.372.654-.179s1.61-1.741,1.61-1.741Z" transform="translate(-1721.679 -1359.084)" fill="#eea886"/>
            </g>
          </g>
        </g>
        <path id="Path_49388" data-name="Path 49388" d="M1795.661,1275.136s-.089,6.026.279,8.932l.163-7.985Z" transform="translate(-1780.405 -1249.93)" fill="#258c99"/>
        <g id="Group_114948" data-name="Group 114948" transform="translate(10.912 15.383)">
          <path id="Path_49389" data-name="Path 49389" d="M1780.211,1199.967a4.2,4.2,0,0,0-1.778,1.336,12.57,12.57,0,0,0-1.958,3.783c-.291.635-3.969,6.508-4.18,6.64a46.958,46.958,0,0,0-4.967,3.849,36.283,36.283,0,0,1-4.845,3.542l1.617,2.4s8.843-4.9,10.245-6.762c1.5-1.992,6.839-7.841,6.839-7.841S1784.582,1201.565,1780.211,1199.967Z" transform="translate(-1762.483 -1199.967)" fill="#3dd0e2"/>
        </g>
        <g id="Group_114950" data-name="Group 114950" transform="translate(8.502 47.5)">
          <g id="Group_114949" data-name="Group 114949">
            <path id="Path_49390" data-name="Path 49390" d="M1744.071,1447.462s.345-1.341.776-1.541.334.29.334.29.088-.487.489-.459.256.6.256.6a.4.4,0,0,1,.548-.18c.381.171.152.616.152.616s.515-.367.639.133a2.168,2.168,0,0,1-.412,1.643.47.47,0,0,1-.555,0,.57.57,0,0,1-.884-.053s-.693.18-.76-.389C1744.655,1448.118,1743.866,1448.206,1744.071,1447.462Z" transform="translate(-1744.037 -1445.751)" fill="#db9c7c"/>
          </g>
        </g>
        <path id="Path_49391" data-name="Path 49391" d="M1851.718,1291.444l3.027-4.884s-2.581,3.047-2.85,3.375-.292.351-.292.351S1851.682,1291.278,1851.718,1291.444Z" transform="translate(-1829.045 -1259.862)" fill="#258c99"/>
      </g>
    </g>
  </g>
</svg>
