<svg xmlns="http://www.w3.org/2000/svg" width="217" height="217" viewBox="0 0 217 217">
  <g id="Group_165149" data-name="Group 165149" transform="translate(-1110 -5935)">
    <rect id="Rectangle_1875" data-name="Rectangle 1875" width="216" height="216" rx="20" transform="translate(1110.5 5935.5)" fill="#fff" stroke="#d6dce6" stroke-width="1"/>
    <g id="Group_165148" data-name="Group 165148" transform="translate(-1)">
      <text id="Gurgaon" transform="translate(1219 6108)" fill="#1a1b22" font-size="20" font-family="Gilroy-Semibold, Gilroy" font-weight="600"><tspan x="-41" y="0">Gurgaon</tspan></text>
      <g id="Group_165147" data-name="Group 165147" transform="translate(416 15)">
        <rect id="Rectangle_1900" data-name="Rectangle 1900" width="99.63" height="99.63" transform="translate(753 5958)" fill="none"/>
        <path id="Path_98646" data-name="Path 98646" d="M143.56,91.005h-100v-1.35h6.9v-76H74.842V48.1H89.976V.005h19.808V61.213h2.466V26.777h24.386V89.631h6.9Zm-23.75-1.35H135.3v-61.5H113.618V61.211H119.8v3.023h3.455v7.071H119.81v3.724h3.455V82.1H119.81Zm-3.238,0h1.856V62.669H97.93V89.656h9.307V78.983h9.4Zm-8.02,0h6.639v-9.3h-6.6Zm-33.681,0H96.548V49.472H74.87Zm-23.032,0H73.516V15.037H51.839ZM119.81,80.75h2.073V76.432H119.81Zm0-10.795h2.073V65.637H119.81Zm-14.591-8.743H108.4V1.354H91.358V48.1h6.571V61.212h1.355V58.243h1.355V61.2h3.224V58.243h1.355ZM92.212,87.038H90.857v-8.1h1.355Zm-5.839,0H85.018v-8.1h1.355Zm-5.839,0H79.179v-8.1h1.355Zm24.725-2.024h-4.891v-1.35h4.891ZM71.537,84.3H54.087v-1.35H71.55Zm61.442-2.2h-7.14V75.028h7.14Zm-5.718-1.35H131.6V76.431h-4.335Zm-21.948-.364h-4.945v-1.35h4.891ZM71.549,77.956H54.086v-1.35H71.549Zm44.344-2.186H100.367v-1.35H115.88Zm-23.67-1.754H90.869v-8.1h1.355Zm-5.839,0H85.029v-8.1h1.355Zm-5.839,0H79.19v-8.1h1.355Zm-9-2.348H54.085v-1.35H71.549Zm61.429-.378h-7.14V64.22h7.14Zm-5.718-1.35h4.335V65.623H127.26ZM115.933,71.2H100.367v-1.35H115.88Zm0-4.588H100.367v-1.35H115.88ZM71.589,65.42h-17.5v-1.35H71.548Zm20.674-4.386H90.908v-8.1h1.355Zm-5.839,0H85.069v-8.1h1.355Zm-5.839,0H79.23v-8.1h1.355Zm52.393-.539h-7.14V53.425h7.14Zm-5.718-1.35h4.335V54.829H127.26ZM123.3,60.5h-7.14V53.425h7.1Zm-5.718-1.35h4.335V54.829h-4.335Zm-46.064,0H54.087V57.8H71.55ZM105.2,54.922h-1.355V50.591H105.2Zm-4.607,0H99.242V50.591H100.6ZM71.549,52.845H54.086V51.5H71.549ZM132.978,49.7h-7.14V42.63h7.14Zm-5.718-1.35H131.6V44.034H127.26ZM123.3,49.7h-7.14V42.63h7.1Zm-5.718-1.35h4.335V44.034h-4.335Zm-12.329-1.08H103.9V42.941h1.355Zm-4.607,0H99.3V42.941h1.355Zm-4.607,0H94.689V42.941h1.355ZM71.577,46.6H54.088v-1.35H71.551Zm0-6.275H54.088v-1.35H71.551Zm33.681-.7H103.9V35.3h1.355Zm-4.607,0H99.3l0-4.318h1.355Zm-4.607,0H94.69l0-4.318h1.355Zm36.935-.715h-7.14V31.835h7.14Zm-5.718-1.35H131.6V33.239h-4.335Zm-3.956,1.35h-7.14V31.835h7.1Zm-5.718-1.35h4.335V33.239h-4.335Zm-46.064-3.5H54.089v-1.35H71.552Zm33.681-2.078h-1.355V27.652h1.355Zm-4.607,0H99.244V27.652H100.6Zm-4.607,0H94.638V27.652h1.355Zm-24.44-4.236H54.089V26.4H71.553Zm33.668-3.454h-1.355V20h1.355Zm-4.607,0H99.259V20h1.355Zm-4.607,0H94.653V20h1.355Zm-24.455-2.82H54.09v-1.35H71.553Zm33.681-4.831h-1.355V12.351h1.355Zm-4.607,0H99.273V12.351h1.355Zm-4.607,0H94.666V12.351h1.355Zm9.213-7.651h-1.355V4.7h1.355Zm-4.607,0H99.272V4.7h1.355Zm-4.607,0H94.665V4.7h1.355Z" transform="translate(709.44 5966.995)" fill="#54576e"/>
      </g>
    </g>
  </g>
</svg>
