<svg xmlns="http://www.w3.org/2000/svg" width="106" height="106" viewBox="0 0 106 106">
  <g id="Group_165480" data-name="Group 165480" transform="translate(-7891 -8249)">
    <rect id="Rectangle_14" data-name="Rectangle 14" width="106" height="106" rx="14" transform="translate(7891 8249)" fill="#e6edf7"/>
    <g id="Group_165479" data-name="Group 165479" transform="translate(69 37)">
      <g id="money_6_" data-name="money (6)" transform="translate(7850.004 8240)">
        <path id="Path_22996" data-name="Path 22996" d="M198.113,182a16.113,16.113,0,1,0,16.113,16.113A16.113,16.113,0,0,0,198.113,182Zm0,14.646a4.383,4.383,0,0,1,1.464,8.518v3.2h-2.929v-3.2a4.386,4.386,0,0,1-2.929-4.124h2.929a1.464,1.464,0,1,0,1.464-1.464,4.383,4.383,0,0,1-1.464-8.518v-3.2h2.929v3.2a4.386,4.386,0,0,1,2.929,4.124h-2.929a1.464,1.464,0,1,0-1.464,1.464Z" transform="translate(-164.229 -164.23)" fill="#3dd0e2"/>
        <path id="Path_22997" data-name="Path 22997" d="M16.305,17.77c9.033,0,16.113-3.86,16.113-8.788S25.339,0,16.305,0,0,4.057,0,8.982,7.272,17.77,16.305,17.77Z" transform="translate(0.001)" fill="#121d30"/>
        <path id="Path_22998" data-name="Path 22998" d="M0,337.559v2.387c0,4.928,7.272,8.788,16.305,8.788.512,0,1.008-.047,1.514-.072a18.916,18.916,0,0,1-2.455-5.821C8.832,342.659,3.16,340.652,0,337.559Z" transform="translate(0.001 -304.6)" fill="#121d30"/>
        <path id="Path_22999" data-name="Path 22999" d="M14.912,258.658c-.034-.464-.071-.92-.071-1.391a18.957,18.957,0,0,1,.541-4.428c-6.54-.177-12.22-2.185-15.382-5.281v2.387C0,254.612,6.568,258.278,14.912,258.658Z" transform="translate(0.001 -223.388)" fill="#121d30"/>
        <path id="Path_23000" data-name="Path 23000" d="M16.306,168.734h0A19.1,19.1,0,0,1,20.42,162.6a32.693,32.693,0,0,1-4.119.275C9.346,162.876,3.308,160.8,0,157.56v2.387C0,164.872,7.272,168.734,16.306,168.734Z" transform="translate(0 -142.175)" fill="#121d30"/>
      </g>
      <rect id="Rectangle_1957" data-name="Rectangle 1957" width="50" height="50" transform="translate(7850 8240)" fill="none"/>
    </g>
  </g>
</svg>
