<svg xmlns="http://www.w3.org/2000/svg" width="217" height="217" viewBox="0 0 217 217">
  <g id="Group_165126" data-name="Group 165126" transform="translate(-120 -5807)">
    <rect id="Rectangle_1875" data-name="Rectangle 1875" width="216" height="216" rx="20" transform="translate(120.5 5807.5)" fill="#fff" stroke="#d6dce6" stroke-width="1"/>
    <g id="Group_165125" data-name="Group 165125" transform="translate(0 -20)">
      <text id="Bangalore" transform="translate(228 6000)" fill="#1a1b22" font-size="20" font-family="Gilroy-Semibold, Gilroy" font-weight="600"><tspan x="-48" y="0">Bangalore</tspan></text>
      <g id="Group_165124" data-name="Group 165124" transform="translate(-1007 55)">
        <rect id="Rectangle_1900" data-name="Rectangle 1900" width="100" height="100" transform="translate(1185 5810.5)" fill="none"/>
        <g id="vidhana-soudha" transform="translate(1165.6 5793.2)">
          <path id="Path_98644" data-name="Path 98644" d="M105.986,65.773a3.236,3.236,0,1,0-3.236-3.236A3.246,3.246,0,0,0,105.986,65.773Zm0-4.854a1.618,1.618,0,1,1-1.618,1.618A1.529,1.529,0,0,1,105.986,60.918Zm-77.67,4.854a3.236,3.236,0,1,0-3.236-3.236A3.246,3.246,0,0,0,28.316,65.773Zm0-4.854A1.618,1.618,0,1,1,26.7,62.536,1.529,1.529,0,0,1,28.316,60.918Zm2.265,22.654H25.727a.764.764,0,0,0-.809.809v3.236a.764.764,0,0,0,.809.809h4.854a.764.764,0,0,0,.809-.809V84.381A.867.867,0,0,0,30.582,83.572Zm-.809,3.236H26.536V85.19h3.236Zm2.427-17.8H24.109a.809.809,0,0,0,0,1.618h.809v8.9a.764.764,0,0,0,.809.809h4.854a.764.764,0,0,0,.809-.809v-8.9H32.2a.809.809,0,1,0,0-1.618Zm-2.427,9.709H26.536V70.627h3.236Zm78.479,4.854H103.4a.764.764,0,0,0-.809.809v3.236a.764.764,0,0,0,.809.809h4.854a.764.764,0,0,0,.809-.809V84.381A.867.867,0,0,0,108.252,83.572Zm-.809,3.236h-3.236V85.19h3.236Zm2.427-17.8h-8.091a.809.809,0,1,0,0,1.618h.809v8.9a.764.764,0,0,0,.809.809h4.854a.764.764,0,0,0,.809-.809v-8.9h.809a.809.809,0,1,0,0-1.618Zm-2.427,9.709h-3.236V70.627h3.236Z" transform="translate(2.411 22.871)" fill="#54576e"/>
          <path id="Path_98645" data-name="Path 98645" d="M118.591,114.533h-2.265V65.18a.764.764,0,0,0-.809-.809h-.809V59.193l.162-.162A5.593,5.593,0,0,0,116,54.824a5.452,5.452,0,0,0-2.1-3.722l-7.12-5.663v-.485a1.86,1.86,0,0,0,.971-1.456,1.78,1.78,0,0,0-3.56,0,1.415,1.415,0,0,0,.971,1.456v.485L98.041,51.1a5.822,5.822,0,0,0-2.1,3.722A5.215,5.215,0,0,0,97.07,58.87v4.045h-.809a.764.764,0,0,0-.809.809v.809H85.42l-2.913-4.369V54.339l3.236-4.854a.722.722,0,0,0,0-.809.867.867,0,0,0-.647-.485H82.507V46.248l.162-.162a8.19,8.19,0,0,0,1.456-6.634,7.949,7.949,0,0,0-4.045-5.34l-5.5-2.913V27.963a.764.764,0,0,0-.809-.809H72.96V25.536a3.236,3.236,0,1,0-6.473,0v1.618h-.809a.764.764,0,0,0-.809.809v3.4l-5.663,2.751A8.928,8.928,0,0,0,55,39.938a7.6,7.6,0,0,0,1.456,5.825V48.19H54.19c-.324,0-.647.162-.647.485a.722.722,0,0,0,0,.809l2.913,4.369V60L53.7,64.209H43.51V63.4a.764.764,0,0,0-.809-.809h-.809v-3.56l.162-.162a5.593,5.593,0,0,0,1.133-4.207,5.452,5.452,0,0,0-2.1-3.722l-7.12-5.663v-.485a1.86,1.86,0,0,0,.971-1.456,1.78,1.78,0,0,0-3.56,0,1.415,1.415,0,0,0,.971,1.456v.485L25.225,51.1a5.822,5.822,0,0,0-2.1,3.722,5.215,5.215,0,0,0,1.133,4.045v5.663h-.809a.764.764,0,0,0-.809.809v49.353H20.209a.809.809,0,1,0,0,1.618h98.382a.764.764,0,0,0,.809-.809.906.906,0,0,0-.809-.971Zm-21.2-59.547a4.187,4.187,0,0,1,1.456-2.751l6.958-5.5,6.958,5.5a3.6,3.6,0,0,1,1.456,2.751,3.677,3.677,0,0,1-.809,2.913H98.041A5.541,5.541,0,0,1,97.394,54.986Zm1.133,4.531h14.563v4.854H101.763v-.809a.764.764,0,0,0-.809-.809H98.526ZM95.29,93.5H91.407V87.025H95.29Zm-3.884,1.618H95.29V99.97H91.407Zm3.884-9.709H91.407V80.553H95.29Zm.809-6.473H35.581V75.7h67.961v3.236H96.1Zm-15.21,8.091h3.884V93.5H80.889Zm3.884-1.618H80.889V80.553h3.884Zm-3.884,9.709h3.884V99.97H80.889ZM64.546,87.025h9.709V93.5H64.546Zm9.709-1.618H64.546V80.553h9.709Zm-9.709,9.709h9.709V99.97H64.546ZM54.028,87.025H57.75V93.5H54.028Zm3.884-1.618H54.19V80.553h3.722Zm-3.884,9.709H57.75V99.97H54.028Zm-6.634-9.709H43.672V80.553h3.722Zm-3.722,1.618h3.722V93.5H43.672Zm0,8.091h3.722V99.97H43.672ZM104.19,74.08H33.478l3.236-3.236h65.7l3.236,3.236H104.19ZM38.656,64.371h3.236v4.854H38.656Zm19.418-9.709h3.4l-.162,4.854H58.073Zm8.252,5.016h-3.4l.162-4.854H76.2l-.162,4.854h-3.56l-2.751-1.618a.735.735,0,0,0-.809,0Zm9.547,4.693V61.944c0-.324-.162-.485-.485-.647l-.162-.162h1.133l2.1,3.236Zm1.942-9.709h2.913v4.854H77.653l.162-4.854ZM62.766,53.044l-2.1-3.236H78.623l-2.1,3.236H62.766Zm.809,8.091-.162.162a.867.867,0,0,0-.485.647v2.427H60.5l2.1-3.236Zm.971,1.295L69.4,59.679l4.854,2.751v6.8H64.546Zm32.363,1.942h3.236v4.854H96.908ZM95.29,69.226H75.873V65.989H95.29ZM80.565,64.371l-2.1-3.236h2.751l2.265,3.236H80.565Zm.647-11.327H78.462l2.1-3.236h2.913l-2.265,3.236ZM67.782,25.536A1.74,1.74,0,0,1,69.4,23.918a1.622,1.622,0,0,1,1.618,1.618v1.618H67.782Zm-1.618,3.236h6.473v1.618H66.164ZM56.617,40.261a6.725,6.725,0,0,1,3.4-4.693l6.634-3.56h5.663l6.634,3.56a6.463,6.463,0,0,1,3.236,4.207,6.7,6.7,0,0,1-1.133,5.178H72.475v-1.78a3.8,3.8,0,0,0-1.942-3.4l-.971-.647a.722.722,0,0,0-.809,0l-.971.647a4.007,4.007,0,0,0-1.78,3.4v1.78H57.588a6.916,6.916,0,0,1-.971-4.693Zm14.4,4.693H67.782v-1.78a2.766,2.766,0,0,1,1.133-2.1l.485-.324.485.324a2.525,2.525,0,0,1,1.133,2.1ZM58.073,46.572H80.727V48.19H58.073Zm-.809,3.236h1.294l2.1,3.236H57.75l-2.1-3.236Zm.485,11.327h2.913l-2.1,3.236H55.646ZM43.672,65.989H62.928v3.236H43.672Zm-19.094-11a4.187,4.187,0,0,1,1.456-2.751l6.958-5.5,6.958,5.5a3.6,3.6,0,0,1,1.456,2.751A3.677,3.677,0,0,1,40.6,57.9H25.225a5.541,5.541,0,0,1-.647-2.913Zm1.133,4.531H40.274v3.236H37.847a.764.764,0,0,0-.809.809v.809H25.711Zm10.518,55.016H24.093V65.989H37.038v3.236H36.39c-.162,0-.485.162-.647.162l-4.854,4.854c-.162.162-.324.647-.162.809a1.376,1.376,0,0,0,.809.485H33.8v4.045a.764.764,0,0,0,.809.809h2.427v33.981h-.809Zm2.427,0V80.553h3.4v33.981h-3.4Zm5.016,0V101.588h3.722v12.945Zm5.34,0V80.553h3.4v33.981Zm5.016,0V101.588H57.75v12.945Zm5.5,0V80.553h3.4v33.981Zm5.016,0V101.588h9.709v12.945Zm11.327,0V80.553h3.4v33.981Zm5.016,0V101.588h3.884v12.945Zm5.5,0V80.553h3.4v33.981Zm5.016,0V101.588H95.29v12.945H91.407Zm7.12,0H96.908V80.553h3.4v33.981Zm3.4,0V80.553h2.265a.764.764,0,0,0,.809-.809V75.7h2.589a.89.89,0,0,0,.809-.485.712.712,0,0,0-.162-.809l-4.854-4.854c-.162-.162-.324-.162-.647-.162h-.971V66.151h12.945v48.544H101.924Z" transform="translate(0 0)" fill="#54576e"/>
        </g>
      </g>
    </g>
  </g>
</svg>
