<svg xmlns="http://www.w3.org/2000/svg" width="72" height="72" viewBox="0 0 72 72">
  <g id="Group_15339" data-name="Group 15339" transform="translate(-673 -2118)">
    <rect id="Rectangle_1861" data-name="Rectangle 1861" width="72" height="72" transform="translate(673 2118)" fill="none"/>
    <g id="developer_1_" data-name="developer (1)" transform="translate(673 2118)">
      <path id="Path_28655" data-name="Path 28655" d="M19,0A15,15,0,1,0,34,15,15,15,0,0,0,19,0Z" transform="translate(7.999)" fill="#3dd0e2"/>
      <path id="Path_28656" data-name="Path 28656" d="M17.746,39.93a2.251,2.251,0,0,1-1.69-2.7l4.5-19.5a2.251,2.251,0,0,1,4.386,1.011l-4.5,19.5a2.243,2.243,0,0,1-2.694,1.687Z" transform="translate(32 32.01)" fill="#07275c"/>
      <path id="Path_28657" data-name="Path 28657" d="M22.252,34.993a2.25,2.25,0,0,1-1.507-3.925l5.643-5.077-5.643-5.075a2.252,2.252,0,0,1,3.012-3.348l7.5,6.75a2.255,2.255,0,0,1,0,3.348l-7.5,6.75a2.246,2.246,0,0,1-1.505.576Z" transform="translate(39.999 34.007)" fill="#07275c"/>
      <path id="Path_28658" data-name="Path 28658" d="M20.75,35.017a2.246,2.246,0,0,1-1.505-.576l-7.5-6.75a2.255,2.255,0,0,1,0-3.348l7.5-6.75a2.252,2.252,0,1,1,3.012,3.343l-5.642,5.082,5.643,5.077a2.25,2.25,0,0,1-1.505,3.924Z" transform="translate(22 33.982)" fill="#07275c"/>
      <path id="Path_28659" data-name="Path 28659" d="M27.75,36a8.269,8.269,0,0,1,2.721-6.122l7.509-6.76a8.226,8.226,0,0,1,10.209-.636,8.2,8.2,0,0,1,4.917-4.116A14.241,14.241,0,0,0,41.25,12h-27A14.267,14.267,0,0,0,0,26.25V38.245a2.251,2.251,0,0,0,2.25,2.25H29.124A8.242,8.242,0,0,1,27.75,36Z" transform="translate(0 23.999)" fill="#3dd0e2"/>
    </g>
  </g>
</svg>
