<svg xmlns="http://www.w3.org/2000/svg" width="106" height="106" viewBox="0 0 106 106">
  <g id="Group_165488" data-name="Group 165488" transform="translate(-7625 -8517)">
    <rect id="Rectangle_1874" data-name="Rectangle 1874" width="106" height="106" rx="14" transform="translate(7625 8517)" fill="#e6edf7"/>
    <g id="Group_165486" data-name="Group 165486" transform="translate(-129 240)">
      <g id="traffic" transform="translate(7778 8301)">
        <path id="Path_63709" data-name="Path 63709" d="M54,11.571v2.688L4,14.295V11.571A3.57,3.57,0,0,1,7.571,8H50.429A3.57,3.57,0,0,1,54,11.571Z" fill="#121d30"/>
        <path id="Path_63710" data-name="Path 63710" d="M4,17.046V48.251a3.57,3.57,0,0,0,3.571,3.571H50.429A3.57,3.57,0,0,0,54,48.251V17.01ZM49.536,42a.9.9,0,0,1-.893.893H29a.893.893,0,1,1,0-1.786H48.643A.9.9,0,0,1,49.536,42ZM8.768,32.4l7.143-6.25a.9.9,0,0,1,1.223.036l2.937,2.946,4.991-4.991h-1.42a.893.893,0,0,1,0-1.786h3.571a.9.9,0,0,1,.893.893v3.571a.893.893,0,0,1-1.786,0V25.4l-5.616,5.625a.9.9,0,0,1-1.268,0l-2.982-2.982-6.509,5.7a.885.885,0,0,1-.589.223.9.9,0,0,1-.67-.3.89.89,0,0,1,.08-1.259Zm.589,4.241H48.643a.893.893,0,0,1,0,1.786H9.357a.893.893,0,0,1,0-1.786Zm0,4.464H25.429a.893.893,0,0,1,0,1.786H9.357a.893.893,0,1,1,0-1.786ZM29,47.358H9.357a.893.893,0,1,1,0-1.786H29a.893.893,0,0,1,0,1.786Zm19.643,0H32.571a.893.893,0,0,1,0-1.786H48.643a.893.893,0,0,1,0,1.786Zm0-13.616H39.714a.893.893,0,0,1,0-1.786h8.929a.893.893,0,0,1,0,1.786Z" transform="translate(0 -0.965)" fill="#3dd0e2"/>
        <path id="Path_98701" data-name="Path 98701" d="M49.536,42a.9.9,0,0,1-.893.893H29a.893.893,0,1,1,0-1.786H48.643A.9.9,0,0,1,49.536,42ZM8.768,32.4l7.143-6.25a.9.9,0,0,1,1.223.036l2.937,2.946,4.991-4.991h-1.42a.893.893,0,0,1,0-1.786h3.571a.9.9,0,0,1,.893.893v3.571a.893.893,0,0,1-1.786,0V25.4l-5.616,5.625a.9.9,0,0,1-1.268,0l-2.982-2.982-6.509,5.7a.885.885,0,0,1-.589.223.9.9,0,0,1-.67-.3.89.89,0,0,1,.08-1.259Zm.589,4.241H48.643a.893.893,0,0,1,0,1.786H9.357a.893.893,0,0,1,0-1.786Zm0,4.464H25.429a.893.893,0,0,1,0,1.786H9.357a.893.893,0,1,1,0-1.786ZM29,47.358H9.357a.893.893,0,1,1,0-1.786H29a.893.893,0,0,1,0,1.786Zm19.643,0H32.571a.893.893,0,0,1,0-1.786H48.643a.893.893,0,0,1,0,1.786Zm0-13.616H39.714a.893.893,0,0,1,0-1.786h8.929a.893.893,0,0,1,0,1.786Z" transform="translate(0 -0.966)" fill="#121d30"/>
      </g>
      <rect id="Rectangle_1957" data-name="Rectangle 1957" width="50" height="50" transform="translate(7782 8305)" fill="none"/>
    </g>
  </g>
</svg>
