<svg xmlns="http://www.w3.org/2000/svg" width="72" height="72" viewBox="0 0 72 72">
  <g id="Group_15364" data-name="Group 15364" transform="translate(-544 -2484)">
    <rect id="Rectangle_1861" data-name="Rectangle 1861" width="72" height="72" transform="translate(544 2484)" fill="none"/>
    <path id="nodejs-svgrepo-com" d="M35.081,74.017a5.858,5.858,0,0,1-2.784-.728L23.5,68.067c-1.316-.732-.656-1-.26-1.132a16.1,16.1,0,0,0,3.97-1.778.612.612,0,0,1,.667.061l6.743,4.038a.861.861,0,0,0,.8,0L61.81,53.98a.754.754,0,0,0,.4-.728v-30.5a.752.752,0,0,0-.4-.725L35.42,6.817a.841.841,0,0,0-.8,0L8.226,22.026a.831.831,0,0,0-.4.725V53.244a.833.833,0,0,0,.4.728l7.211,4.172c3.9,1.976,6.353-.343,6.353-2.65V25.4a.805.805,0,0,1,.793-.8h3.375a.81.81,0,0,1,.793.8V55.5c0,5.225-2.841,8.271-7.8,8.271-1.522,0-2.711,0-6.086-1.659L5.922,58.148a5.589,5.589,0,0,1-2.78-4.832v-30.5a5.576,5.576,0,0,1,2.78-4.828L32.3,2.714a5.9,5.9,0,0,1,5.567,0L64.251,17.991a5.564,5.564,0,0,1,2.78,4.828v30.5a5.6,5.6,0,0,1-2.78,4.832L37.868,73.422a6.844,6.844,0,0,1-2.787.595Zm8.134-20.971c-11.574,0-13.954-5.293-13.954-9.786a.808.808,0,0,1,.793-.8h3.44a.677.677,0,0,1,.725.663c.53,3.5,2.048,5.225,9.065,5.225,5.553,0,7.94-1.262,7.94-4.237,0-1.72-.667-2.975-9.328-3.833-7.208-.721-11.7-2.318-11.7-8.07,0-5.354,4.5-8.531,12.039-8.531,8.463,0,12.631,2.917,13.157,9.259a1.071,1.071,0,0,1-.2.595.823.823,0,0,1-.526.263H51.224a.764.764,0,0,1-.728-.591c-.8-3.649-2.845-4.832-8.264-4.832-6.09,0-6.818,2.117-6.818,3.7,0,1.915.855,2.51,9.065,3.57,8.134,1.056,11.971,2.578,11.971,8.271-.072,5.823-4.828,9.126-13.233,9.126Z" transform="translate(544.858 2481.983)" fill="#8cc84b"/>
  </g>
</svg>
