<svg xmlns="http://www.w3.org/2000/svg" width="217" height="217" viewBox="0 0 217 217">
  <g id="Group_165155" data-name="Group 165155" transform="translate(-1153.5 -6004.5)">
    <g id="Group_165132" data-name="Group 165132" transform="translate(25 195)">
      <rect id="Rectangle_1875" data-name="Rectangle 1875" width="216" height="216" rx="20" transform="translate(1129 5810)" fill="#fff" stroke="#d6dce6" stroke-width="1"/>
    </g>
    <g id="Group_165154" data-name="Group 165154">
      <text id="Kolkata" transform="translate(1262 6178)" fill="#1a1b22" font-size="20" font-family="Gilroy-Semibold, Gilroy" font-weight="600"><tspan x="-34" y="0">Kolkata</tspan></text>
      <g id="Group_165153" data-name="Group 165153">
        <rect id="Rectangle_1900" data-name="Rectangle 1900" width="99.938" height="99.938" transform="translate(1212 6043)" fill="none"/>
        <g id="victoria-memorial" transform="translate(1212 6054)">
          <path id="Path_98640" data-name="Path 98640" d="M28.169,64.5H23.481a.738.738,0,0,0-.781.781v6.25a.738.738,0,0,0,.781.781h4.688a.738.738,0,0,0,.781-.781v-6.25A.738.738,0,0,0,28.169,64.5Zm-.781,1.562v1.563H24.262V66.062ZM24.262,70.75V69.188h3.125V70.75Z" transform="translate(-16.606 -3.609)" fill="#54576e"/>
          <path id="Path_98641" data-name="Path 98641" d="M117.863,112.939h-2.344V98.886h.781a.781.781,0,1,0,0-1.561h-.781V84.833h.781a.781.781,0,1,0,0-1.561h-.781V78.588h.781a.781.781,0,1,0,0-1.561h-.781V71.561a.781.781,0,0,0-1.562,0v.781h-1.563V67.658h.781a.781.781,0,1,0,0-1.561h-.781a3.009,3.009,0,0,0-2.344-2.967v-2.5a.781.781,0,0,0-1.562,0v2.5a3.009,3.009,0,0,0-2.344,2.967h-.781a.781.781,0,1,0,0,1.561h.781v4.684h-1.563v-.781a.781.781,0,0,0-1.562,0v5.465h-.781a.781.781,0,1,0,0,1.561h.781v1.561h-12.5V78.588H91.3a.781.781,0,1,0,0-1.561h-.781V69.219H91.3a.781.781,0,1,0,0-1.561h-.781a4.013,4.013,0,0,0-3.125-3.123V62.193a.781.781,0,0,0-1.562,0v2.342H85.05a3.856,3.856,0,0,1-3.75-3.123h2.187a.738.738,0,0,0,.781-.781V57.509a.738.738,0,0,0-.781-.781H81.144V53.605h.781a.781.781,0,1,0,0-1.561h-.781a12.551,12.551,0,0,0-8.437-10.305V36.43h.781a.781.781,0,1,0,0-1.561h-.781a4.013,4.013,0,0,0-3.125-3.123V26.281a.781.781,0,0,0-1.563,0v5.465a4.013,4.013,0,0,0-3.125,3.123h-.781a.781.781,0,1,0,0,1.561h.781v5.309a12.551,12.551,0,0,0-8.438,10.305h-.937a.781.781,0,1,0,0,1.561H56.3v3.123H53.956a.738.738,0,0,0-.781.781v3.123a.738.738,0,0,0,.781.781h2.188a3.856,3.856,0,0,1-3.75,3.123h-.781V62.193a.781.781,0,0,0-1.563,0v2.342a4.013,4.013,0,0,0-3.125,3.123h-.781a.781.781,0,1,0,0,1.561h.781v7.807h-.781a.781.781,0,1,0,0,1.561h.781v1.561h-12.5V78.588h.781a.781.781,0,1,0,0-1.561h-.781V71.561a.781.781,0,0,0-1.562,0v.781H31.3V67.658h.781a.781.781,0,1,0,0-1.561H31.3a3.009,3.009,0,0,0-2.344-2.967v-2.5a.781.781,0,0,0-1.563,0v2.5A3.009,3.009,0,0,0,25.05,66.1h-.781a.781.781,0,1,0,0,1.561h.781v4.684H23.487v-.781a.781.781,0,0,0-1.562,0v5.465h-.781a.781.781,0,1,0,0,1.561h.781v4.684h-.781a.781.781,0,1,0,0,1.561h.781V97.325h-.781a.781.781,0,1,0,0,1.561h.781v14.053H19.581a.781.781,0,1,0,0,1.561h98.438a.738.738,0,0,0,.781-.781A.875.875,0,0,0,117.863,112.939Zm-3.906-15.614h-9.375V84.833h9.375Zm-4.688-32.79a1.476,1.476,0,0,1,1.563,1.561h-3.125A1.565,1.565,0,0,1,109.269,64.535Zm-1.562,3.123h3.125v4.684h-3.125Zm-3.125,6.4,2.344-.156H113.8v3.123h-9.375V74.06Zm9.375,4.528v4.684h-9.375V78.588Zm-10.938,3.123v1.561h-.781a.781.781,0,1,0,0,1.561h.781v1.561h-12.5V84.833H91.3a.781.781,0,1,0,0-1.561h-.781V81.711ZM62.394,108.254V94.2a6.25,6.25,0,0,1,12.5,0v18.737h-12.5Zm6.25-21.86a7.92,7.92,0,0,0-6.25,3.123V84.833h12.5v4.684A7.694,7.694,0,0,0,68.644,86.395Zm3.906-3.123H62.394V80.149h12.5v3.123ZM57.706,72.342h3.125v3.123H57.706Zm7.031,0H74.894v3.123h-12.5V72.342Zm-3.906-10.93h1.563v6.246H60.831Zm3.125,0h9.375v6.246H71.769V65.94a3.125,3.125,0,0,0-6.25,0v1.718H63.956Zm12.5,6.246H74.894V61.412h1.562Zm-6.25,0H67.081V65.94a1.563,1.563,0,0,1,3.125,0Zm-4.687,1.561h6.25v1.561h-6.25Zm14.063,6.246H76.456V72.342h3.125ZM56.925,77.026H82.706v1.561H54.581V77.026Zm-8.594,3.9V78.588h4.688v.781a.738.738,0,0,0,.781.781h2.344v3.123H48.331Zm7.813,3.9v3.591a2.84,2.84,0,0,0-3.125,0V84.833Zm0,20.3H53.019v-3.123a1.563,1.563,0,0,1,3.125,0Zm-1.562-6.246a2.641,2.641,0,0,0-1.563.468V95.763h3.125v3.591A2.641,2.641,0,0,0,54.581,98.886ZM56.144,94.2H53.019V91.079a1.563,1.563,0,0,1,3.125,0Zm-3.125,12.491h3.125v6.246H53.019Zm4.688-26.544h3.125v3.123H57.706Zm18.75,0h3.125v3.123H76.456Zm7.813,24.982H81.144v-3.123a1.562,1.562,0,0,1,3.125,0Zm-1.562-6.246a2.641,2.641,0,0,0-1.562.468V95.763h3.125v3.591A2.641,2.641,0,0,0,82.706,98.886ZM84.269,94.2H81.144V91.079a1.562,1.562,0,0,1,3.125,0Zm-3.125,12.491h3.125v6.246H81.144Zm3.125-18.268a2.84,2.84,0,0,0-3.125,0V84.833h3.125Zm-3.125-5.153V80.149h2.344a.738.738,0,0,0,.781-.781v-.781h4.688v4.684Zm7.812-6.246H87.394v-3.9a.781.781,0,0,0-1.563,0v3.9H84.269V69.219h4.688v7.807ZM88.8,67.658H84.425a2.313,2.313,0,0,1,4.375,0ZM83.644,65.94a3.721,3.721,0,0,0-.937,1.718h-.781a.781.781,0,1,0,0,1.561h.781v6.246H81.144v-3.9a.738.738,0,0,0-.781-.781H73.331V69.219H78.8a.781.781,0,1,0,0-1.561h-.781V61.412h1.719A5.57,5.57,0,0,0,83.644,65.94Zm-4.062-9.212H78.019V53.605h1.563Zm-18.75-3.123h3.125v3.123H60.831Zm4.688,0h6.25v3.123h-6.25Zm7.813,0h3.125v3.123H73.331Zm-4.688-20.3a2.206,2.206,0,0,1,2.188,1.561H66.456a2.206,2.206,0,0,1,2.188-1.561ZM66.3,36.43h4.688v4.84a5.319,5.319,0,0,0-1.562-.156V38.772a.781.781,0,0,0-1.563,0v2.342c-.469,0-1.094.156-1.562.156V36.43Zm2.344,6.246a10.93,10.93,0,0,1,10.781,9.368H57.863A10.93,10.93,0,0,1,68.644,42.675ZM57.706,53.605h1.563v3.123H57.706Zm-3.125,4.684H82.706v1.561H54.581Zm3.125,3.123h1.719v6.246h-.781a.781.781,0,1,0,0,1.561h5.469v1.561H57.081a.738.738,0,0,0-.781.781v3.9H54.738V69.219h.781a.781.781,0,1,0,0-1.561h-.781A3.721,3.721,0,0,0,53.8,65.94,5.822,5.822,0,0,0,57.706,61.412ZM50.675,66.1a2.206,2.206,0,0,1,2.188,1.561H48.488A2.35,2.35,0,0,1,50.675,66.1Zm2.344,3.123v7.807H51.456v-3.9a.781.781,0,0,0-1.563,0v3.9H48.331V69.219h4.688Zm-6.25,12.491v1.561h-.781a.781.781,0,1,0,0,1.561h.781v1.561h-12.5V84.833h.781a.781.781,0,1,0,0-1.561h-.781V81.711h12.5ZM28.019,64.535A1.476,1.476,0,0,1,29.581,66.1H26.456A1.476,1.476,0,0,1,28.019,64.535Zm-1.563,3.123h3.125v4.684H26.456Zm-3.125,6.4,2.188-.156H32.55v3.123H23.175V74.06Zm0,4.528h9.375v4.684H23.331Zm0,6.246h9.375V97.325H23.331Zm0,14.053h9.375v14.053H23.331Zm10.938,0h.781a.781.781,0,1,0,0-1.561h-.781V87.956h12.5v24.982h-12.5Zm14.063,14.053V84.833h3.125v28.105Zm9.375,0V84.833h3.125v28.105Zm18.75,0V84.833h3.125v28.105Zm9.375-7.026V84.833h3.125v28.105H85.831Zm4.688-17.956h12.5v9.368h-.781a.781.781,0,1,0,0,1.561h.781v14.053h-12.5Zm14.063,24.982V98.886h9.375v14.053Z" transform="translate(-18.8 -25.5)" fill="#54576e"/>
          <path id="Path_98642" data-name="Path 98642" d="M40.669,77.438H35.981a.738.738,0,0,0-.781.781v6.25a.738.738,0,0,0,.781.781h4.688a.738.738,0,0,0,.781-.781v-6.25A.738.738,0,0,0,40.669,77.438ZM39.888,79v1.562H36.763V79Zm0,4.688H36.763V82.125h3.125ZM40.669,66.5H35.981a.738.738,0,0,0-.781.781v6.25a.738.738,0,0,0,.781.781h4.688a.738.738,0,0,0,.781-.781v-6.25A.738.738,0,0,0,40.669,66.5Zm-.781,1.563v1.562H36.763V68.063Zm0,4.688H36.763V71.188h3.125ZM28.169,77.438H23.481a.738.738,0,0,0-.781.781v6.25a.738.738,0,0,0,.781.781h4.688a.738.738,0,0,0,.781-.781v-6.25A.738.738,0,0,0,28.169,77.438Zm-.781,6.25H24.262V79h3.125Z" transform="translate(-16.606 -2.5)" fill="#54576e"/>
          <circle id="Ellipse_4787" data-name="Ellipse 4787" cx="0.781" cy="0.781" r="0.781" transform="translate(49.063 28.886)" fill="#54576e"/>
          <circle id="Ellipse_4788" data-name="Ellipse 4788" cx="0.781" cy="0.781" r="0.781" transform="translate(8.438 54.648)" fill="#54576e"/>
          <path id="Path_98643" data-name="Path 98643" d="M79.981,72.313h4.688a.738.738,0,0,0,.781-.781v-6.25a.738.738,0,0,0-.781-.781H79.981a.738.738,0,0,0-.781.781v6.25A.738.738,0,0,0,79.981,72.313Zm.781-1.563V69.188h3.125V70.75Zm3.125-4.687v1.563H80.763V66.062Zm-11.719,12.5H67.481a.738.738,0,0,0-.781.781v6.25a.738.738,0,0,0,.781.781h4.688a.738.738,0,0,0,.781-.781v-6.25A.738.738,0,0,0,72.169,78.563Zm-3.906,1.563h3.125v1.562H68.262Zm0,4.688V83.25h3.125v1.563Zm3.906-17.188H67.481a.738.738,0,0,0-.781.781v6.25a.738.738,0,0,0,.781.781h4.688a.738.738,0,0,0,.781-.781v-6.25A.738.738,0,0,0,72.169,67.625Zm-3.906,1.562h3.125V70.75H68.262Zm0,4.688V72.313h3.125v1.562Zm16.406,4.688H79.981a.738.738,0,0,0-.781.781v6.25a.738.738,0,0,0,.781.781h4.688a.738.738,0,0,0,.781-.781v-6.25A.738.738,0,0,0,84.669,78.563Zm-.781,6.25H80.763V80.125h3.125Z" transform="translate(8.144 -3.625)" fill="#54576e"/>
          <circle id="Ellipse_4789" data-name="Ellipse 4789" cx="0.781" cy="0.781" r="0.781" transform="translate(89.688 54.648)" fill="#54576e"/>
        </g>
      </g>
    </g>
  </g>
</svg>
