<svg xmlns="http://www.w3.org/2000/svg" xmlns:xlink="http://www.w3.org/1999/xlink" width="72" height="72" viewBox="0 0 72 72">
  <defs>
    <clipPath id="clip-path">
      <path id="path3446" d="M14.4-366.119c0,10.04,15.473,18.18,34.56,18.18h0c19.087,0,34.56-8.14,34.56-18.18h0c0-10.04-15.474-18.18-34.56-18.18h0c-19.087,0-34.56,8.14-34.56,18.18" transform="translate(-14.4 384.299)"/>
    </clipPath>
    <radialGradient id="radial-gradient" cx="0.628" cy="0.8" r="1.248" gradientUnits="objectBoundingBox">
      <stop offset="0" stop-color="#aeb2d5"/>
      <stop offset="0.3" stop-color="#aeb2d5"/>
      <stop offset="0.75" stop-color="#484c89"/>
      <stop offset="1" stop-color="#484c89"/>
    </radialGradient>
    <clipPath id="clip-path-2">
      <path id="path3470" d="M0-405H72v40.5H0Z" transform="translate(0 405)"/>
    </clipPath>
  </defs>
  <g id="Group_15350" data-name="Group 15350" transform="translate(-631 -2292)">
    <rect id="Rectangle_1861" data-name="Rectangle 1861" width="72" height="72" transform="translate(631 2292)" fill="none"/>
    <g id="g3438" transform="translate(631 2713)">
      <g id="g3440" transform="translate(1.44 -402.93)">
        <g id="g3442" transform="translate(0 0)" clip-path="url(#clip-path)">
          <g id="g3448">
            <g id="g3450">
              <path id="path3462" d="M14.4-366.119c0,10.04,15.473,18.18,34.56,18.18h0c19.087,0,34.56-8.14,34.56-18.18h0c0-10.04-15.474-18.18-34.56-18.18h0c-19.087,0-34.56,8.14-34.56,18.18" transform="translate(-14.4 384.299)" fill="url(#radial-gradient)"/>
            </g>
          </g>
        </g>
      </g>
      <g id="g3464" transform="translate(0 -405)">
        <g id="g3466" clip-path="url(#clip-path-2)">
          <g id="g3472" transform="translate(2.79 3.42)">
            <path id="path3474" d="M-298.89-302.942c18.341,0,33.21-7.535,33.21-16.83s-14.869-16.83-33.21-16.83-33.21,7.535-33.21,16.83,14.869,16.83,33.21,16.83" transform="translate(332.1 336.603)" fill="#777bb3"/>
          </g>
        </g>
      </g>
      <g id="g3476" transform="translate(0 -405)">
        <g id="g3478" clip-path="url(#clip-path-2)">
          <g id="g3484" transform="translate(11.959 11.837)">
            <path id="path3486" d="M-74.32-94.5a5.512,5.512,0,0,0,3.346-.826,4.472,4.472,0,0,0,1.447-2.794,3.008,3.008,0,0,0-.269-2.544,3.778,3.778,0,0,0-2.737-.711h-2.41L-76.279-94.5ZM-82.2-86.031a.375.375,0,0,1-.289-.137.375.375,0,0,1-.079-.31L-79.03-104.7a.375.375,0,0,1,.368-.3h7.632c2.4,0,4.184.651,5.306,1.936s1.477,3.1,1.035,5.365a8.564,8.564,0,0,1-.918,2.551A8.542,8.542,0,0,1-67.3-93.032a7.409,7.409,0,0,1-2.78,1.665,12.59,12.59,0,0,1-3.818.491h-3.09l-.882,4.54a.375.375,0,0,1-.368.3Z" transform="translate(82.578 105)"/>
          </g>
          <g id="g3488" transform="translate(11.584 11.462)">
            <path id="path3490" d="M-74.87-39.375h2.1c1.678,0,2.26.368,2.458.588a2.754,2.754,0,0,1,.179,2.221A4.123,4.123,0,0,1-71.439-34a5.17,5.17,0,0,1-3.118.749h-1.5Zm3.6-4.375H-78.9a.75.75,0,0,0-.736.607l-3.541,18.219a.75.75,0,0,0,.157.62.75.75,0,0,0,.579.273h3.969a.75.75,0,0,0,.736-.607l.823-4.237h2.781a12.957,12.957,0,0,0,3.935-.51,7.784,7.784,0,0,0,2.919-1.748,8.92,8.92,0,0,0,1.76-2.207A8.938,8.938,0,0,0-64.557-36c.464-2.388.087-4.3-1.121-5.683s-3.077-2.064-5.588-2.064m-5.7,11.25h2.414a5.829,5.829,0,0,0,3.575-.9,4.8,4.8,0,0,0,1.586-3.02q.394-2.031-.359-2.866t-3.015-.835h-2.719L-76.971-32.5m5.7-10.5q3.444,0,5.024,1.808t.95,5.047a8.158,8.158,0,0,1-.877,2.44,8.136,8.136,0,0,1-1.615,2.023A7.01,7.01,0,0,1-70.427-30.1a12.166,12.166,0,0,1-3.7.473h-3.4l-.941,4.844h-3.969L-78.9-43h7.632" transform="translate(83.189 43.75)" fill="#fff"/>
          </g>
          <g id="g3492" transform="translate(28.854 6.993)">
            <path id="path3494" d="M-90.844-170.719a.374.374,0,0,1-.289-.137.374.374,0,0,1-.079-.31l1.566-8.061c.149-.767.112-1.317-.1-1.549-.132-.142-.529-.381-1.7-.381h-2.838l-1.969,10.134a.375.375,0,0,1-.368.3h-3.937a.375.375,0,0,1-.289-.137.375.375,0,0,1-.079-.31l3.541-18.219a.375.375,0,0,1,.368-.3h3.938a.375.375,0,0,1,.289.136.375.375,0,0,1,.079.31l-.854,4.4h3.053c2.326,0,3.9.41,4.821,1.253.936.86,1.228,2.236.868,4.09l-1.647,8.478a.375.375,0,0,1-.368.3Z" transform="translate(100.938 189.688)"/>
          </g>
          <g id="g3496" transform="translate(28.479 6.618)">
            <path id="path3498" d="M-74.057,0h-3.937a.75.75,0,0,0-.736.607l-3.541,18.219a.75.75,0,0,0,.158.62.75.75,0,0,0,.579.273H-77.6a.75.75,0,0,0,.736-.607l1.91-9.831h2.529c1.17,0,1.416.25,1.426.261.071.076.164.43.01,1.223l-1.566,8.061a.75.75,0,0,0,.157.62.75.75,0,0,0,.579.273h4a.75.75,0,0,0,.736-.607l1.647-8.478c.387-1.99.056-3.483-.983-4.438-.991-.91-2.651-1.353-5.075-1.353h-2.6l.768-3.951a.75.75,0,0,0-.158-.62A.75.75,0,0,0-74.057,0m0,.75L-75,5.594h3.508q3.311,0,4.567,1.155t.754,3.742l-1.648,8.478h-4l1.566-8.061a2.188,2.188,0,0,0-.2-1.876,2.767,2.767,0,0,0-1.976-.5H-75.57L-77.6,18.969h-3.937L-77.994.75h3.938" transform="translate(82.285)" fill="#fff"/>
          </g>
          <g id="g3500" transform="translate(42.936 11.837)">
            <path id="path3502" d="M-74.32-94.5a5.512,5.512,0,0,0,3.346-.826,4.472,4.472,0,0,0,1.447-2.794,3.008,3.008,0,0,0-.269-2.544,3.778,3.778,0,0,0-2.737-.711h-2.41L-76.279-94.5ZM-82.2-86.031a.375.375,0,0,1-.289-.137.375.375,0,0,1-.079-.31L-79.03-104.7a.375.375,0,0,1,.368-.3h7.632c2.4,0,4.184.651,5.306,1.936s1.476,3.1,1.035,5.365a8.57,8.57,0,0,1-.918,2.551A8.542,8.542,0,0,1-67.3-93.032a7.409,7.409,0,0,1-2.779,1.665,12.59,12.59,0,0,1-3.819.491h-3.09l-.882,4.54a.375.375,0,0,1-.368.3Z" transform="translate(82.578 105)"/>
          </g>
          <g id="g3504" transform="translate(42.561 11.462)">
            <path id="path3506" d="M-74.869-39.375h2.1c1.678,0,2.26.368,2.458.588a2.753,2.753,0,0,1,.179,2.221A4.123,4.123,0,0,1-71.438-34a5.17,5.17,0,0,1-3.118.749h-1.5Zm3.6-4.375H-78.9a.75.75,0,0,0-.736.607l-3.541,18.219a.75.75,0,0,0,.157.62.75.75,0,0,0,.579.273h3.969a.75.75,0,0,0,.736-.607l.823-4.237h2.781a12.957,12.957,0,0,0,3.935-.51,7.784,7.784,0,0,0,2.92-1.748,8.916,8.916,0,0,0,1.76-2.207A8.937,8.937,0,0,0-64.556-36c.464-2.388.087-4.3-1.121-5.683s-3.077-2.064-5.588-2.064m-5.7,11.25h2.414a5.829,5.829,0,0,0,3.575-.9,4.8,4.8,0,0,0,1.586-3.02q.394-2.031-.359-2.866t-3.015-.835h-2.719L-76.969-32.5m5.7-10.5q3.444,0,5.023,1.808t.95,5.047a8.157,8.157,0,0,1-.877,2.44,8.137,8.137,0,0,1-1.615,2.023A7.01,7.01,0,0,1-70.426-30.1a12.166,12.166,0,0,1-3.7.473h-3.4l-.941,4.844h-3.969L-78.9-43h7.632" transform="translate(83.188 43.75)" fill="#fff"/>
          </g>
        </g>
      </g>
    </g>
  </g>
</svg>
