<svg xmlns="http://www.w3.org/2000/svg" width="217" height="217" viewBox="0 0 217 217">
  <g id="Group_165160" data-name="Group 165160" transform="translate(-2932.5 -5683.5)">
    <g id="Group_165132" data-name="Group 165132" transform="translate(1804 -126)">
      <rect id="Rectangle_1875" data-name="Rectangle 1875" width="216" height="216" rx="20" transform="translate(1129 5810)" fill="#fff" stroke="#d6dce6" stroke-width="1"/>
    </g>
    <g id="Group_165159" data-name="Group 165159">
      <text id="Hyderabad" transform="translate(3041 5857)" fill="#1a1b22" font-size="20" font-family="Gilroy-Semibold, Gilroy" font-weight="600"><tspan x="-52" y="0">Hyderabad</tspan></text>
      <g id="Group_165158" data-name="Group 165158" transform="translate(28 -223)">
        <rect id="Rectangle_1900" data-name="Rectangle 1900" width="100" height="100" transform="translate(2963 5945)" fill="none"/>
        <g id="charminar" transform="translate(2948.5 5926.5)">
          <path id="Path_98627" data-name="Path 98627" d="M41.344,76.625A2.4,2.4,0,0,0,39,78.969v3.125a.738.738,0,0,0,.781.781h3.125a.738.738,0,0,0,.781-.781V78.969A2.4,2.4,0,0,0,41.344,76.625Zm.781,4.687H40.562V78.969a.781.781,0,0,1,1.563,0Zm-.781-12.5A2.4,2.4,0,0,0,39,71.156v3.125a.738.738,0,0,0,.781.781h3.125a.738.738,0,0,0,.781-.781V71.156A2.4,2.4,0,0,0,41.344,68.813Zm.781,4.688H40.562V71.156a.781.781,0,0,1,1.563,0ZM30.406,62.563a.738.738,0,0,0,.781-.781V58.656a2.344,2.344,0,0,0-4.688,0v3.125a.738.738,0,0,0,.781.781Zm-2.344-3.906a.781.781,0,0,1,1.563,0V61H28.063Zm-.781-3.906h3.125a.738.738,0,0,0,.781-.781V50.844a2.344,2.344,0,0,0-4.688,0v3.125A.738.738,0,0,0,27.281,54.75Zm.781-3.906a.781.781,0,0,1,1.563,0v2.344H28.063Zm5.469,11.719h3.125a.738.738,0,0,0,.781-.781V58.656a2.344,2.344,0,0,0-4.687,0v3.125A.738.738,0,0,0,33.531,62.563Zm.781-3.906a.781.781,0,0,1,1.563,0V61H34.313Zm-.781-3.906h3.125a.738.738,0,0,0,.781-.781V50.844a2.344,2.344,0,0,0-4.687,0v3.125A.738.738,0,0,0,33.531,54.75Zm.781-3.906a.781.781,0,0,1,1.563,0v2.344H34.313Zm57.031,5.469A2.4,2.4,0,0,0,89,58.656v3.125a.738.738,0,0,0,.781.781h3.125a.738.738,0,0,0,.781-.781V58.656A2.4,2.4,0,0,0,91.344,56.313ZM92.125,61H90.563V58.656a.781.781,0,0,1,1.563,0Zm-.781-12.5A2.4,2.4,0,0,0,89,50.844v3.125a.738.738,0,0,0,.781.781h3.125a.738.738,0,0,0,.781-.781V50.844A2.4,2.4,0,0,0,91.344,48.5Zm.781,4.687H90.563V50.844a.781.781,0,0,1,1.563,0Zm5.469,3.125a2.4,2.4,0,0,0-2.344,2.344v3.125a.738.738,0,0,0,.781.781h3.125a.738.738,0,0,0,.781-.781V58.656A2.4,2.4,0,0,0,97.594,56.313ZM98.375,61H96.813V58.656a.781.781,0,0,1,1.563,0ZM95.25,50.844v3.125a.738.738,0,0,0,.781.781h3.125a.738.738,0,0,0,.781-.781V50.844a2.344,2.344,0,0,0-4.687,0Zm3.125,0v2.344H96.813V50.844a.781.781,0,0,1,1.563,0Z" transform="translate(1.125 16.875)" fill="#54576e"/>
          <path id="Path_98628" data-name="Path 98628" d="M103.406,82.562a.738.738,0,0,0,.781-.781V63.031a.738.738,0,0,0-.781-.781H99.5V51.313h2.344a.738.738,0,0,0,.781-.781v-6.25a.738.738,0,0,0-.781-.781H99.5V38.031h.781a.738.738,0,0,0,.781-.781V32.562a.738.738,0,0,0-.781-.781H99.5V26.625a4.775,4.775,0,0,0-2.344-4.219l-.781-.469V19.281a.781.781,0,0,0-1.562,0v2.656l-.781.469a5.128,5.128,0,0,0-2.344,4.219v5.156h-.781a.738.738,0,0,0-.781.781V37.25a.738.738,0,0,0,.781.781h.781V43.5H89.344a.738.738,0,0,0-.781.781v6.25a.738.738,0,0,0,.781.781h2.344v1.563H37V51.313h2.344a.738.738,0,0,0,.781-.781v-6.25a.738.738,0,0,0-.781-.781H37V38.031h.781a.738.738,0,0,0,.781-.781V32.562a.738.738,0,0,0-.781-.781H37V26.625a4.775,4.775,0,0,0-2.344-4.219l-.781-.469V19.281a.781.781,0,0,0-1.562,0v2.656l-.781.469a5.128,5.128,0,0,0-2.344,4.219v5.156h-.781a.738.738,0,0,0-.781.781V37.25a.738.738,0,0,0,.781.781h.781V43.5H26.844a.738.738,0,0,0-.781.781v6.25a.738.738,0,0,0,.781.781h2.344V62.25H25.281a.738.738,0,0,0-.781.781v18.75a.738.738,0,0,0,.781.781h2.344v34.375H25.281a.781.781,0,1,0,0,1.563h78.125a.781.781,0,0,0,0-1.562h-2.344V82.562ZM102.625,81H88.563V63.812h14.062ZM81.531,81H79.188V73.969a4.709,4.709,0,0,1,2.344-3.906,4.243,4.243,0,0,1,2.344,3.906V81Zm.313-12.5h-.469a5.8,5.8,0,0,0-3.75,5.469V81H76.063V73.969A5.986,5.986,0,0,0,72.469,68.5H72a5.8,5.8,0,0,0-3.75,5.469V81H60.437V73.969A5.986,5.986,0,0,0,56.844,68.5h-.469a5.8,5.8,0,0,0-3.75,5.469V81H51.062V73.969A5.986,5.986,0,0,0,47.469,68.5H47a5.8,5.8,0,0,0-3.75,5.469V81H41.687V63.812H43.25v.781a.781.781,0,0,0,1.563,0v-.781h1.563v.781a.781.781,0,0,0,1.563,0v-.781H49.5v.781a.781.781,0,1,0,1.562,0v-.781h1.563v.781a.781.781,0,1,0,1.563,0v-.781H55.75v.781a.781.781,0,1,0,1.563,0v-.781h1.563v.781a.781.781,0,1,0,1.563,0v-.781H62v.781a.781.781,0,1,0,1.563,0v-.781h1.563v.781a.781.781,0,1,0,1.563,0v-.781H68.25v.781a.781.781,0,0,0,1.563,0v-.781h1.563v.781a.781.781,0,0,0,1.563,0v-.781H74.5v.781a.781.781,0,1,0,1.563,0v-.781h1.563v.781a.781.781,0,1,0,1.563,0v-.781H80.75v.781a.781.781,0,0,0,1.563,0v-.781h1.563v.781a.781.781,0,0,0,1.563,0v-.781H87V81H85.438V73.969A5.986,5.986,0,0,0,81.844,68.5ZM69.813,81V73.969a4.709,4.709,0,0,1,2.344-3.906A4.243,4.243,0,0,1,74.5,73.969V81ZM54.187,81V73.969a4.709,4.709,0,0,1,2.344-3.906,4.243,4.243,0,0,1,2.344,3.906V81Zm-7.031,0H44.813V73.969a4.709,4.709,0,0,1,2.344-3.906A4.243,4.243,0,0,1,49.5,73.969V81ZM37,57.562H91.688V62.25H88.563v-.781a2.344,2.344,0,1,0-4.688,0v.781H82.313v-.781a2.344,2.344,0,1,0-4.687,0v.781H76.063v-.781a2.344,2.344,0,1,0-4.687,0v.781H69.813v-.781a2.344,2.344,0,1,0-4.687,0v.781H63.563v-.781a2.344,2.344,0,0,0-4.688,0v.781H57.312v-.781a2.344,2.344,0,1,0-4.687,0v.781H51.062v-.781a2.344,2.344,0,1,0-4.687,0v.781H44.813v-.781a2.344,2.344,0,1,0-4.688,0v.781H37ZM87,62.25H85.438v-.781a.781.781,0,1,1,1.563,0Zm-6.25,0H79.188v-.781a.781.781,0,1,1,1.563,0Zm-6.25,0H72.938v-.781a.781.781,0,1,1,1.563,0Zm-6.25,0H66.688v-.781a.781.781,0,1,1,1.562,0Zm-6.25,0H60.437v-.781a.781.781,0,0,1,1.563,0Zm-6.25,0H54.187v-.781a.781.781,0,1,1,1.563,0Zm-6.25,0H47.938v-.781a.781.781,0,1,1,1.563,0Zm-6.25,0H41.687v-.781a.781.781,0,1,1,1.563,0ZM99.5,36.469H97.938v-.781a.781.781,0,0,0-1.562,0v.781H94.813v-.781a.781.781,0,0,0-1.562,0v.781H91.688V33.344H99.5ZM94.813,23.813l.781-.469.781.469a3.649,3.649,0,0,1,1.563,2.5H93.25A3.1,3.1,0,0,1,94.813,23.813ZM93.25,27.875h4.688v3.906H96.375V30.219a.781.781,0,0,0-1.562,0v1.562H93.25Zm0,10.156h4.688V43.5H93.25ZM90.125,49.75V45.062h10.937V49.75H99.5V47.406a.781.781,0,0,0-1.562,0V49.75H96.375V47.406a.781.781,0,0,0-1.562,0V49.75H93.25V47.406a.781.781,0,1,0-1.562,0V49.75Zm7.812,1.563V62.25H93.25V51.313Zm-6.25,3.125V56H37V54.437ZM37,36.469H35.438v-.781a.781.781,0,0,0-1.562,0v.781H32.313v-.781a.781.781,0,0,0-1.562,0v.781H29.187V33.344H37ZM32.313,23.813l.781-.469.781.469a3.649,3.649,0,0,1,1.563,2.5H30.75A3.1,3.1,0,0,1,32.313,23.813ZM30.75,27.875h4.688v3.906H33.875V30.219a.781.781,0,0,0-1.562,0v1.562H30.75Zm0,10.156h4.688V43.5H30.75ZM27.625,49.75V45.062H38.562V49.75H37V47.406a.781.781,0,0,0-1.562,0V49.75H33.875V47.406a.781.781,0,0,0-1.562,0V49.75H30.75V47.406a.781.781,0,0,0-1.563,0V49.75Zm3.125,1.563h4.688V62.25H30.75Zm-4.688,12.5H40.125V81H26.062Zm3.125,18.75H37v34.375H29.187Zm9.375,0h1.563v.781a.781.781,0,0,0,1.563,0v-.781H43.25v.781a.781.781,0,0,0,1.563,0v-.781h1.563v34.375H38.562Zm9.375,0H49.5v.781a.781.781,0,0,0,1.562,0v-.781h1.563v.781a.781.781,0,0,0,1.563,0v-.781H55.75v.781a.781.781,0,0,0,1.563,0v-.781h1.563v.781a.781.781,0,0,0,1.563,0v-.781H62v.781a.781.781,0,0,0,1.563,0v-.781h1.563v.781a.781.781,0,0,0,1.563,0v-.781H68.25v.781a.781.781,0,0,0,1.563,0v-.781h1.563v.781a.781.781,0,0,0,1.563,0v-.781H74.5v.781a.781.781,0,0,0,1.563,0v-.781h1.563v.781a.781.781,0,0,0,1.563,0v-.781H80.75v34.375H77.625V101.469A14.761,14.761,0,0,0,69.5,88.5l-4.844-2.656a.71.71,0,0,0-.781,0L59.031,88.5c-5,2.812-8.125,7.656-8.125,12.969v15.469H47.781V82.562Zm28.125,34.375H52.625V101.469a13.278,13.278,0,0,1,7.188-11.563l4.531-2.5,4.375,2.5a13.44,13.44,0,0,1,7.344,11.563Zm6.25-34.375h1.563v.781a.781.781,0,0,0,1.563,0v-.781H87v.781a.781.781,0,0,0,1.563,0v-.781h1.563v34.375H82.313ZM99.5,116.938H91.688V82.562H99.5Z" transform="translate(0)" fill="#54576e"/>
          <path id="Path_98629" data-name="Path 98629" d="M46.219,71.813a2.344,2.344,0,1,0-2.344-2.344A2.4,2.4,0,0,0,46.219,71.813Zm0-3.125a.781.781,0,1,1-.781.781A.738.738,0,0,1,46.219,68.688Zm25,3.125a2.344,2.344,0,1,0-2.344-2.344A2.4,2.4,0,0,0,71.219,71.813Zm0-3.125a.781.781,0,1,1-.781.781A.738.738,0,0,1,71.219,68.688ZM58.719,51.5a2.344,2.344,0,1,0,2.344,2.344A2.4,2.4,0,0,0,58.719,51.5Zm0,3.125a.781.781,0,1,1,.781-.781A.738.738,0,0,1,58.719,54.625ZM36.844,82.75A2.4,2.4,0,0,0,34.5,85.094v3.125a.738.738,0,0,0,.781.781h3.125a.738.738,0,0,0,.781-.781V85.094A2.4,2.4,0,0,0,36.844,82.75Zm.781,4.687H36.062V85.094a.781.781,0,0,1,1.563,0Zm-.781,3.125A2.4,2.4,0,0,0,34.5,92.906v3.125a.738.738,0,0,0,.781.781h3.125a.738.738,0,0,0,.781-.781V92.906A2.4,2.4,0,0,0,36.844,90.562Zm.781,4.688H36.062V92.906a.781.781,0,1,1,1.563,0ZM80.594,67.125a2.4,2.4,0,0,0-2.344,2.344v3.125a.738.738,0,0,0,.781.781h3.125a.738.738,0,0,0,.781-.781V69.469A2.4,2.4,0,0,0,80.594,67.125Zm.781,4.688H79.812V69.469a.781.781,0,1,1,1.563,0Zm-.781,3.125a2.4,2.4,0,0,0-2.344,2.344v3.125a.738.738,0,0,0,.781.781h3.125a.738.738,0,0,0,.781-.781V77.281A2.4,2.4,0,0,0,80.594,74.938Zm.781,4.688H79.812V77.281a.781.781,0,0,1,1.563,0Zm-.781,10.937a2.4,2.4,0,0,0-2.344,2.344v3.125a.738.738,0,0,0,.781.781h3.125a.738.738,0,0,0,.781-.781V92.906A2.4,2.4,0,0,0,80.594,90.562Zm.781,4.688H79.812V92.906a.781.781,0,1,1,1.563,0Zm-.781-12.5a2.4,2.4,0,0,0-2.344,2.344v3.125a.738.738,0,0,0,.781.781h3.125a.738.738,0,0,0,.781-.781V85.094A2.4,2.4,0,0,0,80.594,82.75Zm.781,4.687H79.812V85.094a.781.781,0,0,1,1.563,0Z" transform="translate(5.625 18.562)" fill="#54576e"/>
        </g>
      </g>
    </g>
  </g>
</svg>
