<svg xmlns="http://www.w3.org/2000/svg" width="73" height="73" viewBox="0 0 73 73">
  <g id="Group_165171" data-name="Group 165171" transform="translate(-1149 -6272)">
    <g id="team" transform="translate(1148 6272)">
      <g id="Group_15170" data-name="Group 15170" transform="translate(1 0)">
        <g id="Group_15167" data-name="Group 15167" transform="translate(21.469 0)">
          <path id="Path_40128" data-name="Path 40128" d="M158.766,28.8a3.289,3.289,0,0,1-1.932-.63,3.253,3.253,0,0,1-1.31-3.207l1.093-6.346-4.629-4.494a3.276,3.276,0,0,1,1.824-5.593l6.4-.926,2.861-5.774a3.3,3.3,0,0,1,5.9,0L171.835,7.6l6.4.926a3.276,3.276,0,0,1,1.824,5.593l-4.629,4.494,1.093,6.346a3.289,3.289,0,0,1-4.776,3.457l-5.722-3-5.722,3A3.3,3.3,0,0,1,158.766,28.8Z" transform="translate(-150.991 0)" fill="#3dd0e2"/>
        </g>
        <g id="Group_15168" data-name="Group 15168" transform="translate(0 11.406)">
          <path id="Path_40129" data-name="Path 40129" d="M18.812,103.35A3.048,3.048,0,0,1,17.4,103l-4.228-2.214L8.94,103a3.035,3.035,0,0,1-4.407-3.189l.808-4.69L1.919,91.8A3.023,3.023,0,0,1,3.6,86.638l4.727-.684,2.114-4.267a3.043,3.043,0,0,1,5.448,0l2.114,4.267,4.727.684A3.023,3.023,0,0,1,24.416,91.8L21,95.12l.808,4.69a3,3,0,0,1-1.208,2.959,3.035,3.035,0,0,1-1.782.581Z" transform="translate(-1 -80)" fill="#3dd0e2"/>
        </g>
        <g id="Group_15169" data-name="Group 15169" transform="translate(48.664 11.406)">
          <path id="Path_40130" data-name="Path 40130" d="M358.8,103.35a3.049,3.049,0,0,1-1.416-.351l-4.228-2.214L348.923,103a3.035,3.035,0,0,1-4.407-3.189l.808-4.69L341.9,91.8a3.023,3.023,0,0,1,1.683-5.161l4.727-.684,2.114-4.267a3.043,3.043,0,0,1,5.447,0l2.114,4.267,4.727.684A3.023,3.023,0,0,1,364.4,91.8l-3.421,3.321.808,4.69a3,3,0,0,1-1.208,2.959,3.036,3.036,0,0,1-1.783.581Z" transform="translate(-340.983 -80)" fill="#3dd0e2"/>
        </g>
      </g>
      <g id="Group_15179" data-name="Group 15179" transform="translate(1 43.059)">
        <g id="Group_15178" data-name="Group 15178" transform="translate(0)">
          <g id="Group_15177" data-name="Group 15177">
            <g id="Group_15172" data-name="Group 15172">
              <g id="Group_15171" data-name="Group 15171" transform="translate(0 15.562)">
                <path id="Path_40131" data-name="Path 40131" d="M19.438,411.147a11.463,11.463,0,0,1-15.4,0A7.11,7.11,0,0,0,1,416.972v6.416a2.143,2.143,0,0,0,2.147,2.139H20.324a2.143,2.143,0,0,0,2.147-2.139v-6.416A7.11,7.11,0,0,0,19.438,411.147Z" transform="translate(-1 -411.147)" fill="#121d30"/>
              </g>
              <path id="Path_40132" data-name="Path 40132" d="M33.157,316.258a7.129,7.129,0,1,1,7.157-7.129A7.151,7.151,0,0,1,33.157,316.258Z" transform="translate(-22.422 -302)" fill="#121d30"/>
            </g>
            <g id="Group_15174" data-name="Group 15174" transform="translate(51.529)">
              <g id="Group_15173" data-name="Group 15173" transform="translate(0 15.562)">
                <path id="Path_40133" data-name="Path 40133" d="M379.438,411.147a11.463,11.463,0,0,1-15.4,0A7.11,7.11,0,0,0,361,416.972v6.416a2.143,2.143,0,0,0,2.147,2.139h17.177a2.143,2.143,0,0,0,2.147-2.139v-6.416A7.11,7.11,0,0,0,379.438,411.147Z" transform="translate(-361 -411.147)" fill="#121d30"/>
              </g>
              <path id="Path_40134" data-name="Path 40134" d="M393.157,316.258a7.129,7.129,0,1,1,7.157-7.129A7.151,7.151,0,0,1,393.157,316.258Z" transform="translate(-382.422 -302)" fill="#121d30"/>
            </g>
            <g id="Group_15176" data-name="Group 15176" transform="translate(25.765)">
              <g id="Group_15175" data-name="Group 15175" transform="translate(0 15.562)">
                <path id="Path_40135" data-name="Path 40135" d="M199.438,411.147a11.463,11.463,0,0,1-15.4,0A7.11,7.11,0,0,0,181,416.972v6.416a2.143,2.143,0,0,0,2.147,2.139h17.176a2.143,2.143,0,0,0,2.147-2.139v-6.416A7.11,7.11,0,0,0,199.438,411.147Z" transform="translate(-181 -411.147)" fill="#121d30"/>
              </g>
              <path id="Path_40136" data-name="Path 40136" d="M213.157,316.258a7.129,7.129,0,1,1,7.157-7.129A7.151,7.151,0,0,1,213.157,316.258Z" transform="translate(-202.422 -302)" fill="#121d30"/>
            </g>
          </g>
        </g>
      </g>
    </g>
    <rect id="Rectangle_1901" data-name="Rectangle 1901" width="73" height="73" transform="translate(1149 6272)" fill="none"/>
  </g>
</svg>
