<svg xmlns="http://www.w3.org/2000/svg" width="72" height="72" viewBox="0 0 72 72">
  <g id="Group_15358" data-name="Group 15358" transform="translate(-918 -2325)">
    <rect id="Rectangle_1861" data-name="Rectangle 1861" width="72" height="72" transform="translate(918 2325)" fill="none"/>
    <path id="xamarin-logo-vector" d="M20.774,0a5.712,5.712,0,0,0-4.823,2.794L.723,29.238a5.752,5.752,0,0,0,0,5.589L15.952,61.269a5.712,5.712,0,0,0,4.826,2.794H51.223a5.712,5.712,0,0,0,4.826-2.794L71.275,34.822a5.753,5.753,0,0,0,0-5.589L56.05,2.794A5.711,5.711,0,0,0,51.223,0Zm.276,15.472a.646.646,0,0,1,.128,0h5.252a.7.7,0,0,1,.574.341l8.91,15.876a.678.678,0,0,1,.084.256.688.688,0,0,1,.085-.256l8.887-15.876a.7.7,0,0,1,.595-.341h5.252a.718.718,0,0,1,.595,1l-8.7,15.557,8.7,15.536a.718.718,0,0,1-.595,1.022H45.566a.7.7,0,0,1-.595-.362L36.083,32.35A.681.681,0,0,1,36,32.094a.683.683,0,0,1-.085.256L27,48.226a.7.7,0,0,1-.574.362H21.177a.718.718,0,0,1-.595-1.022l8.7-15.536-8.7-15.557a.716.716,0,0,1,.466-1Z" transform="translate(918.001 2329)" fill="#3498db"/>
  </g>
</svg>
