<svg xmlns="http://www.w3.org/2000/svg" width="72" height="72" viewBox="0 0 72 72">
  <g id="Group_15343" data-name="Group 15343" transform="translate(-491 -2230)">
    <rect id="Rectangle_1861" data-name="Rectangle 1861" width="72" height="72" transform="translate(491 2230)" fill="none"/>
    <g id="java-seeklogo.com" transform="translate(499.483 2229.628)">
      <path id="Path_27" data-name="Path 27" d="M69.412,267.473s-2.751,1.6,1.958,2.141a41.2,41.2,0,0,0,14.909-.633,25.942,25.942,0,0,0,3.961,1.934c-14.095,6.041-31.9-.35-20.829-3.443" transform="translate(-51.794 -211.42)" fill="#5382a1"/>
      <path id="Path_28" data-name="Path 28" d="M59.579,229.659s-3.086,2.284,1.627,2.772a58.162,58.162,0,0,0,19.237-.924,8.539,8.539,0,0,0,2.963,1.807c-17.042,4.983-36.023.393-23.827-3.655" transform="translate(-43.682 -181.489)" fill="#5382a1"/>
      <path id="Path_29" data-name="Path 29" d="M131.847,90.635c3.473,4-.912,7.6-.912,7.6s8.818-4.552,4.768-10.253c-3.782-5.316-6.683-7.958,9.02-17.065,0,0-24.649,6.156-12.876,19.721" transform="translate(-101.431 -55.837)" fill="#e76f00"/>
      <path id="Path_30" data-name="Path 30" d="M49.058,293.13s2.036,1.678-2.242,2.975c-8.136,2.465-33.862,3.209-41.008.1-2.569-1.118,2.249-2.669,3.764-2.994a9.767,9.767,0,0,1,2.484-.279c-2.857-2.013-18.467,3.952-7.929,5.66,28.738,4.66,52.386-2.1,44.932-5.461" transform="translate(0 -231.246)" fill="#5382a1"/>
      <path id="Path_31" data-name="Path 31" d="M40.9,190.436s-13.086,3.108-4.634,4.237c3.569.478,10.683.37,17.309-.186,5.416-.457,10.853-1.428,10.853-1.428a22.975,22.975,0,0,0-3.291,1.761c-13.289,3.495-38.959,1.869-31.569-1.706A24.761,24.761,0,0,1,40.9,190.436" transform="translate(-21.955 -150.433)" fill="#5382a1"/>
      <path id="Path_32" data-name="Path 32" d="M200.475,200.96c13.508-7.019,7.263-13.765,2.9-12.856a10.1,10.1,0,0,0-1.545.415,2.461,2.461,0,0,1,1.154-.89c8.624-3.032,15.257,8.943-2.784,13.685a1.171,1.171,0,0,0,.271-.354" transform="translate(-158.059 -147.836)" fill="#5382a1"/>
      <path id="Path_33" data-name="Path 33" d="M99.245.371s7.481,7.484-7.1,18.991c-11.689,9.231-2.665,14.495,0,20.508-6.823-6.156-11.83-11.575-8.471-16.619,4.93-7.4,18.59-10.993,15.571-22.881" transform="translate(-64.973)" fill="#e76f00"/>
      <path id="Path_34" data-name="Path 34" d="M56.619,319.622c12.966.83,32.878-.46,33.349-6.6,0,0-.906,2.326-10.716,4.173a106.608,106.608,0,0,1-32.812.5s1.657,1.372,10.179,1.918" transform="translate(-36.349 -247.476)" fill="#5382a1"/>
    </g>
  </g>
</svg>
