<svg xmlns="http://www.w3.org/2000/svg" width="217" height="217" viewBox="0 0 217 217">
  <g id="Group_165135" data-name="Group 165135" transform="translate(-1117.5 -5941.5)">
    <g id="Group_165132" data-name="Group 165132" transform="translate(-11 132)">
      <rect id="Rectangle_1875" data-name="Rectangle 1875" width="216" height="216" rx="20" transform="translate(1129 5810)" fill="#fff" stroke="#d6dce6" stroke-width="1"/>
    </g>
    <g id="Group_165134" data-name="Group 165134" transform="translate(-1 8)">
      <text id="Chandigarh" transform="translate(1227 6107)" fill="#1a1b22" font-size="20" font-family="Gilroy-Semibold, Gilroy" font-weight="600"><tspan x="-55" y="0">Chandigarh</tspan></text>
      <g id="Group_165133" data-name="Group 165133" transform="translate(205 260)">
        <rect id="Rectangle_1900" data-name="Rectangle 1900" width="100" height="100" transform="translate(972 5712)" fill="none"/>
        <g id="open-hand-monument" transform="translate(976.001 5710.5)">
          <path id="Path_98633" data-name="Path 98633" d="M35.035,2h0ZM31.1,2h0Zm7.867,0h0ZM35.035,2h0ZM31.1,2h0Zm7.867,0h0ZM35.035,2h0ZM31.1,2h0Zm7.867,0h0ZM36.918,2h0ZM32.986,2h0Zm7.867,0h0Z" transform="translate(10.935 0.32)" fill="#54576e"/>
          <path id="Path_98634" data-name="Path 98634" d="M35.035,2h0ZM31.1,2h0Zm7.867,0h0Z" transform="translate(10.935 0.32)" fill="#54576e"/>
          <path id="Path_98635" data-name="Path 98635" d="M19.344,7.337l7.682,4.841a4.3,4.3,0,0,0,3,.493,4.251,4.251,0,0,1-1.357-.493L20.983,7.337a1.548,1.548,0,0,0-1.826-.1,1.766,1.766,0,0,1,.187.1Z" transform="translate(3.298 3.505)" fill="#54576e"/>
          <path id="Path_98636" data-name="Path 98636" d="M34.035,2h0ZM30.1,2h0Zm7.867,0h0Z" transform="translate(10.295 0.32)" fill="#54576e"/>
          <path id="Path_98637" data-name="Path 98637" d="M45.5,63.279h3.279V60A3.279,3.279,0,0,1,45.5,63.279Z" transform="translate(20.14 37.402)" fill="#54576e"/>
          <path id="Path_98638" data-name="Path 98638" d="M49.9,1.5a2.788,2.788,0,0,0-2.787,2.787V7.238a.823.823,0,0,0,1.639,0V4.287a1.148,1.148,0,0,1,2.293,0L51,20.084c0,.079.016.139.02.213q-1.815-.351-3.656-.533a.82.82,0,0,0-.41-.043h0a37.748,37.748,0,0,0-5.984-.1c-.8.052-1.59.134-2.38.236V18.713a.82.82,0,1,0-1.639,0v1.393a38.772,38.772,0,0,0-11.869,4.136L22.766,12.511c-.118-.564-.049-.993.182-1.141a.843.843,0,0,1,.893.164l7.71,4.861a5.164,5.164,0,0,0,6.623-1.3,3.813,3.813,0,0,0,.693-1.469l2-9.172a.885.885,0,0,0,.018-.174,1.145,1.145,0,1,1,2.29,0V7.238a.818.818,0,1,0,1.636,0V4.289A2.785,2.785,0,0,0,39.248,4.2L37.4,12.828l-.115.39a2.308,2.308,0,0,1-.4.879,3.508,3.508,0,0,1-4.479.9l-7.634-4.808a2.4,2.4,0,0,0-2.7-.189,2.494,2.494,0,0,0-.907,2.843l2.5,12.672c1.708,8.656,3.792,12.569,11.651,13V50.68H19.737a.82.82,0,0,0-.82.82V99.861h-4.1a.82.82,0,1,0,0,1.639h62.3a.82.82,0,1,0,0-1.639h-4.1V51.5a.82.82,0,0,0-.82-.82H40.23V38.439l.934-.061c.336-.026.664-.089,1-.134.028,0,.054.01.082.01h.013a.834.834,0,0,0,.321-.067,20.826,20.826,0,0,0,6.492-2.251A33.928,33.928,0,0,0,56.5,30.5L57.8,29.269a5.823,5.823,0,0,1,4.19-1.577l4.1.37c2.062.166,3.459-.62,4.111-2.366a3.36,3.36,0,0,0-2.143-4.246l-6.115-2.016a3.2,3.2,0,0,0-2.423.049.869.869,0,0,0-.151.09c-1.78,1.349-4.831,2.975-6.052,2.377-.449-.225-.679-.854-.679-1.869l.052-15.8A2.789,2.789,0,0,0,49.9,1.5ZM41.05,10.107a.41.41,0,1,0,0,.82h1.639a.41.41,0,0,0,0-.82Zm6.557,0a.41.41,0,0,0,0,.82h1.639a.41.41,0,0,0,0-.82Zm-3.279,3.279a.41.41,0,0,0,0,.82h1.639a.41.41,0,0,0,0-.82ZM41.05,16.664a.41.41,0,0,0,0,.82h1.639a.41.41,0,0,0,0-.82Zm6.557,0a.41.41,0,0,0,0,.82h1.639a.41.41,0,0,0,0-.82Zm13.236,4.192a2.515,2.515,0,0,1,.6.134L67.555,23a1.726,1.726,0,0,1,1,.862,1.708,1.708,0,0,1,.108,1.284c-.267.7-.77,1.418-2.426,1.28l-4.131-.374a7.588,7.588,0,0,0-5.431,2.023L55.381,29.3a32.371,32.371,0,0,1-7.069,5.177A19.085,19.085,0,0,1,42.129,36.6a2.909,2.909,0,0,1-2.338-4.341.821.821,0,1,0-1.428-.81,4.534,4.534,0,0,0,.7,5.423l-.275.016q-.317.02-.634.02H36.847c-7.7,0-9.669-2.639-11.38-10.816h12.3a.82.82,0,0,0,.82-.82V21.515c.628-.085,1.256-.141,1.885-.2l.689,3.1a2.376,2.376,0,0,0,2.315,1.674h.07a2.4,2.4,0,0,0,2.361-1.643l.638-2.52.441,2.3A2.44,2.44,0,0,0,49.33,26.09h.051a2.445,2.445,0,0,0,2.369-1.821l.275-1.262a2.339,2.339,0,0,0,.57.41,4.155,4.155,0,0,0,2.97.007,5.26,5.26,0,0,0,3.567,1.438,5.335,5.335,0,0,0,2-.39.416.416,0,0,0,.243-.3.4.4,0,0,0-.1-.369,6.1,6.1,0,0,1-1.457-2.544c.144-.1.389-.262.467-.321a1.231,1.231,0,0,1,.561-.082Zm-17.187.323c.459,0,.918.038,1.377.057l-.692,2.751a.733.733,0,0,1-.823.467.793.793,0,0,1-.766-.443l-.618-2.787C42.643,21.2,43.148,21.175,43.656,21.179Zm4.475.316q1.237.157,2.462.4l-.431,1.97a.764.764,0,0,1-.8.589.778.778,0,0,1-.77-.58Zm10.992.238a6.9,6.9,0,0,0,1.141,2.161,4.448,4.448,0,0,1-3.787-.787,16.765,16.765,0,0,0,2.646-1.374Zm-22.172.034v2.684H28.345a37.228,37.228,0,0,1,8.607-2.684Zm0,16.782h1.639V50.68H36.951ZM20.558,52.32h50.82V99.861H69.738V54.779a.82.82,0,0,0-.82-.82h-45.9a.82.82,0,0,0-.82.82V99.861H20.558ZM23.837,55.6H35.312V88.385h-.82a.82.82,0,0,0-.82.82V99.861H23.837Zm13.115,0h1.639V88.385H36.951Zm3.279,0H68.1V77.752a4.057,4.057,0,0,0-2.459-.843H49.247a4.1,4.1,0,0,0-4.1,4.1V97.4a4.056,4.056,0,0,0,.843,2.459H41.869V89.2a.82.82,0,0,0-.82-.82h-.82Zm9.016,22.951H65.64A2.462,2.462,0,0,1,68.1,81.008V97.4a2.462,2.462,0,0,1-2.459,2.459H49.247A2.462,2.462,0,0,1,46.788,97.4V81.008A2.462,2.462,0,0,1,49.247,78.549ZM35.312,90.025H40.23v9.836H35.312Z" transform="translate(0 0)" fill="#54576e"/>
          <path id="Path_98639" data-name="Path 98639" d="M36.554,8.057a.82.82,0,0,1-.82-.82V4.287a1.148,1.148,0,1,0-2.3,0V7.238a.82.82,0,1,1-1.639,0V4.287a2.787,2.787,0,0,1,5.574,0V7.238A.82.82,0,0,1,36.554,8.057Z" transform="translate(11.381 0)" fill="#54576e"/>
        </g>
      </g>
    </g>
  </g>
</svg>
