<svg xmlns="http://www.w3.org/2000/svg" width="217" height="217" viewBox="0 0 217 217">
  <g id="Group_165138" data-name="Group 165138" transform="translate(-1060.5 -5722.5)">
    <g id="Group_165132" data-name="Group 165132" transform="translate(-68 -87)">
      <rect id="Rectangle_1875" data-name="Rectangle 1875" width="216" height="216" rx="20" transform="translate(1129 5810)" fill="#fff" stroke="#d6dce6" stroke-width="1"/>
    </g>
    <g id="Group_165137" data-name="Group 165137">
      <text id="Chennai" transform="translate(1169 5896)" fill="#1a1b22" font-size="20" font-family="Gilroy-Semibold, Gilroy" font-weight="600"><tspan x="-38" y="0">Chennai</tspan></text>
      <g id="Group_165136" data-name="Group 165136" transform="translate(221 43)">
        <path id="chennai-central-railway-station" d="M51.5,10.182a.515.515,0,0,0-.515.515v5.7H48.935l-.012-1.551a.515.515,0,0,0-.515-.511h0a.515.515,0,0,0-.511.52l.016,2.062V19.46h-.532a.515.515,0,1,0,0,1.031H47.7l-1.953,6.186H44.8V25.13a.515.515,0,0,0-1.031,0v7.732a.484.484,0,0,0,.012.056l-2.051,6.49a.546.546,0,0,1-.024.156V68.945H19.026v-1h.543a.515.515,0,1,0,0-1.031H18.9l-2.751-8.247h.319a.515.515,0,0,0,0-1.031H14.916V53a.515.515,0,0,0-1.031,0v1.546H8.731V53A.515.515,0,0,0,7.7,53v4.639H6.16a.515.515,0,0,0,0,1.031h.3L3.706,66.913H3.057a.515.515,0,1,0,0,1.031h.505V97.81H2.015a.515.515,0,0,0,0,1.031h98.969a.515.515,0,0,0,0-1.031H99.438V67.944h.515a.515.515,0,1,0,0-1.031H99.3l-2.752-8.247h.319a.515.515,0,0,0,0-1.031H95.323V53a.515.515,0,0,0-1.031,0v1.546H89.137V53a.515.515,0,0,0-1.031,0v4.639h-1.54a.515.515,0,0,0,0,1.031h.3l-2.743,8.216h-.661a.515.515,0,0,0,0,1.031h.515v1.031H61.3V39.562a.479.479,0,0,0-.021-.1.318.318,0,0,0,0-.055l-2.051-6.49a.527.527,0,0,0,.01-.056V25.13a.515.515,0,0,0-1.031,0v1.546h-.951L55.3,20.491h.326a.515.515,0,0,0,0-1.031h-.5V16.909l-.016-2.062a.515.515,0,0,0-.515-.511h0a.515.515,0,0,0-.511.52L54.09,16.4H52.015V10.7a.515.515,0,0,0-.515-.515Zm-2.561,7.246h1.014v2.031H48.939Zm2.045,0h1.031v2.031H50.985Zm2.062,0h1.047v2.031H53.046Zm-4.271,3.093h5.452l5.848,18.526h-2.9V36.47a.515.515,0,0,0-.515-.515H54.869l-2.881-7.907a.519.519,0,0,0-.481-.34h0a.515.515,0,0,0-.481.331l-3.052,7.918H46.347a.515.515,0,0,0-.515.515v2.577h-2.9l5.846-18.527ZM44.8,27.706h.629L44.8,29.689V27.707Zm12.776,0H58.2v1.984l-.626-1.982Zm-6.088,1.982,2.536,6.957s0,0,.005.005a.5.5,0,0,0,.167.218.522.522,0,0,0,.048.035.5.5,0,0,0,.262.08h1.633V39.56a.515.515,0,0,0,.515.515h3.608v.095a1.5,1.5,0,0,0-1.546.307,1.54,1.54,0,0,0-2.577,1.144v1.031a.515.515,0,0,0,1.031,0V41.622a.515.515,0,1,1,1.031,0v1.031a.515.515,0,0,0,1.031,0V41.622a.515.515,0,1,1,1.031,0v6.7H42.737v-6.7a.515.515,0,1,1,1.031,0v1.031a.515.515,0,0,0,1.031,0V41.622a.515.515,0,1,1,1.031,0v1.031a.515.515,0,1,0,1.031,0V41.622a1.546,1.546,0,0,0-1.526-1.544h1.01a.515.515,0,0,0,.515-.515V36.985h1.462l.008,0a.455.455,0,0,0,.074-.016.507.507,0,0,0,.395-.308.008.008,0,0,1,0-.006l2.686-6.965ZM42.737,40.079h.505a1.537,1.537,0,0,0-.505.093Zm.536,0h2.021a1.536,1.536,0,0,0-1.01.4A1.536,1.536,0,0,0,43.273,40.079Zm8.227,0a3.608,3.608,0,1,0,3.608,3.608A3.612,3.612,0,0,0,51.5,40.079Zm0,1.031a2.577,2.577,0,1,1-2.577,2.577A2.579,2.579,0,0,1,51.5,41.11Zm0,1.031a.515.515,0,0,0-.515.515v1.031a.515.515,0,0,0,.515.515c.009,0,.019,0,.028,0s.018,0,.027,0h1.492a.515.515,0,1,0,0-1.031H52.015v-.515A.515.515,0,0,0,51.5,42.141Zm-8.763,7.216h5.155V50.9a.517.517,0,0,0,.286.461l1.776.888V54a.515.515,0,0,0,.515.515h.515v2.062a.515.515,0,0,0,0,1.031h1.031a.515.515,0,0,0,0-1.031V54.512h.515A.515.515,0,0,0,53.046,54V52.252l1.778-.888a.515.515,0,0,0,.284-.461V49.357h5.155V61.728H56.139V59.667a2.062,2.062,0,0,0-4.124,0v2.062H50.985V59.667a2.062,2.062,0,0,0-4.124,0v2.062H42.737Zm6.186,0h5.155v1.227l-1.776.887a.518.518,0,0,0-.286.462v1.546H50.985V51.935a.515.515,0,0,0-.284-.462l-1.778-.887ZM8.733,55.572H9.747V57.6H8.733Zm2.045,0h1.031V57.6H10.778Zm2.062,0h1.047V57.6H12.84Zm76.3,0h1.016V57.6H89.137Zm2.047,0h1.031V57.6H91.185Zm2.06,0h1.047V57.6H93.244ZM48.923,58.635a1.031,1.031,0,0,1,1.031,1.031v7.216H47.892V59.666A1.031,1.031,0,0,1,48.923,58.635Zm5.155,0a1.031,1.031,0,0,1,1.031,1.031v7.216H53.046V59.666A1.031,1.031,0,0,1,54.077,58.635Zm-46.529.031h7.515l2.747,8.247H14.619l-2.942-2.969a.513.513,0,0,0-.364-.155h0a.512.512,0,0,0-.365.152L7.987,66.913H4.795l2.755-8.247Zm80.4,0h7.515l2.747,8.247H95.023L92.08,63.944a.513.513,0,0,0-.364-.155h0a.512.512,0,0,0-.365.152l-2.956,2.972H86.7a.529.529,0,0,0-.151-.031H85.21ZM42.737,62.757h4.124v4.124h-.515a.515.515,0,0,0-.515.515v2.062a.515.515,0,0,0,.515.515H56.655a.515.515,0,0,0,.515-.515V67.4a.515.515,0,0,0-.515-.515h-.515V62.757h4.124V82.345H56.139V74.613a2.569,2.569,0,0,0-4.639-1.53,2.57,2.57,0,0,0-4.639,1.531v7.732H42.737V62.758Zm8.247,0h1.031v1.031H50.985Zm0,2.062h1.031v2.062H50.985Zm-39.676.219,2.728,2.753a.515.515,0,0,0,.367.153h3.592v1.095a1.5,1.5,0,0,0-1.546.308,1.54,1.54,0,0,0-2.577,1.144v1.031a.515.515,0,1,0,1.031,0V70.49a.515.515,0,1,1,1.031,0v1.031a.515.515,0,1,0,1.031,0V70.49a.515.515,0,1,1,1.031,0V97.81H15.881V94.191a4.639,4.639,0,1,0-9.278,0V97.81H4.593V70.49a.515.515,0,1,1,1.031,0v1.031a.515.515,0,1,0,1.031,0V70.49a.515.515,0,1,1,1.031,0v1.031a.515.515,0,1,0,1.031,0V70.49a1.54,1.54,0,0,0-2.577-1.144,1.5,1.5,0,0,0-1.546-.308V67.943H8.2a.518.518,0,0,0,.366-.152Zm80.4,0L94.44,67.79a.515.515,0,0,0,.367.153h3.6v1.095a1.5,1.5,0,0,0-1.546.308,1.54,1.54,0,0,0-2.577,1.144v1.031a.515.515,0,0,0,1.031,0V70.49a.515.515,0,0,1,1.031,0v1.031a.515.515,0,1,0,1.031,0V70.49a.515.515,0,0,1,1.031,0V97.81H96.294V94.191a4.639,4.639,0,0,0-9.278,0V97.81H85.007V70.49a.515.515,0,0,1,1.031,0v1.031a.515.515,0,1,0,1.031,0V70.49a.515.515,0,0,1,1.031,0v1.031a.515.515,0,0,0,1.031,0V70.49a1.54,1.54,0,0,0-2.577-1.144,1.5,1.5,0,0,0-1.546-.308V67.943h3.6a.516.516,0,0,0,.365-.152l2.74-2.754ZM11.294,66.883a1.548,1.548,0,0,0-1.546,1.546v3.093a.515.515,0,0,0,.515.515h2.062a.515.515,0,0,0,.515-.515V68.429A1.548,1.548,0,0,0,11.294,66.883Zm80.412,0a1.548,1.548,0,0,0-1.546,1.546v3.093a.515.515,0,0,0,.515.515h2.062a.515.515,0,0,0,.515-.515V68.429A1.548,1.548,0,0,0,91.706,66.883ZM11.294,67.914a.517.517,0,0,1,.515.515v2.577H10.778V68.429A.517.517,0,0,1,11.294,67.914Zm35.567,0h1.031v1.031H46.861Zm2.062,0h1.031v1.031H48.923Zm2.062,0h1.031v1.031H50.985Zm2.062,0h1.031v1.031H53.046Zm2.062,0h1.031v1.031H55.108Zm36.6,0a.517.517,0,0,1,.515.515v2.577H91.191V68.429A.517.517,0,0,1,91.706,67.914Zm-72.68,2.062h22.68V74.1H19.026Zm42.268,0h22.68V74.1H61.294ZM49.438,73.069a1.548,1.548,0,0,1,1.546,1.546v7.732H47.892V74.615A1.548,1.548,0,0,1,49.438,73.069Zm4.124,0a1.548,1.548,0,0,1,1.546,1.546v7.732H52.015V74.615A1.548,1.548,0,0,1,53.562,73.069ZM11.294,75.12a4.627,4.627,0,0,0-4.44,3.372.5.5,0,0,0-.06.2,4.584,4.584,0,0,0-.137,1.071v7.216a.514.514,0,0,0,.513.515h8.247a.515.515,0,0,0,.515-.515V79.759a4.62,4.62,0,0,0-.139-1.082.491.491,0,0,0-.056-.182,4.631,4.631,0,0,0-4.444-3.374Zm80.414,0a4.631,4.631,0,0,0-4.442,3.372.5.5,0,0,0-.058.2,4.584,4.584,0,0,0-.139,1.071v7.216a.515.515,0,0,0,.515.515h8.247a.515.515,0,0,0,.515-.515V79.759a4.618,4.618,0,0,0-.139-1.081.538.538,0,0,0-.058-.184,4.629,4.629,0,0,0-4.443-3.374Zm-72.682.01h22.68v8.247H40.675V79a1.8,1.8,0,0,0-3.093-1.259A1.8,1.8,0,0,0,34.49,79v4.381H33.459V79a1.8,1.8,0,0,0-3.093-1.258A1.8,1.8,0,0,0,27.273,79v4.381H26.242V79a1.8,1.8,0,0,0-3.093-1.258A1.8,1.8,0,0,0,20.057,79v4.381H19.026V75.129Zm42.268,0h22.68v8.247H82.943V79a1.8,1.8,0,0,0-3.093-1.259A1.8,1.8,0,0,0,76.758,79v4.381H75.727V79a1.8,1.8,0,0,0-3.093-1.258A1.8,1.8,0,0,0,69.541,79v4.381H68.51V79a1.8,1.8,0,0,0-3.093-1.258A1.8,1.8,0,0,0,62.325,79v4.381H61.294V75.129Zm-50,1.021a3.606,3.606,0,0,1,3.254,2.072H8.042a3.6,3.6,0,0,1,3.252-2.072Zm80.412,0a3.606,3.606,0,0,1,3.254,2.072H88.455A3.6,3.6,0,0,1,91.706,76.151ZM21.861,78.223a.775.775,0,0,1,.773.773v4.381H21.088V79A.775.775,0,0,1,21.861,78.223Zm2.577,0a.775.775,0,0,1,.773.773v4.381H23.665V79A.775.775,0,0,1,24.438,78.223Zm4.639,0a.775.775,0,0,1,.773.773v4.381H28.3V79A.775.775,0,0,1,29.077,78.223Zm2.577,0a.775.775,0,0,1,.773.773v4.381H30.881V79A.775.775,0,0,1,31.655,78.223Zm4.639,0a.775.775,0,0,1,.773.773v4.381H35.521V79A.775.775,0,0,1,36.294,78.223Zm2.577,0a.775.775,0,0,1,.773.773v4.381H38.1V79A.775.775,0,0,1,38.871,78.223Zm25.258,0A.775.775,0,0,1,64.9,79v4.381H63.356V79A.775.775,0,0,1,64.129,78.223Zm2.577,0a.775.775,0,0,1,.773.773v4.381H65.933V79A.775.775,0,0,1,66.706,78.223Zm4.639,0a.775.775,0,0,1,.773.773v4.381H70.572V79A.775.775,0,0,1,71.345,78.223Zm2.577,0A.775.775,0,0,1,74.7,79v4.381H73.149V79A.775.775,0,0,1,73.923,78.223Zm4.639,0a.775.775,0,0,1,.773.773v4.381H77.789V79A.775.775,0,0,1,78.562,78.223Zm2.577,0a.775.775,0,0,1,.773.773v4.381H80.366V79A.775.775,0,0,1,81.139,78.223Zm-73.4,1.031h.979v1.031H7.686v-.526A3.677,3.677,0,0,1,7.737,79.254Zm2.01,0h1.031v1.031H9.747Zm2.062,0H12.84v1.031H11.809Zm2.062,0h.98a3.381,3.381,0,0,1,.051.505v.526H13.871Zm74.278,0h.979v1.031H88.1v-.526A3.675,3.675,0,0,1,88.149,79.254Zm2.01,0h1.031v1.031H90.16Zm2.062,0h1.031v1.031H92.222Zm2.062,0h.98a3.537,3.537,0,0,1,.051.505v.526H94.284Zm-86.6,2.062H8.716V86.46H7.686Zm2.062,0h1.031V86.46H9.747Zm2.062,0H12.84V86.46H11.809Zm2.062,0H14.9V86.46H13.871Zm74.227,0h1.031V86.46H88.1Zm2.062,0h1.031V86.46H90.16Zm2.062,0h1.031V86.46H92.222Zm2.062,0h1.031V86.46H94.284ZM42.739,83.378H60.263V97.811H57.119V91.1a5.67,5.67,0,1,0-11.34,0v6.711H42.739ZM19.026,84.409h22.68v13.4H40.675v-4.13a3.093,3.093,0,0,0-6.186,0v4.13H33.459v-4.13a3.093,3.093,0,0,0-6.186,0v4.13H26.242v-4.13a3.093,3.093,0,0,0-6.186,0v4.13H19.026v-13.4Zm42.268,0h22.68v13.4H82.943v-4.13a3.093,3.093,0,0,0-6.186,0v4.13H75.727v-4.13a3.093,3.093,0,0,0-6.186,0v4.13H68.51v-4.13a3.093,3.093,0,0,0-6.186,0v4.13H61.294ZM20.572,85.429a.515.515,0,0,0-.515.515v2.577a.515.515,0,0,0,.515.515h5.155a.515.515,0,0,0,.515-.515V85.945a.515.515,0,0,0-.515-.515Zm7.216,0a.515.515,0,0,0-.515.515v2.577a.515.515,0,0,0,.515.515h5.155a.515.515,0,0,0,.515-.515V85.945a.515.515,0,0,0-.515-.515Zm7.216,0a.515.515,0,0,0-.515.515v2.577a.515.515,0,0,0,.515.515H40.16a.515.515,0,0,0,.515-.515V85.945a.515.515,0,0,0-.515-.515Zm27.835,0a.515.515,0,0,0-.515.515v2.577a.515.515,0,0,0,.515.515h5.155a.515.515,0,0,0,.515-.515V85.945a.515.515,0,0,0-.515-.515Zm7.216,0a.515.515,0,0,0-.515.515v2.577a.515.515,0,0,0,.515.515h5.155a.515.515,0,0,0,.515-.515V85.945a.515.515,0,0,0-.515-.515Zm7.216,0a.515.515,0,0,0-.515.515v2.577a.515.515,0,0,0,.515.515h5.155a.515.515,0,0,0,.515-.515V85.945a.515.515,0,0,0-.515-.515ZM21.088,86.46h1.546v1.546H21.088Zm2.577,0h1.546v1.546H23.665Zm4.639,0h1.546v1.546H28.3Zm2.577,0h1.546v1.546H30.881Zm4.639,0h1.546v1.546H35.521Zm2.577,0h1.546v1.546H38.1Zm13.351,0A4.646,4.646,0,0,1,56.088,91.1v6.7H46.809V91.1A4.644,4.644,0,0,1,51.448,86.46Zm11.907,0H64.9v1.546H63.356Zm2.577,0h1.546v1.546H65.933Zm4.639,0h1.546v1.546H70.572Zm2.577,0H74.7v1.546H73.149Zm4.639,0h1.546v1.546H77.789Zm2.577,0h1.546v1.546H80.366ZM11.242,90.584a3.612,3.612,0,0,1,3.608,3.608V97.8H7.634V94.192A3.612,3.612,0,0,1,11.242,90.584Zm80.412,0a3.612,3.612,0,0,1,3.608,3.608V97.8H88.046V94.192A3.612,3.612,0,0,1,91.655,90.584ZM23.149,91.619a2.064,2.064,0,0,1,2.062,2.062v4.13H21.088v-4.13A2.064,2.064,0,0,1,23.149,91.619Zm7.216,0a2.064,2.064,0,0,1,2.062,2.062v4.13H28.3v-4.13A2.064,2.064,0,0,1,30.366,91.619Zm7.216,0a2.064,2.064,0,0,1,2.062,2.062v4.13H35.521v-4.13A2.064,2.064,0,0,1,37.582,91.619Zm27.835,0a2.064,2.064,0,0,1,2.062,2.062v4.13H63.356v-4.13A2.064,2.064,0,0,1,65.418,91.619Zm7.216,0A2.064,2.064,0,0,1,74.7,93.681v4.13H70.572v-4.13A2.064,2.064,0,0,1,72.634,91.619Zm7.216,0a2.064,2.064,0,0,1,2.062,2.062v4.13H77.789v-4.13A2.064,2.064,0,0,1,79.851,91.619Z" transform="translate(896.5 5718.819)" fill="#54576e"/>
        <rect id="Rectangle_1900" data-name="Rectangle 1900" width="100" height="100" transform="translate(898 5718)" fill="none"/>
      </g>
    </g>
  </g>
</svg>
