<svg xmlns="http://www.w3.org/2000/svg" width="373" height="180" viewBox="0 0 373 180">
  <g id="Group_115032" data-name="Group 115032" transform="translate(-907 -3956)">
    <path id="Rectangle_1875" data-name="Rectangle 1875" d="M20,0H353a20,20,0,0,1,20,20V180a0,0,0,0,1,0,0H0a0,0,0,0,1,0,0V20A20,20,0,0,1,20,0Z" transform="translate(907 3956)" fill="#e6edf7"/>
    <g id="Group_115029" data-name="Group 115029" transform="translate(-1960 112.201)">
      <g id="Group_115027" data-name="Group 115027" transform="translate(2753.109 -111.847)">
        <path id="Path_49283" data-name="Path 49283" d="M536.13,1707.329c0,4.873-70.969,8.824-158.513,8.824S219.1,1712.2,219.1,1707.329s70.969-8.824,158.513-8.824S536.13,1702.456,536.13,1707.329Z" transform="translate(-77.213 2393.693)" fill="#121d30" opacity="0.08"/>
        <g id="Group_114900" data-name="Group 114900" transform="translate(372.2 4010.151)">
          <g id="Group_114878" data-name="Group 114878" transform="translate(0 10.458)">
            <path id="Path_49284" data-name="Path 49284" d="M2044.119,1162.7l-8.3,4.56-8.33-13.109,10.075-3.5Z" transform="translate(-2027.493 -1150.651)" fill="#292c47"/>
          </g>
          <g id="Group_114879" data-name="Group 114879" transform="translate(0.552 10.845)">
            <path id="Path_49285" data-name="Path 49285" d="M2047.263,1164.882l-7.758,4.264-7.79-12.259,9.422-3.273Z" transform="translate(-2031.715 -1153.614)" fill="#fff"/>
          </g>
          <g id="Group_114880" data-name="Group 114880" transform="translate(9.105 17.096)">
            <path id="Path_49286" data-name="Path 49286" d="M2107,1204.176s-1.444-.691-2.077-1.051-2.264-.857-2.4-.974-4.833-.408-5.117-.654-.562.577.656.843,2.914.92,3.006,1.4-1.252.589-1.387.981.038.3.231.389,1.6-.695,2.217-.474,1.563-.085,2.037.077,2.779.938,2.779.938Z" transform="translate(-2097.168 -1201.451)" fill="#eea886"/>
          </g>
          <g id="Group_114881" data-name="Group 114881" transform="translate(1.574 17.109)">
            <path id="Path_49287" data-name="Path 49287" d="M2045.892,1209.866s-1.213-1.092-1.8-1.548-1.689-1.8-1.851-1.878-2.266-4.4-2.609-4.568.325-.754,1.05.29,2,2.388,2.486,2.29.068-1.409.384-1.69.3-.083.456.066-.032,1.777.417,2.274.529,1.507.866,1.89,1.965,2.253,1.965,2.253Z" transform="translate(-2039.54 -1201.554)" fill="#eea886"/>
          </g>
          <g id="Group_114882" data-name="Group 114882" transform="translate(34.048 83.536)">
            <path id="Path_49288" data-name="Path 49288" d="M2288.052,1710.131s.262,1.821.3,2.095,2.919-.161,2.919-.161l.234-2.168A17.1,17.1,0,0,0,2288.052,1710.131Z" transform="translate(-2288.052 -1709.896)" fill="#424773"/>
          </g>
          <g id="Group_114883" data-name="Group 114883" transform="translate(29.305 85.511)">
            <path id="Path_49289" data-name="Path 49289" d="M2256.758,1725.133a7.8,7.8,0,0,1-1.8,1.576c-.885.478-2.274.668-2.8,1.163-.377.357-1.375,1.9,2.3,1.865s5.444.217,5.838-.373-.57-4.354-.57-4.354A7.776,7.776,0,0,1,2256.758,1725.133Z" transform="translate(-2251.749 -1725.01)" fill="#121d30"/>
          </g>
          <g id="Group_114884" data-name="Group 114884" transform="translate(13.37 83.536)">
            <path id="Path_49290" data-name="Path 49290" d="M2129.808,1710.131s.262,1.821.3,2.095,2.919-.161,2.919-.161l.234-2.168A17.1,17.1,0,0,0,2129.808,1710.131Z" transform="translate(-2129.808 -1709.896)" fill="#424773"/>
          </g>
          <g id="Group_114885" data-name="Group 114885" transform="translate(6.93 85.511)">
            <path id="Path_49291" data-name="Path 49291" d="M2087.227,1725.133a7.8,7.8,0,0,1-1.8,1.576c-.884.478-4.139.871-4.662,1.366-.378.357-1.006,1.8,4.163,1.661,3.672-.1,5.444.217,5.837-.373s-.569-4.354-.569-4.354A7.064,7.064,0,0,1,2087.227,1725.133Z" transform="translate(-2080.522 -1725.01)" fill="#121d30"/>
          </g>
          <g id="Group_114886" data-name="Group 114886" transform="translate(25.037 36.975)">
            <path id="Path_49292" data-name="Path 49292" d="M2225.713,1353.581s2.712,4.308,2.51,8.2.983,8.146,1.391,12.215c.454,4.535,2.312,15.272,2.38,17.7s-.288,10.173-.288,10.173l-3.72.085s-3.125-18.771-3.934-20.686-4.822-15.57-4.957-17.1S2225.713,1353.581,2225.713,1353.581Z" transform="translate(-2219.092 -1353.581)" fill="#121d30"/>
          </g>
          <g id="Group_114887" data-name="Group 114887" transform="translate(12.867 36.233)">
            <path id="Path_49293" data-name="Path 49293" d="M2130.477,1349.227s-2.044,10.674-2.313,13.058-.449,11.535-.584,13.025-.9,19.495-1.618,21.708h4.756s3.651-13.089,3.651-19.282,2.821-13.463,4.641-17.549,5.989-4.183,7.107-11.764C2146.116,1348.423,2131.992,1346.822,2130.477,1349.227Z" transform="translate(-2125.96 -1347.901)" fill="#121d30"/>
          </g>
          <g id="Group_114888" data-name="Group 114888" transform="translate(20.651 0.419)">
            <path id="Path_49294" data-name="Path 49294" d="M2192.009,1074.166s-3.64-1.36-5.318,1.411-1.517,8.317.318,9,4.591.326,5.53-1.408a13.888,13.888,0,0,0,1.747-5.915A3.65,3.65,0,0,0,2192.009,1074.166Z" transform="translate(-2185.527 -1073.832)" fill="#eea886"/>
          </g>
          <g id="Group_114889" data-name="Group 114889" transform="translate(22.421 7.836)">
            <path id="Path_49295" data-name="Path 49295" d="M2199.177,1134.043a3.148,3.148,0,0,1-.1,1.467c-.25.484,4.716.5,4.716.5a32.71,32.71,0,0,1,1.167-4.858C2205.725,1128.924,2199.177,1134.043,2199.177,1134.043Z" transform="translate(-2199.069 -1130.588)" fill="#eea886"/>
          </g>
          <g id="Group_114890" data-name="Group 114890" transform="translate(20.807 0)">
            <path id="Path_49296" data-name="Path 49296" d="M2194.227,1079.019s-.343.565-1.741.346-3.106-2.081-3.69-2.285-.59-.547-.59-.547l-.366.534-.621.039s.566-1.665-.288-2.344.886-5.389,5.373-3.821c0,0,3.446.95,3.321,2.91S2195,1078.043,2194.227,1079.019Z" transform="translate(-2186.722 -1070.623)" fill="#121d30"/>
          </g>
          <g id="Group_114891" data-name="Group 114891" transform="translate(22.135 11.338)">
            <path id="Path_49297" data-name="Path 49297" d="M2196.883,1158.752s.016-.925.435-1.014a29.91,29.91,0,0,1,5.143-.291v1.077S2201.469,1159.135,2196.883,1158.752Z" transform="translate(-2196.883 -1157.391)" fill="#e2d2ca"/>
          </g>
          <g id="Group_114892" data-name="Group 114892" transform="translate(22.274 4.482)">
            <path id="Path_49298" data-name="Path 49298" d="M2198.055,1105.64c.078-.329.914-1.268,1.234-.262s-.484,2.359-.932,2.243S2197.857,1106.473,2198.055,1105.64Z" transform="translate(-2197.945 -1104.925)" fill="#eea886"/>
          </g>
          <g id="Group_114893" data-name="Group 114893" transform="translate(5.415 23.626)">
            <path id="Path_49299" data-name="Path 49299" d="M2068.952,1251.428h.007C2068.931,1251.441,2068.927,1251.442,2068.952,1251.428Z" transform="translate(-2068.935 -1251.428)" fill="#323657"/>
          </g>
          <g id="Group_114894" data-name="Group 114894" transform="translate(5.44 12.472)">
            <path id="Path_49300" data-name="Path 49300" d="M2098.4,1200.831a38.492,38.492,0,0,1-6.038,1.077c-3.806.42-13.317-.151-13.377-.6s2.046-16.745,1.926-17.584-.184-3.829-.184-3.829a21.064,21.064,0,0,1-1.889,5.99c-.364.659-1.585,2.725-2.174,2.255-2.849-2.275-7.261-10.847-7.541-10.92.235-.1,2.091-.957,2.351-1.044.228-.076,2.283,2.1,3.529,3.449.555.6.949,1.038.949,1.038.36-.809,1.67-5.907,2.077-7.671.918-3.979.777-4.144.777-4.144,2.785-.842,7.011-2.557,7.011-2.557l5.577-.227a54.273,54.273,0,0,1,7.135,2.037c.191.086.192,4.567.717,5.741l-1.671,3.526s-.966,6.984-1.166,10.091C2096.318,1188.885,2098.4,1200.831,2098.4,1200.831Z" transform="translate(-2069.123 -1166.064)" fill="#121d30"/>
          </g>
          <g id="Group_114895" data-name="Group 114895" transform="translate(29.586 14.509)">
            <path id="Path_49301" data-name="Path 49301" d="M2260.114,1193.212a2.2,2.2,0,0,1-1.237,1.041,1.6,1.6,0,0,1-.893.09l-.218-.04h0l-3.822-.709s-.836-9.631,5.221-11.939C2259.326,1181.707,2261.452,1188.9,2260.114,1193.212Z" transform="translate(-2253.905 -1181.654)" fill="#121d30"/>
          </g>
          <g id="Group_114896" data-name="Group 114896" transform="translate(33.447 22.235)">
            <path id="Path_49302" data-name="Path 49302" d="M2284.566,1245.652h0a1.6,1.6,0,0,1-.893.09l-.218-.04h0l.377-4.922Z" transform="translate(-2283.455 -1240.78)" fill="#252840"/>
          </g>
          <g id="Group_114897" data-name="Group 114897" transform="translate(11.319 26.032)">
            <path id="Path_49303" data-name="Path 49303" d="M2115.067,1270.878l-.467,1.978a15.651,15.651,0,0,1-.483-3.017C2114.673,1270.441,2115.067,1270.878,2115.067,1270.878Z" transform="translate(-2114.116 -1269.84)" fill="#252840"/>
          </g>
          <g id="Group_114898" data-name="Group 114898" transform="translate(28.17 1.072)">
            <path id="Path_49304" data-name="Path 49304" d="M2243.067,1078.833s4.771-.55.082,7.417Z" transform="translate(-2243.067 -1078.825)" fill="#121d30"/>
          </g>
          <g id="Group_114899" data-name="Group 114899" transform="translate(3.35 11.103)">
            <path id="Path_49305" data-name="Path 49305" d="M2053.615,1157.743l-.485-.833,3.819-1.318.485.829Z" transform="translate(-2053.13 -1155.592)" fill="#292c47"/>
          </g>
        </g>
        <g id="Group_114951" data-name="Group 114951" transform="translate(190.658 4009.372)">
          <g id="Group_114922" data-name="Group 114922" transform="translate(18.575 44.676)">
            <g id="Group_114921" data-name="Group 114921">
              <g id="Group_114920" data-name="Group 114920">
                <path id="Path_49360" data-name="Path 49360" d="M1741.97,1424.137a2.579,2.579,0,0,1,.535.735,4.241,4.241,0,0,0,.645.866,9.883,9.883,0,0,1,.906,1.483,7.522,7.522,0,0,0,.09,1.116c.1.222.363.647.165.727s-.539-.239-.539-.239a.3.3,0,0,1-.072.33.524.524,0,0,1-.515.143s-.059.263-.208.332a.668.668,0,0,1-.537.053.614.614,0,0,1-.357.22.56.56,0,0,1-.513-.167s-.366.172-.531.017a1.886,1.886,0,0,1-.294-.506,6.485,6.485,0,0,1-.281-2.837,2.567,2.567,0,0,0-.73-2.082Z" transform="translate(-1739.735 -1424.137)" fill="#eea886"/>
              </g>
            </g>
          </g>
          <g id="Group_114923" data-name="Group 114923" transform="translate(18.011 48.692)">
            <path id="Path_49361" data-name="Path 49361" d="M1732.859,1459.057v-3.24a.947.947,0,0,0-.946-.946h-5.137a.947.947,0,0,0-.946.946v3.24a.947.947,0,0,0,.946.946h5.137A.947.947,0,0,0,1732.859,1459.057Zm-.946-3.551a.311.311,0,0,1,.311.311v3.24a.311.311,0,0,1-.311.311h-5.137a.312.312,0,0,1-.311-.311v-3.24a.312.312,0,0,1,.311-.311Z" transform="translate(-1725.829 -1454.871)" fill="#0e1e2b"/>
          </g>
          <g id="Group_114924" data-name="Group 114924" transform="translate(11.888 52.434)">
            <rect id="Rectangle_1878" data-name="Rectangle 1878" width="19.274" height="13.809" transform="translate(0 0)" fill="#121d30"/>
          </g>
          <g id="Group_114925" data-name="Group 114925" transform="translate(11.809 15.502)">
            <path id="Path_49362" data-name="Path 49362" d="M1754.229,1200.877s-.958-.007-1.379,2.945.377,4.186.472,5.414,1.536,9.163,1.575,9.513.233,4.573.794,5.694,4.693,7.471,4.748,7.788,2.005-1.106,2.005-1.106-3.245-6.793-3.433-7.568-1.494-4.733-1.288-5.941-.578-7.873-.5-8.614S1756.121,1201.328,1754.229,1200.877Z" transform="translate(-1752.728 -1200.877)" fill="#eea886"/>
          </g>
          <g id="Group_114926" data-name="Group 114926" transform="translate(11.742 15.481)">
            <path id="Path_49363" data-name="Path 49363" d="M1752.518,1200.718s-.988.014-1.408,2.966a12.073,12.073,0,0,0,.214,5.295c.24,1.208,1.06,8.6,1.1,8.952s1.019,4.807,1.529,6.375c.388,1.192,4.071,7.433,4.126,7.751s2.864-1.458,2.864-1.458-3.6-7.026-3.79-7.8a30.9,30.9,0,0,1-.818-4.684c-.023-1.44-.929-8.507-.853-9.248S1755.272,1201.727,1752.518,1200.718Z" transform="translate(-1750.921 -1200.718)" fill="#3dd0e2"/>
          </g>
          <path id="Path_49364" data-name="Path 49364" d="M1849.648,1727.183a28.8,28.8,0,0,0,2.412,3.169s1.595.558,1.694,1.642c.065.709,0,1.848-1.819,1.9s-2.991-.585-3.325-1.688a3.331,3.331,0,0,0-.963-1.6v2.309h-.411s-.1-2.233-.128-2.643-.295-1.989.571-2.688A2.4,2.4,0,0,1,1849.648,1727.183Z" transform="translate(-1844.569 -1642.853)" fill="#121d30"/>
          <path id="Path_49365" data-name="Path 49365" d="M1749.118,1708.113a7.369,7.369,0,0,0,.86,1.437c.412.538,1.694,2.746,2.258,2.9s2.309.462,2.463,1.437.231,1.668-1.488,1.745-2.848.18-3.67-1.026a8.938,8.938,0,0,0-2.13-2.078v3.147h-.667a28.542,28.542,0,0,0-.488-3.506,3.958,3.958,0,0,1,.949-4.055C1748.8,1706.8,1749.118,1708.113,1749.118,1708.113Z" transform="translate(-1732.376 -1625.823)" fill="#121d30"/>
          <path id="Path_49366" data-name="Path 49366" d="M1839.9,1344.4a16.106,16.106,0,0,0-2.76,6.171c-.589,3.349.348,14.588.322,16.243s-1.565,5.773-1.257,8.891,2.88,18.379,2.88,18.379l1.969-.4s-.192-15.82,0-17.129.579-6.079.656-6.618,4.887-14.689,4.887-17.1S1845.138,1340.461,1839.9,1344.4Z" transform="translate(-1835.979 -1309.351)" fill="#eea886"/>
          <path id="Path_49367" data-name="Path 49367" d="M1772.958,1354.2s3.567,13.613,3.99,15.5a39.765,39.765,0,0,1,1.037,4.242,28.035,28.035,0,0,1-.69,4.842l-2.425,21.555h-1.912s-1.206-12.586-1.4-15.127,1.386-6.467,1-7.544-6.2-13.51-6.2-13.51S1761.963,1350.253,1772.958,1354.2Z" transform="translate(-1758.128 -1318.052)" fill="#eea886"/>
          <path id="Path_49368" data-name="Path 49368" d="M1862.537,1730.895a2.848,2.848,0,0,1-2.858-.247,5.557,5.557,0,0,1-1.819-2.649l1.969-.4Z" transform="translate(-1854.75 -1643.265)" fill="#eea886"/>
          <path id="Path_49369" data-name="Path 49369" d="M1770.866,1714.019s-1.54.385-2.13,0-2.6-3.776-3.261-3.98c0,0,.644-1.307,2.273-.357C1767.748,1709.682,1770.43,1713.454,1770.866,1714.019Z" transform="translate(-1751.006 -1627.392)" fill="#eea886"/>
          <path id="Path_49370" data-name="Path 49370" d="M1788,1383.168s-6.553,3.857-18.837,3.857c0,0-.7-14.247,1.09-18.255s13.641-1.516,13.641-1.516S1787.577,1380.221,1788,1383.168Z" transform="translate(-1768.604 -1329.346)" fill="#121d30"/>
          <g id="Group_114927" data-name="Group 114927" transform="translate(0.98 14.318)">
            <path id="Path_49371" data-name="Path 49371" d="M1797.882,1191.914a19.915,19.915,0,0,0,2.566,1.032c.661.132,3.228,3.466,3.677,4.683s0,3.042-.926,5.185-.053,2.857-.476,5a49.843,49.843,0,0,0-.714,7.871c.079,1.191-10.7,1.415-13.161-.754,0,0,2.473-3.7,2.79-4.233s.053-3.413-.238-4.154-2.228-7.04-2.228-7.04-1.585-4.838-.153-5.95c1.243-.965,4.632-1.31,5.241-1.521A10.4,10.4,0,0,1,1797.882,1191.914Z" transform="translate(-1788.421 -1191.815)" fill="#fff"/>
          </g>
          <g id="Group_114928" data-name="Group 114928" transform="translate(10.995 13.74)">
            <path id="Path_49372" data-name="Path 49372" d="M1824.089,1192.316l1.157-1.355-1.005-3.568A23.551,23.551,0,0,0,1824.089,1192.316Z" transform="translate(-1824.033 -1187.392)" fill="#d6c5be"/>
          </g>
          <g id="Group_114929" data-name="Group 114929" transform="translate(5.117 0.561)">
            <path id="Path_49373" data-name="Path 49373" d="M1809.408,1086.879c1.132-.4,5.291-1.376,6.27,3.942s-1.958,9.1-4.656,8.1-4.365-4.683-4.524-7.487A4.191,4.191,0,0,1,1809.408,1086.879Z" transform="translate(-1806.487 -1086.542)" fill="#eea886"/>
          </g>
          <g id="Group_114930" data-name="Group 114930" transform="translate(4.555 0.126)">
            <path id="Path_49374" data-name="Path 49374" d="M1817.7,1087.925s.2-4.551-4.32-4.709-5.741,3.566-5.37,6.281a6.644,6.644,0,0,0,2.243,4.146s-.163-2.2.715-2.767,4.4-1.708,5.931-4.353A4.058,4.058,0,0,1,1817.7,1087.925Z" transform="translate(-1807.95 -1083.211)" fill="#121d30"/>
          </g>
          <g id="Group_114931" data-name="Group 114931" transform="translate(2.734 0)">
            <path id="Path_49375" data-name="Path 49375" d="M1855.551,1086.6a3.047,3.047,0,1,1-1.789-4.224A3.258,3.258,0,0,1,1855.551,1086.6Z" transform="translate(-1849.618 -1082.246)" fill="#121d30"/>
          </g>
          <g id="Group_114932" data-name="Group 114932" transform="translate(6.82 9.612)">
            <path id="Path_49376" data-name="Path 49376" d="M1835.121,1158.411a45.476,45.476,0,0,0-.3,4.632s-1.979,1.983-4.23-2.315a5.9,5.9,0,0,0,.234-4.186C1830.111,1154.127,1835.121,1158.411,1835.121,1158.411Z" transform="translate(-1830.59 -1155.804)" fill="#eea886"/>
          </g>
          <g id="Group_114933" data-name="Group 114933" transform="translate(8.772 16.851)">
            <path id="Path_49377" data-name="Path 49377" d="M1835.168,1211.2v1.812l-2.278-1.7Z" transform="translate(-1832.89 -1211.203)" fill="#eea886"/>
          </g>
          <g id="Group_114934" data-name="Group 114934" transform="translate(5.888 14.318)">
            <path id="Path_49378" data-name="Path 49378" d="M1838.053,1196.16l-.946-1.171-3.186-3.175-1.031.992Z" transform="translate(-1832.89 -1191.814)" fill="#d6c5be"/>
          </g>
          <g id="Group_114935" data-name="Group 114935" transform="translate(0 14.621)">
            <path id="Path_49379" data-name="Path 49379" d="M1852.856,1194.139s2.674,4.057,2.8,5.843a162.025,162.025,0,0,1-1.892,19.438c-.9,4.294-7.386-.484-7.386-.484s4.36-7.057,2.686-12.708-2.282-7.91-2.282-7.91.576-3.147,2.616-3.589C1851.19,1194.34,1852.856,1194.139,1852.856,1194.139Z" transform="translate(-1846.38 -1194.139)" fill="#3dd0e2"/>
          </g>
          <g id="Group_114936" data-name="Group 114936" transform="translate(11.855 15.044)">
            <path id="Path_49380" data-name="Path 49380" d="M1793,1203s.482,1.707-1.4,5.478c0,0,.03,4.827.083,6.335s.41,7.209.41,7.209l-1.858,1.088a.524.524,0,0,1-.785-.515c.526-4.339,2.238-20.8-1.46-25.225l1.484.438A12.007,12.007,0,0,1,1793,1203Z" transform="translate(-1787.996 -1197.37)" fill="#3dd0e2"/>
          </g>
          <g id="Group_114937" data-name="Group 114937" transform="translate(6.687 6.412)">
            <path id="Path_49381" data-name="Path 49381" d="M1854.026,1131.73a.7.7,0,0,0-1.032-.3c-.318.238-.5.952,0,1.878S1855.269,1134.883,1854.026,1131.73Z" transform="translate(-1852.682 -1131.312)" fill="#eea886"/>
          </g>
          <g id="Group_114938" data-name="Group 114938" transform="translate(11.203 13.74)">
            <path id="Path_49382" data-name="Path 49382" d="M1813.878,1190.96l1.458.4-2.463-3.971Z" transform="translate(-1812.873 -1187.392)" fill="#fae6de"/>
          </g>
          <g id="Group_114939" data-name="Group 114939" transform="translate(6.037 14.318)">
            <path id="Path_49383" data-name="Path 49383" d="M1844.2,1194.99l-1.332,1.746-2.735-4.559.882-.362Z" transform="translate(-1840.129 -1191.814)" fill="#fae6de"/>
          </g>
          <g id="Group_114940" data-name="Group 114940" transform="translate(7.575 11.473)">
            <path id="Path_49384" data-name="Path 49384" d="M1834.828,1171.556l-.073.694s-1.574.3-3.633-2.207A4.494,4.494,0,0,0,1834.828,1171.556Z" transform="translate(-1831.122 -1170.043)" fill="#a77860"/>
          </g>
          <g id="Group_114943" data-name="Group 114943" transform="translate(18.585 34.101)">
            <g id="Group_114942" data-name="Group 114942" transform="translate(0)">
              <g id="Group_114941" data-name="Group 114941">
                <path id="Path_49385" data-name="Path 49385" d="M1737.329,1343.488s.925.6,1.457.263a3.528,3.528,0,0,1,1.485-.335c.325-.017,1.3-.44,1.329-.03s-1.58.776-1.9.919,1.094.835,1.253,1.165-1.118,2.608-2.034,2.022-1.508-1.818-1.689-1.889a6.651,6.651,0,0,1-.684-.4Z" transform="translate(-1736.546 -1343.207)" fill="#eea886"/>
              </g>
            </g>
          </g>
          <g id="Group_114944" data-name="Group 114944" transform="translate(0.633 15.753)">
            <path id="Path_49386" data-name="Path 49386" d="M1758.159,1202.82a2.8,2.8,0,0,1,2.418.945,12.578,12.578,0,0,1,1.958,3.783c.291.635,3.969,6.508,4.18,6.641s3.948,3.148,5.642,4.762a29.792,29.792,0,0,0,4.994,3.413l-1.243,1.746s-10.027-5.344-11.3-7.3-6.339-7.382-6.339-7.382S1755.421,1204.792,1758.159,1202.82Z" transform="translate(-1757.018 -1202.799)" fill="#eea886"/>
          </g>
          <g id="Group_114947" data-name="Group 114947" transform="translate(21.002 36.175)">
            <g id="Group_114946" data-name="Group 114946" transform="translate(0)">
              <g id="Group_114945" data-name="Group 114945">
                <path id="Path_49387" data-name="Path 49387" d="M1723.487,1359.084a24.291,24.291,0,0,1,2.754,2.263c.068.282-.048.421-.307.246s-2.65-1.84-2.65-1.84,2.784,2.879,2.891,3.1c.062.128-.146.411-.293.33s-3.07-2.777-3.07-2.777,2.595,2.693,2.629,2.9a.257.257,0,0,1-.432.208c-.206-.187-2.756-2.55-2.756-2.55a15.2,15.2,0,0,1,1.69,2.274c-.046.119-.215.372-.654-.179s-1.61-1.741-1.61-1.741Z" transform="translate(-1721.679 -1359.084)" fill="#eea886"/>
              </g>
            </g>
          </g>
          <path id="Path_49388" data-name="Path 49388" d="M1796.093,1275.136s.089,6.026-.279,8.932l-.163-7.985Z" transform="translate(-1780.186 -1249.93)" fill="#258c99"/>
          <g id="Group_114948" data-name="Group 114948" transform="translate(0.291 15.383)">
            <path id="Path_49389" data-name="Path 49389" d="M1764.715,1199.967a4.2,4.2,0,0,1,1.778,1.336,12.57,12.57,0,0,1,1.958,3.783c.291.635,3.969,6.508,4.18,6.64a46.958,46.958,0,0,1,4.967,3.849,36.283,36.283,0,0,0,4.845,3.542l-1.617,2.4s-8.843-4.9-10.245-6.762c-1.5-1.992-6.839-7.841-6.839-7.841S1760.344,1201.565,1764.715,1199.967Z" transform="translate(-1762.483 -1199.967)" fill="#3dd0e2"/>
          </g>
          <g id="Group_114950" data-name="Group 114950" transform="translate(19.39 47.5)">
            <g id="Group_114949" data-name="Group 114949" transform="translate(0)">
              <path id="Path_49390" data-name="Path 49390" d="M1747.274,1447.462s-.345-1.341-.776-1.541-.334.29-.334.29-.088-.487-.489-.459-.256.6-.256.6a.4.4,0,0,0-.548-.18c-.381.171-.152.616-.152.616s-.515-.367-.639.133a2.168,2.168,0,0,0,.412,1.643.47.47,0,0,0,.555,0,.57.57,0,0,0,.884-.053s.693.18.76-.389C1746.69,1448.118,1747.479,1448.206,1747.274,1447.462Z" transform="translate(-1744.037 -1445.751)" fill="#db9c7c"/>
            </g>
          </g>
          <path id="Path_49391" data-name="Path 49391" d="M1854.63,1291.444l-3.027-4.884s2.581,3.047,2.85,3.375.292.351.292.351S1854.666,1291.278,1854.63,1291.444Z" transform="translate(-1846.14 -1259.862)" fill="#258c99"/>
        </g>
      </g>
      <g id="Group_115028" data-name="Group 115028" transform="translate(2485.584 3578.456)">
        <path id="Path_49479" data-name="Path 49479" d="M2258.622,997.028c1.129-.041,3.375-.83,3.273-.312s-.438.765,0,.761,2.658.364,2.149,1.258-1.16,1.94-2.135,1.588a31.82,31.82,0,0,0-4.5-.9C2256.386,999.286,2257.73,997.061,2258.622,997.028Z" transform="translate(-1641.099 -645.124)" fill="#efaea6"/>
        <g id="Group_115018" data-name="Group 115018" transform="translate(478.389 297.343)">
          <path id="Path_49481" data-name="Path 49481" d="M586.583,393.987c-.2,2.747,6.721,6.515-.894,9.47-5.873,2.279-57.671-3.32-72.587,2a22.033,22.033,0,0,1-3.482-.268,9.547,9.547,0,0,1-3.391-2.045c-6.067-7.175-8-75.813-12.279-86.738-2.629-6.716-10.857-9.614-13.551-9.75-7.294-.37,6.861-8.485,16.973-8.511s61.755-5.714,69.471,13.546c4.372,10.914,5.676,60.1,10.329,73.938.667,1.987,1.41,3.243,2.248,3.548,4.662,1.7,2.372,5.131,6,3.664C586.985,392.206,586.644,393.159,586.583,393.987Z" transform="translate(-478.389 -297.342)" fill="#fff"/>
          <path id="Path_49482" data-name="Path 49482" d="M958.9,1470.59c12.54,4.671,3.91,17.664-1.618,17.6-6.3-.077-58.924,2.8-75.058-.842.76.172,4.672-.043,9.476-4.214,4.969-4.315,1.914-11.145-2.477-12.658C887.268,1469.8,958.1,1470.6,958.9,1470.59Z" transform="translate(-850.993 -1379.497)" fill="#8a95a8"/>
          <g id="Group_115017" data-name="Group 115017" transform="translate(25.489 23.767)" opacity="0.6">
            <rect id="Rectangle_1879" data-name="Rectangle 1879" width="58.228" height="2.394" fill="#8a95a8" opacity="0.75"/>
            <rect id="Rectangle_1880" data-name="Rectangle 1880" width="58.228" height="2.394" transform="translate(0.838 7.803)" fill="#8a95a8" opacity="0.75"/>
            <rect id="Rectangle_1881" data-name="Rectangle 1881" width="58.228" height="2.394" transform="translate(1.612 14.801)" fill="#8a95a8" opacity="0.75"/>
            <rect id="Rectangle_1882" data-name="Rectangle 1882" width="58.228" height="2.394" transform="translate(2.177 23.065)" fill="#8a95a8" opacity="0.75"/>
            <rect id="Rectangle_1883" data-name="Rectangle 1883" width="58.228" height="2.394" transform="translate(3.223 31.328)" fill="#8a95a8" opacity="0.75"/>
            <rect id="Rectangle_1884" data-name="Rectangle 1884" width="58.228" height="2.394" transform="translate(4.136 40.403)" fill="#8a95a8" opacity="0.75"/>
            <rect id="Rectangle_1885" data-name="Rectangle 1885" width="30.952" height="2.394" transform="translate(4.877 49.134)" fill="#8a95a8" opacity="0.75"/>
          </g>
          <rect id="Rectangle_1886" data-name="Rectangle 1886" width="6.204" height="4.571" transform="translate(67.174 22.57)" fill="#fff"/>
          <rect id="Rectangle_1887" data-name="Rectangle 1887" width="6.966" height="6.212" transform="translate(43.556 22.017)" fill="#fff"/>
          <rect id="Rectangle_1888" data-name="Rectangle 1888" width="7.347" height="3.813" transform="translate(56.78 31.059)" fill="#fff"/>
          <rect id="Rectangle_1889" data-name="Rectangle 1889" width="3.918" height="4.901" transform="translate(76.425 37.698)" fill="#fff"/>
          <rect id="Rectangle_1890" data-name="Rectangle 1890" width="7.945" height="5.25" transform="translate(39.856 37.154)" fill="#fff"/>
          <rect id="Rectangle_1891" data-name="Rectangle 1891" width="3.223" height="4.4" transform="translate(54.603 45.752)" fill="#fff"/>
          <rect id="Rectangle_1892" data-name="Rectangle 1892" width="3.559" height="4.4" transform="translate(72.072 45.752)" fill="#fff"/>
          <rect id="Rectangle_1893" data-name="Rectangle 1893" width="14.002" height="6.748" transform="translate(73.851 52.173)" fill="#fff"/>
          <rect id="Rectangle_1894" data-name="Rectangle 1894" width="8.325" height="4.901" transform="translate(80.343 37.698)" fill="#fff"/>
          <rect id="Rectangle_1895" data-name="Rectangle 1895" width="9.469" height="4.136" transform="translate(78.384 63.71)" fill="#fff"/>
          <rect id="Rectangle_1896" data-name="Rectangle 1896" width="5.986" height="5.986" transform="translate(39.856 61.86)" fill="#fff"/>
        </g>
        <path id="Path_49483" data-name="Path 49483" d="M1605.909,1024.644c-.749.327-.676,1.075-1.513,1.406a8.468,8.468,0,0,0-3.4,2.089,2.082,2.082,0,0,1-3.576-.533c-.371-1.011,2.448-2.226,2.868-2.646.334-.335-.554-.492-.357-1.193s1.372.568,2.525.09a9.782,9.782,0,0,1,2.856-.546C1605.779,1023.284,1605.909,1024.644,1605.909,1024.644Z" transform="translate(-1032.454 -669.824)" fill="#efaea6"/>
        <g id="Group_115019" data-name="Group 115019" transform="translate(591.143 328.158)">
          <path id="Path_49484" data-name="Path 49484" d="M1938.738,704.079l2.687-1.25c-.184-1.292-2-3.773-2.388-4.893a5.079,5.079,0,0,0-2.176-2.14l-.514,2.81.1.213a10.018,10.018,0,0,1,.352,3.261,6.915,6.915,0,0,1-.326,2.437C1936.115,705.256,1938.738,704.079,1938.738,704.079Z" transform="translate(-1936.346 -695.797)" fill="#efaea6"/>
          <path id="Path_49485" data-name="Path 49485" d="M1938.854,733.941a10.325,10.325,0,0,1,.305,2.281c1.878.514,2.482-1.629,1.961-2.051a12.944,12.944,0,0,0-1.449-.821Z" transform="translate(-1938.66 -730.446)" fill="#1f1f3b" opacity="0.14"/>
        </g>
        <path id="Path_49486" data-name="Path 49486" d="M1871.112,1677.726c-.124-1.27-.031-4.488-.031-4.488l3.39-.122-.182,4.832-2.241,1.536Z" transform="translate(-1284.955 -1269.375)" fill="#fff"/>
        <path id="Path_49487" data-name="Path 49487" d="M1794.575,1717.5c-.286-.226-.923.568-1.054,1.1-.3,1.221-4.083,1.376-4.757,1.486a1.049,1.049,0,0,0,.823,1.844c1.5-.007,6.292-.01,7.93-.028a.752.752,0,0,0,.724-.565c.294-1.179.331-3.945-.126-3.984C1797.5,1717.5,1795.665,1718.361,1794.575,1717.5Z" transform="translate(-1208.692 -1310.191)" fill="#121d30"/>
        <path id="Path_49488" data-name="Path 49488" d="M2039.406,1677.781c-.131-1.269-.057-4.487-.057-4.487l3.39-.141-.155,4.832-2.232,1.549Z" transform="translate(-1440.22 -1269.409)" fill="#fff"/>
        <path id="Path_49489" data-name="Path 49489" d="M1963.241,1711.39c-.365.024-.3.377-.425.912-.29,1.224-4.6,2.017-5.268,2.133a1.049,1.049,0,0,0,.839,1.836c1.5-.02,6.291-.065,7.929-.1a.752.752,0,0,0,.719-.572c.284-1.182.39-4.426-.067-4.46C1966.353,1711.29,1964.9,1711.279,1963.241,1711.39Z" transform="translate(-1364.429 -1304.46)" fill="#121d30"/>
        <path id="Path_49490" data-name="Path 49490" d="M1872.786,1047.933c-.043.574-.1,1.2-.178,1.884a159.82,159.82,0,0,0-.758,16.719c.151,5.471-.317,18.269-.317,20.23-1.605.729-2.6.5-4.893,0,0,0-.408-10.56-.86-19.8-.367-7.506-.473-6.754-1.805-16.312v0c-.015.044-.34.975-.813,2.408-1.011,3.058-2.7,8.4-3.512,12.27-1.263,6.036-.6,21.768-1.132,22.31-1.575.96-4.241,1.053-4.952-.28,0,0-.3-19.455.259-22.5.38-2.072,3.586-22.376,4.3-27.83,0,0,14.121-3.187,14.554,1.806a18.336,18.336,0,0,1,.068,1.86c-.011.775.03,1.494.071,2.281A36.015,36.015,0,0,1,1872.786,1047.933Z" transform="translate(-1268.749 -681.554)" fill="#121d30"/>
        <path id="Path_49491" data-name="Path 49491" d="M2004.72,1189.408a.045.045,0,0,0,0,.008.345.345,0,0,1-.039-.028A.325.325,0,0,1,2004.72,1189.408Z" transform="translate(-1408.251 -823.058)" fill="#1f1f3b" opacity="0.46"/>
        <path id="Path_49492" data-name="Path 49492" d="M1975.9,1195.419h0c-.015.044-.636,1.853-1.109,3.285l.555-5.777A13.246,13.246,0,0,0,1975.9,1195.419Z" transform="translate(-1380.674 -826.325)" fill="#1f1f3b" opacity="0.79"/>
        <path id="Path_49493" data-name="Path 49493" d="M2029.024,1122.328c-.117-.027-5.56-1.228-6.3-4.048,0,0,4.732.42,6.246.588C2029.04,1120.154,2029.071,1121.6,2029.024,1122.328Z" transform="translate(-1424.905 -757.448)" fill="#1f1f3b" opacity="0.35"/>
        <path id="Path_49494" data-name="Path 49494" d="M1914.249,760.617c-1.223-.344-1.343,1.748-2.576,1.849-.651.053-.507-.24-.815-.551-.189-.191-.367-.406-.666-.088-6.087,6.464.251,22.761-.523,23.9-.634.93,4.517,2.96,7.752,2.144,4.437-1.12,4.167-6.107,4.039-7.059s-2.987-17.141-2.987-17.141A24.248,24.248,0,0,1,1914.249,760.617Z" transform="translate(-1318.61 -427.411)" fill="#fff"/>
        <path id="Path_49495" data-name="Path 49495" d="M1664.2,795.29c.729-.325,8.975-3.939,9.893-5.378,1.578-2.473,5.453-10.479,11.428-13.185a17.4,17.4,0,0,1-.2,3.9c-.466,3.728,1.562,6.381,1.151,10.892-.532,5.835.856,11.794-.532,13.109-.809.766-1.93.914-3.284-.541-2.13-2.289-.73-9.8-.536-11.585.076-.695.242-1.63.385-2.6.177-1.206.514-2.641-.073-3.081-.168-.126-3.758,5.418-6.866,7.207-3.091,1.779-9.225,5.086-9.82,4.941S1663.47,795.615,1664.2,795.29Z" transform="translate(-1093.937 -442.31)" fill="#3dd0e2"/>
        <path id="Path_49496" data-name="Path 49496" d="M2000.751,790.1a4.757,4.757,0,0,1-6.227-.567c-1.415-1.543.017-3.54-1.03-7.139a47.063,47.063,0,0,1-1.676-8.063,105.913,105.913,0,0,1,.018-13.266,8.639,8.639,0,0,1,5.613,2.808c1.064,1.147,1.733,4.464,1.847,6.889.036.8.057,1.435.068,1.976.021,1.1,0,1.793-.038,2.548-.014.3-.028.612-.043.963h0c-.015.4-.031.846-.041,1.389a20.536,20.536,0,0,0,.635,3.964h0C2000.667,785.145,2001.79,789.431,2000.751,790.1Z" transform="translate(-1396.196 -427.863)" fill="#3dd0e2"/>
        <path id="Path_49497" data-name="Path 49497" d="M2008.99,790.18c6.8,11.541,9.136,12.694,9.719,13.1,1.56,1.077,9.671,2.087,10.355,2.087s1.268-3.008.855-3.289c-.484-.33-7.579-1.672-9.819-3.247-1.4-.982-6.654-11.126-7.515-12.158s-4.578-1.477-4.538.371A6.178,6.178,0,0,0,2008.99,790.18Z" transform="translate(-1411.359 -450.659)" fill="#3dd0e2"/>
        <path id="Path_49498" data-name="Path 49498" d="M2065.836,927.03c-2.555-2.364-2.734-8.348-2.734-8.348l2.14,2.994h0c-.015.4-.031.846-.041,1.389A20.522,20.522,0,0,0,2065.836,927.03Z" transform="translate(-1462.156 -573.287)" fill="#1f1f3b" opacity="0.18"/>
        <path id="Path_49499" data-name="Path 49499" d="M1961.33,784.2c.136-.045.657,2.556,2.01,3.745a3.813,3.813,0,0,0,1.273.766,77.252,77.252,0,0,0,7.9,1.362c-.278-.663-.9-1.212-1.2-2.007a30.6,30.6,0,0,1-6.143-.742,5.552,5.552,0,0,1-1.427-.857,9.269,9.269,0,0,1-1.838-2.114c-.224-.342-.158-.748-.51-.862C1960.927,783.334,1961.155,784.253,1961.33,784.2Z" transform="translate(-1368.059 -448.531)" fill="#1f1f3b" opacity="0.18"/>
        <path id="Path_49500" data-name="Path 49500" d="M1957.965,775.972a.58.58,0,0,1,.756-.383c.336.1.328.248.548.568a7.156,7.156,0,0,0,3.158,2.764c1.464.557,5.417-.531,7.521.536s2.263,3.249,5.349,4.6,6.9.892,7.808,1.3,1.428.77,1.307,1.141a1.924,1.924,0,0,1-1.493.965,42.918,42.918,0,0,1-8.214-1.652c-2.445-1-4.029-3.862-5.623-4.433s-5.272-.528-7.157-1.134c-2.1-.675-3.193-3.62-3.359-3.562a.6.6,0,0,1-.575-.025C1957.815,776.567,1957.9,776.183,1957.965,775.972Z" transform="translate(-1365.076 -441.23)" fill="#121d30"/>
        <path id="Path_49501" data-name="Path 49501" d="M1603.6,1065.389a4.669,4.669,0,0,0,2.465,2.159c.332-.123.512-.919.512-.919Z" transform="translate(-1038.194 -708.648)" fill="#1f1f39" opacity="0.28"/>
        <path id="Path_49502" data-name="Path 49502" d="M1630.278,1032.84c.045-.3-2.012-1.8-1.909-1.933s.192-.934.023-.965a7.21,7.21,0,0,0-1.341.688s2.408,2.543,2.51,2.549A4.277,4.277,0,0,0,1630.278,1032.84Z" transform="translate(-1059.828 -675.942)" fill="#1f1f39" opacity="0.28"/>
        <g id="Group_115020" data-name="Group 115020" transform="translate(590.182 325.084)">
          <path id="Path_49503" data-name="Path 49503" d="M1925.036,685.349c-.231.993-1.6,2.754-.92,2.853s-.49,2.1.228,2.227c1.74.317,3.913-.491,4.263-1.3a16.757,16.757,0,0,0,.575-3.19Z" transform="translate(-1923.928 -683.083)" fill="#efaea6"/>
          <path id="Path_49504" data-name="Path 49504" d="M1927.319,659.55c-.561-.017-.6.111-.956-.134s.387-.678-.316-.9-1.487-.388-1.441-1.224c.067-1.21,1.1-.867,1.729-.632.407.151.646-.748,1.48-.584.654.129.521.5,1.1.643.35.085,1.128-.4,1.618.112.91.945-.089,1.792.639,2.764.85,1.134-1.764,2.9-1.994,2.6-.268-.343.342-1.3.062-1.584-.423-.432-.542-.035-1,.282-.485.339-1.275.246-.656-.455S1927.826,659.565,1927.319,659.55Z" transform="translate(-1924.552 -656.051)" fill="#191939"/>
        </g>
        <g id="Group_115023" data-name="Group 115023" transform="translate(523.03 326.171)">
          <path id="Path_49505" data-name="Path 49505" d="M1566.222,1016.569c.7.419.535,1.152,1.324,1.585a13.419,13.419,0,0,1,3.115,2.5c1.333,1.394,2.543.46,3.177-.764.5-.956-1.711-1.832-2.075-2.3-.29-.375.612-.418.5-1.138s-1.433.391-2.516-.228a9.775,9.775,0,0,0-2.765-.9C1566.521,1015.236,1566.222,1016.569,1566.222,1016.569Z" transform="translate(-1526.734 -988.621)" fill="#efaea6"/>
          <path id="Path_49506" data-name="Path 49506" d="M1397.672,1672.916c.055-1.375-.238-4.836-.238-4.836l-3.627.073.488,5.194,2.486,1.52Z" transform="translate(-1367.652 -1590.9)" fill="#efaea6"/>
          <path id="Path_49507" data-name="Path 49507" d="M1398.048,1722.785c.379-.1.226.269.375.843.341,1.312,5.12,1.278,5.842,1.386a1.132,1.132,0,0,1-.85,2c-1.6.017-6.727.09-8.479.1a.805.805,0,0,1-.783-.6c-.334-1.267-.276-3.243.212-3.292C1395.1,1722.975,1396.469,1723.188,1398.048,1722.785Z" transform="translate(-1367.777 -1641.359)" fill="#121d30"/>
          <g id="Group_115021" data-name="Group 115021" transform="translate(4.473 74.623)">
            <path id="Path_49508" data-name="Path 49508" d="M1132.061,1640.814c.523-1.272,1.434-4.624,1.434-4.624l-3.431-1.181-1.322,5.045,1.813,2.284Z" transform="translate(-1127.559 -1635.009)" fill="#efaea6"/>
            <path id="Path_49509" data-name="Path 49509" d="M1118.4,1693.706c.389.04.12.331.063.92-.129,1.35,4.37,2.965,5.011,3.315.331.181.26,2.207-1.485,1.588-1.509-.536-6.348-2.234-8-2.831a.808.808,0,0,1-.531-.832c.121-1.306.852-3.141,1.327-3.019C1115.568,1692.868,1116.782,1693.541,1118.4,1693.706Z" transform="translate(-1113.462 -1688.37)" fill="#121d30"/>
          </g>
          <path id="Path_49510" data-name="Path 49510" d="M1141.624,1070.586c2.108,5.756,5.587,22.427,6.028,25.437s3.614,22.7,3.488,23.7a35.036,35.036,0,0,1-4.9.863c-.436-2.508-2.149-19.159-3.934-23.411s-7.313-15.971-7.313-15.971c.69,6.559,2.244,17.019,1.31,19.165-1.738,4.792-6.036,17.706-6.036,17.706-2.256-.173-4.841-1.068-4.433-1.2a150,150,0,0,0,4.33-17.608c.375-3.27-3.893-29.6-3.893-29.6l12.359-.81Z" transform="translate(-1120.362 -1038.021)" fill="#121d30"/>
          <path id="Path_49511" data-name="Path 49511" d="M1225.316,1182.479c.131,1.884.481,3.865.7,6.047l-2.327-9.907A18.959,18.959,0,0,0,1225.316,1182.479Z" transform="translate(-1210.689 -1139.292)" fill="#1f1f39" opacity="0.62"/>
          <g id="Group_115022" data-name="Group 115022" transform="translate(10.809)">
            <path id="Path_49512" data-name="Path 49512" d="M1215.576,691.574a16.186,16.186,0,0,0,1.118,2.889c-.4.286-.409-.262-.219.881.276,1.661.323,2.976-1.735,1.831l.263,1.656-.349,2.37-3.191-.134c.578-2.086-1.4-8.284-.266-9.649S1215.394,690.936,1215.576,691.574Z" transform="translate(-1209.646 -689.107)" fill="#efaea6"/>
            <path id="Path_49513" data-name="Path 49513" d="M1199.239,676.268c-.88-.5-.384-1.906.51-1.163.752-.146.7-.216.566-.885s.448-.491.936-1.037,1.105-.917.495-1.606a8.307,8.307,0,0,1-.689-.729c-.254-.353-.425-1.086-.99-.551s-.388,1.023-1.294.356-1.862-.537-2.064.628c-.233,1.346-.808.32-1.158,1.615-.627,2.323.809,2.066.837,3.342s.64,2.523,1.588,2.346S1199.344,676.926,1199.239,676.268Z" transform="translate(-1195.393 -670.107)" fill="#6d3522"/>
            <path id="Path_49514" data-name="Path 49514" d="M1243.235,769.439c-.61-.559-.89-.45-1.026-.287-1.229,1.46.2,1.556.772,2.375s.448-.779.448-.779Z" transform="translate(-1238.141 -761.37)" fill="#1f1f39" opacity="0.16"/>
          </g>
          <path id="Path_49515" data-name="Path 49515" d="M1131.986,793.48c.775-.317,4.837-.867,6.726.243a20.306,20.306,0,0,1,4.254,2.841,96.924,96.924,0,0,1,7.088,7.428c1.149,1.305,13.013,6.407,13.013,6.407a8.608,8.608,0,0,1-1.639,3.784c-1.2-.256-6.109-3.051-12.373-5.544-3.472-1.381-7.846-7.719-8.172-6.208-.029,3.769-1.017,5.879.621,13.686-4.212,3.89-15.508,2.66-15.806.276s1.178-16.26,1.768-17.954C1128.238,796.232,1131.21,793.8,1131.986,793.48Z" transform="translate(-1120.244 -783.551)" fill="#3dd1e2"/>
          <path id="Path_49516" data-name="Path 49516" d="M1296.573,910.528c-.024,3.3-.955,6.111.316,12.133-.162,0-.487-.915-.714-1.3-.931-1.573-2.027-8.972-1.724-9.6s.652-.9,2.283-1.549C1296.643,910.267,1296.592,910.44,1296.573,910.528Z" transform="translate(-1275.933 -891.649)" fill="#1f1f39" opacity="0.28"/>
        </g>
        <g id="Group_115024" data-name="Group 115024" transform="translate(609.499 319.18)">
          <path id="Path_49518" data-name="Path 49518" d="M2353.677,595.839c.075-.308.137-.631.189-.964.6-3.806-.15-8.941.429-9.31a4.545,4.545,0,0,0,.9-.942c.252-.319.524-.693.8-1.089h0c.532-.758,1.084-1.6,1.553-2.3h0a12.459,12.459,0,0,1,1.061-1.457.255.255,0,0,1,.08-.057.144.144,0,0,1,.149.036c.537.478.591,4.693.835,6.1.249,1.434-1.19,5.618-2.185,9.715-.065.268-.129.536-.19.8,0,0-.317.086-.765.174a10.086,10.086,0,0,1-1.26.173,4.34,4.34,0,0,1-.744-.009C2353.945,596.649,2353.539,596.412,2353.677,595.839Z" transform="translate(-2339.733 -579.716)" fill="#c4c0c0"/>
          <path id="Path_49519" data-name="Path 49519" d="M2173.829,1038.572a2.354,2.354,0,0,1-.087-1.182l10.154-56.158.166-.915a2.363,2.363,0,0,1,2.649-1.922l.1.015a2.367,2.367,0,0,1,1.706,1.292,2.349,2.349,0,0,1,.2,1.457l-.165.915L2178.4,1038.23a2.366,2.366,0,0,1-2.5,1.938,2.257,2.257,0,0,1-.245-.031,2.37,2.37,0,0,1-1.255-.657A2.389,2.389,0,0,1,2173.829,1038.572Z" transform="translate(-2173.703 -947.541)" fill="#121d30"/>
          <path id="Path_49520" data-name="Path 49520" d="M2309.9,789.225l0-.015,2.236-12.365a1.566,1.566,0,0,1,1.822-1.263l.5.09,2.071.375a1.567,1.567,0,0,1,1.264,1.822l-2.236,12.365,0,.015a1.567,1.567,0,0,1-1.822,1.263l-1.286-.232-1.012-.183-.275-.05A1.568,1.568,0,0,1,2309.9,789.225Z" transform="translate(-2299.345 -760.411)" fill="#121d30"/>
          <circle id="Ellipse_4737" data-name="Ellipse 4737" cx="0.564" cy="0.564" r="0.564" transform="matrix(0.751, -0.661, 0.661, 0.751, 17.081, 6.283)" fill="#3b3b4c"/>
          <path id="Path_49521" data-name="Path 49521" d="M2403.2,585.78a26.072,26.072,0,0,0,1.1-5.816,1.183,1.183,0,0,1,.03-.183.255.255,0,0,1,.08-.057.143.143,0,0,1,.149.036c0,.022,0,.046,0,.071a27.968,27.968,0,0,1-1.037,6.031C2403.408,586.088,2403.184,585.841,2403.2,585.78Z" transform="translate(-2385.453 -579.716)" fill="#3b3b4c"/>
          <path id="Path_49522" data-name="Path 49522" d="M2173.742,728.116l10.154-56.158a1.167,1.167,0,0,1-.479-1.933,1.626,1.626,0,0,1,.845-2.957L2186.5,654.7a1.569,1.569,0,0,1,1.337-1.276c.6-3.806-.149-8.941.429-9.31a4.539,4.539,0,0,0,.9-.942,38.83,38.83,0,0,1-.343,10.354q-.144.879-.321,1.737-.126.623-.27,1.233c-.25,1.067-1.038,5.111-2.13,10.857q-.148.778-.3,1.6c-.015.077-.03.154-.044.232q-.068.355-.136.719l-.123.647q-.152.809-.312,1.65c-3.337,17.689-8.455,45.365-10.79,58.007a2.386,2.386,0,0,1-.565-.909A2.355,2.355,0,0,1,2173.742,728.116Z" transform="translate(-2173.703 -638.267)" fill="#121d30" opacity="0.85"/>
          <path id="Path_49523" data-name="Path 49523" d="M2189.576,690.224c1.29-6.744,7.347-38.083,11.166-58.244q.16-.838.313-1.651c.04-.217.081-.432.121-.646q.092-.48.179-.948s0,0,0,0q.154-.816.3-1.6c1.213-6.439,2.064-11.066,2.233-12.246,0-.011,0-.021,0-.031.073-.518.14-1.054.2-1.6a83.63,83.63,0,0,0,.515-11.557h0c.532-.758,1.085-1.6,1.552-2.3.059,1.015.114,2.366.119,3.913h0c0,.111,0,.222,0,.336,0,.153,0,.308,0,.465,0,.216,0,.435-.008.657a49.378,49.378,0,0,1-.851,8.721q-.123.617-.272,1.219c-.007.032-.014.062-.023.094-.412,1.655-1.355,6.273-2.576,12.486q-.155.781-.313,1.594l-.026.135c-.053.269-.106.541-.159.815q-.064.321-.126.645-.158.812-.321,1.649c-3.879,19.953-9.574,50.391-11.065,58.374a2.368,2.368,0,0,1-.963-.285Z" transform="translate(-2188.349 -597.881)" fill="#fff" opacity="0.2"/>
          <path id="Path_49524" data-name="Path 49524" d="M2294.966,986.8a1.169,1.169,0,0,1,1.358-.942l.3.055.858.155,2.9.524.3.055a1.169,1.169,0,0,1-.416,2.3l-3.219-.583-1.143-.206a1.114,1.114,0,0,1-.145-.036A1.17,1.17,0,0,1,2294.966,986.8Z" transform="translate(-2285.57 -954.427)" fill="#2a2a3f"/>
          <path id="Path_49525" data-name="Path 49525" d="M2290.344,953.42a1.626,1.626,0,0,1,1.515-1.334,1.592,1.592,0,0,1,.373.024l1.466.265,3.461.626a1.625,1.625,0,0,1,.234,3.138c-.039.013-.08.025-.12.036a1.614,1.614,0,0,1-.693.025l-.252-.045-3.237-.585-1.186-.215-.252-.045a1.624,1.624,0,0,1-1.309-1.889Z" transform="translate(-2281.299 -923.286)" fill="#242433"/>
        </g>
        <g id="Group_115025" data-name="Group 115025" transform="translate(502.004 309.154)">
          <path id="Path_49526" data-name="Path 49526" d="M786.011,452.541c-1.7-.038-.631,3.96,1.029,3.869.522.144.76-.764,1.135-.028,1,1.975-1.859,1.875-2.886.709-1.818-1.812-2.35-6.091.149-6.062C787.127,450.836,788.208,453.651,786.011,452.541Z" transform="translate(-783.742 -450.947)" fill="#121d30"/>
          <path id="Path_49527" data-name="Path 49527" d="M838.208,455.8c-1.437-4.45,4.029-4.449,4.8,0C844.466,460.269,838.978,460.263,838.208,455.8Zm1.366,0c.389,2.5,2.923,2.5,2.072,0C841.262,453.317,838.729,453.316,839.574,455.8Z" transform="translate(-833.775 -452.28)" fill="#121d30"/>
          <path id="Path_49528" data-name="Path 49528" d="M909.3,457.991c-1.521,1.522-2.94-2.513-3.839-3.846.071.66.44,1.624.581,2.369l.413,1.661c-.356.1-1.019.274-1.311-.326-.067.138-1.434-5.693-1.484-5.793.236-.652,1.348-.6,1.8.256,2.777,4.672,1.98,3.677,1.007-.59C908.466,450.44,908.7,457.021,909.3,457.991Z" transform="translate(-894.387 -451.441)" fill="#121d30"/>
          <path id="Path_49529" data-name="Path 49529" d="M966.684,454.311c-.316-.464-.66-1.528-.047-1.533.188.153,3.54-.351,3.487.319.615,1.168-.2,1.322-.974,1.212-.1.115,1.642,5.383.984,5.017-1.7.765-1.807-4.1-2.312-5.016Z" transform="translate(-952.179 -452.532)" fill="#121d30"/>
          <path id="Path_49530" data-name="Path 49530" d="M1029.307,454.739l.511,2.058A1.029,1.029,0,0,1,1028.3,456c-.545-3.029-3.133-7.735,1.937-5.222,2.193,2.255-.4,3.176,2,5.369.094,1.043-1.063.964-1.533.033l-1-1.446Zm.124-1.426c1.108-.123.053-2.136-.885-1.607l.4,1.607Z" transform="translate(-1008.332 -450.07)" fill="#121d30"/>
          <path id="Path_49531" data-name="Path 49531" d="M1097.431,451.929c1.669-1.334,2.632,1.482,3.366,3.166.338,1.12,2.259,3.64.358,3.2-.5-.14-.683-.98-.909-1.414h-1.373c.448,1.229-.623,2.233-1.324.751C1097.359,455.775,1097.43,453.735,1097.431,451.929Zm1.254,1.382c.173,1.1-.543,2.445.99,2.122A19.077,19.077,0,0,0,1098.685,453.311Z" transform="translate(-1073.158 -451.464)" fill="#121d30"/>
          <path id="Path_49532" data-name="Path 49532" d="M1152.306,452.3c-1.7-.038-.631,3.96,1.029,3.869.522.144.76-.764,1.135-.028,1,1.975-1.859,1.875-2.886.71-1.818-1.812-2.35-6.091.149-6.062C1153.421,450.591,1154.5,453.406,1152.306,452.3Z" transform="translate(-1121.708 -450.721)" fill="#121d30"/>
          <path id="Path_49533" data-name="Path 49533" d="M1199.728,454.155c-.316-.464-.66-1.528-.047-1.533.188.153,3.54-.351,3.487.319.615,1.168-.2,1.322-.974,1.212-.1.115,1.642,5.383.984,5.016-1.7.765-1.806-4.1-2.312-5.016Z" transform="translate(-1167.2 -452.388)" fill="#121d30"/>
        </g>
      </g>
    </g>
  </g>
</svg>
