<svg xmlns="http://www.w3.org/2000/svg" width="73" height="73" viewBox="0 0 73 73">
  <g id="Group_165172" data-name="Group 165172" transform="translate(-1142 -6166)">
    <g id="agile_3_" data-name="agile (3)" transform="translate(1142 6119.993)">
      <path id="Path_22979" data-name="Path 22979" d="M316.774,322.422h-8.689a27.98,27.98,0,0,1-8.643,8.557h17.329v6.414L329.746,326.7l-12.975-10.694Z" transform="translate(-256.746 -231.503)" fill="#121d30"/>
      <path id="Path_22980" data-name="Path 22980" d="M28.109,99.468a23.517,23.517,0,0,0,1.977-46.937V46.007L17.253,56.7,30.086,67.392V61.2a14.939,14.939,0,0,1-2.138,29.726H0v8.555H28.119S28.113,99.471,28.109,99.468Z" transform="translate(0 0)" fill="#3dd0e2"/>
      <path id="Path_22981" data-name="Path 22981" d="M44.082,160.4a14.875,14.875,0,0,1,1.676-22.771l-6.721-5.6A23.281,23.281,0,0,0,33.646,160.4Z" transform="translate(-26.58 -73.756)" fill="#121d30"/>
    </g>
    <rect id="Rectangle_1901" data-name="Rectangle 1901" width="73" height="73" transform="translate(1142 6166)" fill="none"/>
  </g>
</svg>
