<svg xmlns="http://www.w3.org/2000/svg" width="72" height="72" viewBox="0 0 72 72">
  <g id="Group_15338" data-name="Group 15338" transform="translate(-471 -2279)">
    <rect id="Rectangle_1861" data-name="Rectangle 1861" width="72" height="72" transform="translate(471 2279)" fill="none"/>
    <g id="g10" transform="translate(284.154 2915.719)">
      <g id="g12" transform="translate(188.846 -636.719)">
        <path id="path14" d="M222.723-636.719,188.846-624.8l5.359,44.385,28.559,15.7,28.7-15.9L256.816-625Z" transform="translate(-188.846 636.719)" fill="#b3b3b3"/>
        <path id="path16" d="M386.653-607.564l-30.794-10.5v64.478l25.8-14.282Z" transform="translate(-322.061 621.84)" fill="#af2b2d"/>
        <path id="path18" d="M207.631-607.379l4.586,39.694,25.409,14.093v-64.479Z" transform="translate(-203.83 621.844)" fill="#df2e31"/>
        <path id="path20" d="M280.438-576.766l-7.082-14.789-6.235,14.789Zm2.7,6.219H264.367l-4.2,10.5-7.812.144L273.3-606.5l21.676,46.6h-7.24Z" transform="translate(-239.503 612.611)" fill="#f2f2f2"/>
        <path id="path22" d="M355.859-606.495l.056,14.94,7.075,14.8h-7.114l-.017,6.2,9.837.009,4.6,10.65,7.475.139Z" transform="translate(-322.061 612.611)" fill="#b3b3b3"/>
      </g>
    </g>
  </g>
</svg>
