<svg xmlns="http://www.w3.org/2000/svg" width="217" height="217" viewBox="0 0 217 217">
  <g id="Group_165163" data-name="Group 165163" transform="translate(-3169 -5684)">
    <rect id="Rectangle_1875" data-name="Rectangle 1875" width="216" height="216" rx="20" transform="translate(3169.5 5684.5)" fill="#fff" stroke="#d6dce6" stroke-width="1"/>
    <g id="Group_165162" data-name="Group 165162">
      <text id="Pune" transform="translate(3277 5857)" fill="#1a1b22" font-size="20" font-family="Gilroy-Semibold, Gilroy" font-weight="600"><tspan x="-23" y="0">Pune</tspan></text>
      <g id="Group_165161" data-name="Group 165161" transform="translate(298 -98)">
        <rect id="Rectangle_1900" data-name="Rectangle 1900" width="100" height="100" transform="translate(2929 5820)" fill="none"/>
        <path id="shaniwar-wada" d="M34.5,17.98a.5.5,0,0,0-.447.276L32.19,21.98H30.5a.5.5,0,0,0-.447.276l-3,6s0,.01,0,.014a.485.485,0,0,0-.051.209v2a.5.5,0,0,0,.5.5H29v7.548l-5.45-.545a.124.124,0,0,1-.02,0c-.01,0-.02-.005-.03-.005h-10c-.01,0-.02.005-.03.005l-.02,0-10,1a.5.5,0,0,0-.45.5V90H.746C.3,90,0,90.2,0,90.5s.3.5.746.5H99.254c.448,0,.746-.2.746-.5s-.3-.5-.746-.5H98V39.479a.5.5,0,0,0-.45-.5l-10-1a.124.124,0,0,1-.02,0c-.01,0-.02-.005-.03-.005h-10c-.01,0-.02.005-.03.005l-.02,0L72,38.527V30.98h1.5a.5.5,0,0,0,.5-.5v-2c0-.007,0-.012,0-.018a.4.4,0,0,0-.016-.082.442.442,0,0,0-.029-.108s0-.01,0-.015l-3-6a.5.5,0,0,0-.447-.277H68.809l-1.862-3.723a.5.5,0,0,0-.447-.276h-32Zm.309,1H66.19l1.543,3.085a.492.492,0,0,0,.266.915h.191l.5,1H32.31l2.5-5Zm34.5,4h.882l2.5,5H68v-1h1.5a.5.5,0,0,0,.5-.5v-2a.485.485,0,0,0-.05-.21s0-.009,0-.013Zm-38.5,0h.882l-.638,1.276s0,.01,0,.014a.485.485,0,0,0-.051.209v2a.5.5,0,0,0,.5.5H33v1H28.309l2.5-5Zm1.191,2H69v1H32Zm2,2h4v4.148a3.087,3.087,0,0,0-1-.148A1.844,1.844,0,0,0,35,32.6v.375a.5.5,0,0,0,0,1v5H34v-12Zm5,0H62v6a.5.5,0,0,0,0,1v5H61l0-9a2.3,2.3,0,0,0-2.5-2,2.735,2.735,0,0,0-2,.81,2.874,2.874,0,0,0-4,0,2.874,2.874,0,0,0-4,0,2.874,2.874,0,0,0-4,0,2.736,2.736,0,0,0-2-.81,2.3,2.3,0,0,0-2.5,2v1a.5.5,0,0,0,0,1v7H39v-12Zm24,0h4v12H66v-6a.49.49,0,0,0-.037-.188A.5.5,0,0,0,66,32.6a1.845,1.845,0,0,0-2-1.625,2.33,2.33,0,0,0-1,.226Zm-35,2h5v1H28Zm14.5,0c.793,0,1.488.46,1.5.986l0,.014v1a.5.5,0,1,0,0,1v5H41v-5a.5.5,0,0,0,0-1v-1C41,29.448,41.7,28.98,42.5,28.98Zm4,0c.793,0,1.488.46,1.5.986l0,.014v1a.5.5,0,0,0,0,1v5H45l0-5a.5.5,0,0,0,0-1v-1l0-.014C45.014,29.44,45.709,28.98,46.5,28.98Zm4,0c.793,0,1.488.46,1.5.986l0,.014v1a.5.5,0,0,0,0,1v5H49l0-5a.5.5,0,0,0,0-1v-1l0-.014C49.014,29.44,49.709,28.98,50.5,28.98Zm4,0c.793,0,1.488.46,1.5.986l0,.014v1a.5.5,0,0,0,0,1v5H53l0-5a.5.5,0,0,0,0-1v-1l0-.014C53.014,29.44,53.709,28.98,54.5,28.98Zm4,0c.8,0,1.5.469,1.5,1v1.007a.488.488,0,0,0-.356.143.472.472,0,0,0-.148.35.467.467,0,0,0,.148.35.475.475,0,0,0,.352.15h0l0,5H57l0-5a.5.5,0,0,0,0-1v-1l0-.014c.012-.526.707-.986,1.5-.986Zm9.5,0h5v1H68Zm-38,2h3v7.949l-3-.3V30.98Zm38,0h3v7.648l-3,.3Zm-31,1c.481,0,1,.121,1,.39V33a.472.472,0,0,0-.5.479.467.467,0,0,0,.148.35.372.372,0,0,0,.16.11.406.406,0,0,0,.19.04v3H36v-3a.5.5,0,1,0,0-1V32.6c0-.295.428-.625,1-.625Zm27,0c.572,0,1,.33,1,.625a.487.487,0,0,0,.037.187A.49.49,0,0,0,65,32.98V33a.465.465,0,0,0-.35.129.472.472,0,0,0-.148.35.467.467,0,0,0,.148.35.372.372,0,0,0,.16.11.406.406,0,0,0,.19.04v3H63v-3a.5.5,0,0,0,0-1V32.6c0-.295.428-.625,1-.625Zm-28,6h2v1H36Zm5,0h3v1H41Zm4,0h3v1H45Zm4,0h3v1H49Zm4,0h3v1H53Zm4,0h3v1H57Zm6,0h2v1H63Zm-49,1h9v2H14Zm64,0h9v2H78Zm-65,.052V40.98H4V39.933l9-.9Zm11,0,9,.9V40.98H24V39.03Zm53,0V40.98H68V39.933l9-.9Zm11,0,9,.9V40.98H88V39.03ZM34,39.98h3v1H34Zm4,0H63v2H38Zm26,0h3v1H64Zm-60,2h9v9H4Zm10,0h9v9H14Zm10,0h9v9H24Zm10,0h3v.5a.5.5,0,0,0,.5.5H38V51H34V41.979Zm30,0h3V51H63V42.979h.5a.5.5,0,0,0,.5-.5v-.5Zm4,0h9v9H68Zm10,0h9v9H78Zm10,0h9v9H88Zm-49,1H62v2H39Zm-30.5,1A1.5,1.5,0,0,0,7,45.48v3a.5.5,0,0,0,.5.5h2a.5.5,0,0,0,.5-.5v-3A1.5,1.5,0,0,0,8.5,43.98Zm10,0a1.5,1.5,0,0,0-1.5,1.5v3a.5.5,0,0,0,.5.5h2a.5.5,0,0,0,.5-.5v-3A1.5,1.5,0,0,0,18.5,43.98Zm10,0a1.5,1.5,0,0,0-1.5,1.5v3a.5.5,0,0,0,.5.5h2a.5.5,0,0,0,.5-.5v-3A1.5,1.5,0,0,0,28.5,43.98Zm44,0a1.5,1.5,0,0,0-1.5,1.5v3a.5.5,0,0,0,.5.5h2a.5.5,0,0,0,.5-.5v-3A1.5,1.5,0,0,0,72.5,43.98Zm10,0a1.5,1.5,0,0,0-1.5,1.5v3a.5.5,0,0,0,.5.5h2a.5.5,0,0,0,.5-.5v-3A1.5,1.5,0,0,0,82.5,43.98Zm10,0a1.5,1.5,0,0,0-1.5,1.5v3a.5.5,0,0,0,.5.5h2a.5.5,0,0,0,.5-.5v-3A1.5,1.5,0,0,0,92.5,43.98ZM5.5,44a.5.5,0,0,0-.5.5v4a.5.5,0,1,0,1,0v-4A.5.5,0,0,0,5.5,44Zm6,0a.5.5,0,0,0-.5.5v4a.5.5,0,1,0,1,0v-4A.5.5,0,0,0,11.5,44Zm4,0a.5.5,0,0,0-.5.5v4a.5.5,0,0,0,1,0v-4A.5.5,0,0,0,15.5,44Zm6,0a.5.5,0,0,0-.5.5v4a.5.5,0,0,0,1,0v-4A.5.5,0,0,0,21.5,44Zm4,0a.5.5,0,0,0-.5.5v4a.5.5,0,1,0,1,0v-4A.5.5,0,0,0,25.5,44Zm6,0a.5.5,0,0,0-.5.5v4a.5.5,0,0,0,1,0v-4A.5.5,0,0,0,31.5,44Zm38,0a.5.5,0,0,0-.5.5v4a.5.5,0,1,0,1,0v-4A.5.5,0,0,0,69.5,44Zm6,0a.5.5,0,0,0-.5.5v4a.5.5,0,0,0,1,0v-4A.5.5,0,0,0,75.5,44Zm4,0a.5.5,0,0,0-.5.5v4a.5.5,0,1,0,1,0v-4A.5.5,0,0,0,79.5,44Zm6,0a.5.5,0,0,0-.5.5v4a.5.5,0,0,0,1,0v-4A.5.5,0,0,0,85.5,44Zm4,0a.5.5,0,0,0-.5.5v4a.5.5,0,0,0,1,0v-4A.5.5,0,0,0,89.5,44Zm6,0a.5.5,0,0,0-.5.5v4a.5.5,0,0,0,1,0v-4A.5.5,0,0,0,95.5,44Zm-87,.979a.5.5,0,0,1,.5.5v2.5H8v-2.5A.5.5,0,0,1,8.5,44.979Zm10,0a.5.5,0,0,1,.5.5v2.5H18v-2.5A.5.5,0,0,1,18.5,44.979Zm10,0a.5.5,0,0,1,.5.5v2.5H28v-2.5A.5.5,0,0,1,28.5,44.979Zm44,0a.5.5,0,0,1,.5.5v2.5H72v-2.5A.5.5,0,0,1,72.5,44.979Zm10,0a.5.5,0,0,1,.5.5v2.5H82v-2.5A.5.5,0,0,1,82.5,44.979Zm10,0a.5.5,0,0,1,.5.5v2.5H92v-2.5A.5.5,0,0,1,92.5,44.979Zm-53.5,1H62v1.513a2.467,2.467,0,0,0-3.5.5,2.478,2.478,0,0,0-4,0,2.478,2.478,0,0,0-4,0,2.478,2.478,0,0,0-4,0,2.478,2.478,0,0,0-4,0,2.466,2.466,0,0,0-3.5-.5V45.98Zm1.5,2a1.5,1.5,0,0,1,1.5,1.5v1.334a.486.486,0,0,0,.033.166H39v-1.5A1.5,1.5,0,0,1,40.5,47.979Zm4,0a1.5,1.5,0,0,1,1.5,1.5v1.334a.486.486,0,0,0,.033.166H42.967A.485.485,0,0,0,43,50.813V49.479a1.5,1.5,0,0,1,1.5-1.5Zm4,0a1.5,1.5,0,0,1,1.5,1.5v1.334a.486.486,0,0,0,.033.166H46.967A.485.485,0,0,0,47,50.813V49.479a1.5,1.5,0,0,1,1.5-1.5Zm4,0a1.5,1.5,0,0,1,1.5,1.5v1.334a.486.486,0,0,0,.033.166H50.967A.485.485,0,0,0,51,50.813V49.479a1.5,1.5,0,0,1,1.5-1.5Zm4,0a1.5,1.5,0,0,1,1.5,1.5v1.334a.486.486,0,0,0,.033.166H54.967A.485.485,0,0,0,55,50.813V49.479a1.5,1.5,0,0,1,1.5-1.5Zm4,0a1.5,1.5,0,0,1,1.5,1.5v1.5H58.967A.485.485,0,0,0,59,50.813V49.479A1.5,1.5,0,0,1,60.5,47.979Zm-56.5,4h9v1H4Zm10,0h9v1H14Zm10,0h9v1H24Zm15,0H62v1H39Zm29,0h9v1H68Zm10,0h9v1H78Zm10,0h9v1H88ZM34,52h4v.979H34Zm29,0h4v.979H63ZM4,53.979h9v36H4v-36Zm10,0h9v36H14v-36Zm10,0h9v36H24v-36Zm10,0h4v36H34v-36Zm5,0H62v36H60V75.055a8.533,8.533,0,0,0-4.188-7.326l-4.556-2.68a.5.5,0,0,0-.522.008l-4.763,3A8.448,8.448,0,0,0,42,75.248v14.73H39v-36Zm24,0h4v36H63v-36Zm5,0h9v36H68v-36Zm10,0h9v36H78v-36Zm10,0h9v36H88v-36ZM5.5,56a.5.5,0,0,0-.5.5v6a.5.5,0,1,0,1,0v-6A.5.5,0,0,0,5.5,56Zm3,0a.5.5,0,0,0-.5.5v6a.5.5,0,1,0,1,0v-6A.5.5,0,0,0,8.5,56Zm3,0a.5.5,0,0,0-.5.5v6a.5.5,0,1,0,1,0v-6A.5.5,0,0,0,11.5,56Zm4,0a.5.5,0,0,0-.5.5v6a.5.5,0,0,0,1,0v-6A.5.5,0,0,0,15.5,56Zm3,0a.5.5,0,0,0-.5.5v6a.5.5,0,0,0,1,0v-6A.5.5,0,0,0,18.5,56Zm3,0a.5.5,0,0,0-.5.5v6a.5.5,0,0,0,1,0v-6A.5.5,0,0,0,21.5,56Zm4,0a.5.5,0,0,0-.5.5v6a.5.5,0,1,0,1,0v-6A.5.5,0,0,0,25.5,56Zm3,0a.5.5,0,0,0-.5.5v6a.5.5,0,1,0,1,0v-6A.5.5,0,0,0,28.5,56Zm3,0a.5.5,0,0,0-.5.5v6a.5.5,0,0,0,1,0v-6A.5.5,0,0,0,31.5,56ZM36,56a.5.5,0,0,0-.5.5v6a.5.5,0,0,0,1,0v-6A.5.5,0,0,0,36,56Zm6.5,0a.5.5,0,0,0-.5.5v6a.5.5,0,0,0,1,0v-6A.5.5,0,0,0,42.5,56Zm4,0a.5.5,0,0,0-.5.5v6a.5.5,0,0,0,1,0v-6A.5.5,0,0,0,46.5,56Zm4,0a.5.5,0,0,0-.5.5v6a.5.5,0,1,0,1,0v-6A.5.5,0,0,0,50.5,56Zm4,0a.5.5,0,0,0-.5.5v6a.5.5,0,0,0,1,0v-6A.5.5,0,0,0,54.5,56Zm4,0a.5.5,0,0,0-.5.5v6a.5.5,0,0,0,1,0v-6A.5.5,0,0,0,58.5,56ZM65,56a.5.5,0,0,0-.5.5v6a.5.5,0,1,0,1,0v-6A.5.5,0,0,0,65,56Zm4.5,0a.5.5,0,0,0-.5.5v6a.5.5,0,1,0,1,0v-6A.5.5,0,0,0,69.5,56Zm3,0a.5.5,0,0,0-.5.5v6a.5.5,0,0,0,1,0v-6A.5.5,0,0,0,72.5,56Zm3,0a.5.5,0,0,0-.5.5v6a.5.5,0,0,0,1,0v-6A.5.5,0,0,0,75.5,56Zm4,0a.5.5,0,0,0-.5.5v6a.5.5,0,1,0,1,0v-6A.5.5,0,0,0,79.5,56Zm3,0a.5.5,0,0,0-.5.5v6a.5.5,0,1,0,1,0v-6A.5.5,0,0,0,82.5,56Zm3,0a.5.5,0,0,0-.5.5v6a.5.5,0,1,0,1,0v-6A.5.5,0,0,0,85.5,56Zm4,0a.5.5,0,0,0-.5.5v6a.5.5,0,1,0,1,0v-6A.5.5,0,0,0,89.5,56Zm3,0a.5.5,0,0,0-.5.5v6a.5.5,0,1,0,1,0v-6A.5.5,0,0,0,92.5,56Zm3,0a.5.5,0,0,0-.5.5v6a.5.5,0,1,0,1,0v-6A.5.5,0,0,0,95.5,56Zm-51,7.979a1.5,1.5,0,1,0,1.5,1.5,1.5,1.5,0,0,0-1.5-1.5Zm12,0a1.5,1.5,0,1,0,1.5,1.5,1.5,1.5,0,0,0-1.5-1.5Zm-12,1a.5.5,0,1,1-.5.5A.5.5,0,0,1,44.5,64.979Zm12,0a.5.5,0,1,1-.5.5A.5.5,0,0,1,56.5,64.979Zm-5.49,1.085L55.3,68.59A7.531,7.531,0,0,1,59,75.055V89.979H57V75.107a5.7,5.7,0,0,0-2.8-4.893L51.254,68.48h0l-.262-.154-.258.162L47.65,70.43a5.645,5.645,0,0,0-2.65,4.8V89.98H43V75.248A7.46,7.46,0,0,1,46.5,68.9Zm.49,3.721,2.193,1.291a4.644,4.644,0,0,1,1.09.9H51.5V69.785Zm-1,.031v2.163H47.32a4.7,4.7,0,0,1,.864-.7L50.5,69.816Zm4.967,3.145a4.694,4.694,0,0,1,.492,1.535,4.556,4.556,0,0,1,.033.483H51.5v-2h3.875a.483.483,0,0,0,.092-.018Zm-8.889.008h0c.016,0,.03.01.045.01H50.5v2H46.016A4.667,4.667,0,0,1,46.578,72.969ZM46,75.979h4.5v2H46Zm5.5,0H56v2H51.5Zm-5.5,3h4.5v2H46Zm5.5,0H56v2H51.5Zm-5.5,3h4.5v2H46Zm5.5,0H56v2H51.5Zm-5.5,3h4.5v2H46Zm5.5,0H56v2H51.5Zm-5.5,3h4.5v2H46Zm5.5,0H56v2H51.5Z" transform="translate(2929 5829.02)" fill="#54566e"/>
      </g>
    </g>
  </g>
</svg>
