<svg xmlns="http://www.w3.org/2000/svg" xmlns:xlink="http://www.w3.org/1999/xlink" width="72" height="72" viewBox="0 0 72 72">
  <defs>
    <linearGradient id="linear-gradient" x1="0.5" y1="-0.195" x2="0.5" y2="1.296" gradientUnits="objectBoundingBox">
      <stop offset="0" stop-color="#0994dc"/>
      <stop offset="0.35" stop-color="#66cef5"/>
      <stop offset="0.846" stop-color="#127bca"/>
      <stop offset="1" stop-color="#127bca"/>
    </linearGradient>
    <linearGradient id="linear-gradient-2" x1="0.5" y1="-0.195" x2="0.5" y2="1.296" gradientUnits="objectBoundingBox">
      <stop offset="0" stop-color="#0e76bc"/>
      <stop offset="0.36" stop-color="#36aee8"/>
      <stop offset="0.846" stop-color="#00adef"/>
      <stop offset="1" stop-color="#00adef"/>
    </linearGradient>
    <linearGradient id="linear-gradient-3" x1="0.5" y1="1.109" x2="0.5" y2="-0.062" gradientUnits="objectBoundingBox">
      <stop offset="0" stop-color="#1c63b7"/>
      <stop offset="0.5" stop-color="#33bdf2"/>
      <stop offset="1" stop-color="#33bdf2" stop-opacity="0.42"/>
    </linearGradient>
    <linearGradient id="linear-gradient-4" x1="0.5" y1="-0.195" x2="0.5" y2="1.296" gradientUnits="objectBoundingBox">
      <stop offset="0" stop-color="#166ab8"/>
      <stop offset="0.4" stop-color="#36aee8"/>
      <stop offset="0.846" stop-color="#0798dd"/>
      <stop offset="1" stop-color="#0798dd"/>
    </linearGradient>
    <linearGradient id="linear-gradient-5" x1="0.5" y1="-0.195" x2="0.5" y2="1.296" gradientUnits="objectBoundingBox">
      <stop offset="0" stop-color="#124379"/>
      <stop offset="0.39" stop-color="#1487cb"/>
      <stop offset="0.78" stop-color="#165197"/>
      <stop offset="1" stop-color="#165197"/>
    </linearGradient>
    <linearGradient id="linear-gradient-6" y1="0.5" x2="1" y2="0.5" gradientUnits="objectBoundingBox">
      <stop offset="0" stop-color="#33bdf2" stop-opacity="0.698"/>
      <stop offset="1" stop-color="#1dacd8"/>
    </linearGradient>
    <linearGradient id="linear-gradient-7" x1="0.5" y1="0.947" x2="0.5" y2="-0.03" gradientUnits="objectBoundingBox">
      <stop offset="0" stop-color="#136ab4"/>
      <stop offset="0.6" stop-color="#59caf5" stop-opacity="0.549"/>
      <stop offset="1" stop-color="#59caf5" stop-opacity="0.235"/>
    </linearGradient>
    <linearGradient id="linear-gradient-8" y1="0.5" x2="1" y2="0.5" gradientUnits="objectBoundingBox">
      <stop offset="0" stop-color="#05a1e6" stop-opacity="0.247"/>
      <stop offset="1" stop-color="#05a1e6"/>
    </linearGradient>
    <linearGradient id="linear-gradient-9" x1="0.5" y1="1.243" x2="0.5" y2="-0.094" gradientUnits="objectBoundingBox">
      <stop offset="0" stop-color="#318ed5"/>
      <stop offset="1" stop-color="#38a7e4"/>
    </linearGradient>
    <linearGradient id="linear-gradient-10" x1="0.5" y1="0.912" x2="0.5" y2="-0.768" gradientUnits="objectBoundingBox">
      <stop offset="0" stop-color="#05a1e6"/>
      <stop offset="1" stop-color="#05a1e6" stop-opacity="0.549"/>
    </linearGradient>
    <linearGradient id="linear-gradient-11" x1="0.5" y1="1" x2="0.5" gradientUnits="objectBoundingBox">
      <stop offset="0" stop-color="#1959a6"/>
      <stop offset="0.5" stop-color="#05a1e6"/>
      <stop offset="0.918" stop-color="#7ec5ea"/>
      <stop offset="1" stop-color="#7ec5ea"/>
    </linearGradient>
    <linearGradient id="linear-gradient-12" x1="0.598" y1="0.946" x2="0.385" y2="0.058" gradientUnits="objectBoundingBox">
      <stop offset="0" stop-color="#165096"/>
      <stop offset="1" stop-color="#0d82ca"/>
    </linearGradient>
    <linearGradient id="linear-gradient-13" x1="0.5" y1="0.77" x2="0.5" y2="-0.033" gradientUnits="objectBoundingBox">
      <stop offset="0" stop-color="#05a1e6"/>
      <stop offset="0.874" stop-color="#0495d6"/>
      <stop offset="1" stop-color="#0495d6"/>
    </linearGradient>
    <linearGradient id="linear-gradient-14" x1="0.653" y1="-0.042" x2="0.343" y2="1.058" gradientUnits="objectBoundingBox">
      <stop offset="0" stop-color="#38a7e4" stop-opacity="0.329"/>
      <stop offset="0.962" stop-color="#0e88d3"/>
      <stop offset="1" stop-color="#0e88d3"/>
    </linearGradient>
    <linearGradient id="linear-gradient-15" x1="0.5" y1="-0.003" x2="0.5" y2="1.019" gradientUnits="objectBoundingBox">
      <stop offset="0" stop-color="#168cd4"/>
      <stop offset="0.5" stop-color="#1c87cc"/>
      <stop offset="1" stop-color="#154b8d"/>
    </linearGradient>
    <linearGradient id="linear-gradient-16" x1="0.167" y1="-1.056" x2="0.878" y2="1.198" gradientUnits="objectBoundingBox">
      <stop offset="0" stop-color="#97d6ee"/>
      <stop offset="0.703" stop-color="#55c1ea"/>
      <stop offset="1" stop-color="#55c1ea"/>
    </linearGradient>
    <linearGradient id="linear-gradient-17" x1="0.069" y1="0.937" x2="0.758" y2="-0.168" gradientUnits="objectBoundingBox">
      <stop offset="0" stop-color="#7accec"/>
      <stop offset="1" stop-color="#3fb7ed"/>
    </linearGradient>
    <linearGradient id="linear-gradient-18" x1="0.5" y1="0.064" x2="0.5" y2="1.28" gradientUnits="objectBoundingBox">
      <stop offset="0" stop-color="#1da7e7"/>
      <stop offset="1" stop-color="#37abe7" stop-opacity="0"/>
    </linearGradient>
  </defs>
  <g id="Group_15351" data-name="Group 15351" transform="translate(-700 -2364)">
    <rect id="Rectangle_1861" data-name="Rectangle 1861" width="72" height="72" transform="translate(700 2364)" fill="none"/>
    <g id="dotnet-logo-vector" transform="translate(699.186 2366.002)">
      <path id="Path_28664" data-name="Path 28664" d="M80.182,120.36a.323.323,0,0,0-.1-.261.635.635,0,0,0-.392-.094h-.261v.723h.318c.293,0,.438-.122.438-.363Zm.409,1.505H80.23l-.23-.508c-.116-.255-.242-.382-.378-.382h-.195v.89h-.3v-2.117h.6a.883.883,0,0,1,.6.178.507.507,0,0,1,.174.4.523.523,0,0,1-.142.371.716.716,0,0,1-.392.208v.009c.118.027.237.157.35.392l.278.563Zm.653-1.038a1.414,1.414,0,0,0-.426-1.045,1.479,1.479,0,1,0-1.045,2.523,1.456,1.456,0,0,0,1.468-1.477Zm.2-.009a1.577,1.577,0,0,1-.484,1.176,1.741,1.741,0,0,1-2.378.014,1.692,1.692,0,0,1,.008-2.352,1.732,1.732,0,0,1,2.368-.022,1.568,1.568,0,0,1,.487,1.184Zm-45.26,5.906H35.158V120.85c0-.464.03-1.028.085-1.7H35.22a5.572,5.572,0,0,1-.261.847l-2.984,6.722h-.5l-2.987-6.67a4.9,4.9,0,0,1-.261-.9H28.2c.031.35.048.915.048,1.707v5.862h-.989v-8.748h1.355l2.683,6.1a7.891,7.891,0,0,1,.392,1.045h.042c.175-.478.314-.836.418-1.073l2.744-6.074h1.285v8.747h0Zm3.157,0h-1v-6.247h1Zm.173-8.485a.626.626,0,0,1-.193.464.634.634,0,0,1-.465.189.646.646,0,0,1-.46-.183.656.656,0,1,1,.925-.93.617.617,0,0,1,.2.459Zm6.066,8.2a3.211,3.211,0,0,1-1.712.439,2.816,2.816,0,0,1-2.168-.891,3.152,3.152,0,0,1-.8-2.232,3.483,3.483,0,0,1,.883-2.483,3.079,3.079,0,0,1,2.369-.945,3.189,3.189,0,0,1,1.445.318v1.027a2.537,2.537,0,0,0-1.488-.49,2,2,0,0,0-1.555.665,2.58,2.58,0,0,0-.63,1.817,2.483,2.483,0,0,0,.578,1.726,1.986,1.986,0,0,0,1.545.634,2.521,2.521,0,0,0,1.537-.537v.95Zm4.771-4.944a1.337,1.337,0,0,0-1.788.346,2.744,2.744,0,0,0-.469,1.7v3.185h-1v-6.247h.994v1.289h.024a2.194,2.194,0,0,1,.677-1.056,1.5,1.5,0,0,1,.957-.341,1.626,1.626,0,0,1,.6.085v1.038Zm5.572,2.121a2.73,2.73,0,0,0-.541-1.83,1.847,1.847,0,0,0-1.47-.6,1.926,1.926,0,0,0-1.492.612,2.652,2.652,0,0,0-.592,1.847,2.525,2.525,0,0,0,.566,1.752,1.935,1.935,0,0,0,1.519.631,1.83,1.83,0,0,0,1.505-.64,2.744,2.744,0,0,0,.507-1.769m1.025-.035a3.368,3.368,0,0,1-.842,2.394,2.957,2.957,0,0,1-2.27.9,2.875,2.875,0,0,1-2.231-.9,3.253,3.253,0,0,1-.805-2.3,3.351,3.351,0,0,1,.915-2.52,3.105,3.105,0,0,1,2.267-.83,2.807,2.807,0,0,1,2.184.865,3.445,3.445,0,0,1,.784,2.388m4.958,1.477a1.624,1.624,0,0,1-.574,1.273,2.517,2.517,0,0,1-1.713.549,3.063,3.063,0,0,1-1.55-.376v-1.076a2.513,2.513,0,0,0,1.623.6q1.187,0,1.188-.873a.771.771,0,0,0-.261-.6,4.148,4.148,0,0,0-1.025-.575,3.282,3.282,0,0,1-1.116-.708,1.724,1.724,0,0,1,.22-2.422,2.381,2.381,0,0,1,1.586-.523,2.965,2.965,0,0,1,1.336.293v1.006a2.352,2.352,0,0,0-1.418-.446,1.227,1.227,0,0,0-.795.243.784.784,0,0,0-.3.63.835.835,0,0,0,.251.646,3.467,3.467,0,0,0,.937.523,3.613,3.613,0,0,1,1.154.693,1.541,1.541,0,0,1,.459,1.146m6.111-1.438a2.725,2.725,0,0,0-.542-1.83,1.844,1.844,0,0,0-1.47-.6,1.935,1.935,0,0,0-1.5.612,2.655,2.655,0,0,0-.589,1.847,2.54,2.54,0,0,0,.562,1.752,1.95,1.95,0,0,0,1.521.631,1.83,1.83,0,0,0,1.505-.64,2.744,2.744,0,0,0,.507-1.769m1.027-.035a3.366,3.366,0,0,1-.844,2.394,2.949,2.949,0,0,1-2.269.9,2.875,2.875,0,0,1-2.232-.9,3.254,3.254,0,0,1-.805-2.3,3.364,3.364,0,0,1,.915-2.52,3.109,3.109,0,0,1,2.269-.83,2.8,2.8,0,0,1,2.181.865,3.441,3.441,0,0,1,.784,2.388m4.405-5.227a1.339,1.339,0,0,0-.664-.165c-.7,0-1.045.44-1.045,1.324v.963h1.464v.847H71.744v5.4h-1v-5.4H69.68v-.847h1.062v-1.013a2.071,2.071,0,0,1,.639-1.615,1.916,1.916,0,0,1,1.349-.506,1.95,1.95,0,0,1,.724.108v.9Zm3.947,8.306a1.884,1.884,0,0,1-.94.2q-1.635,0-1.635-1.844v-3.694H73.754v-.848h1.072v-1.524c.319-.1.653-.21,1-.324v1.848H77.4v.848H75.828v3.528a1.428,1.428,0,0,0,.212.893.862.862,0,0,0,.715.261,1.06,1.06,0,0,0,.647-.2Z" transform="translate(-18.974 -84.141)"/>
      <g id="Group_31116" data-name="Group 31116" transform="translate(0.814 45.467)">
        <path id="Path_28665" data-name="Path 28665" d="M4.375,182.177a1.746,1.746,0,0,1-.523,1.27,1.733,1.733,0,0,1-1.281.536,1.663,1.663,0,0,1-1.247-.536,1.845,1.845,0,0,1,0-2.55,1.669,1.669,0,0,1,1.247-.523,1.728,1.728,0,0,1,1.281.534,1.749,1.749,0,0,1,.523,1.273m22.386,1.438H23.494L11.665,165.336a8.388,8.388,0,0,1-.717-1.438h-.1a23.806,23.806,0,0,1,.131,3.149v16.569H8.288V160.682h3.485l11.483,17.991c.457.714.77,1.226.928,1.533h.064a24.122,24.122,0,0,1-.162-3.372V160.682h2.672v22.934Zm17.233,0H31.841V160.682H43.472v2.431H34.526v7.629h8.285v2.432H34.525v8.012h9.469v2.432Zm18.437-20.5H55.825v20.5H53.138v-20.5H46.521v-2.432H62.433v2.432Z" transform="translate(-0.814 -160.682)"/>
      </g>
      <g id="Group_31117" data-name="Group 31117" transform="translate(0.858 -0.002)">
        <path id="Path_28666" data-name="Path 28666" d="M88.5,18.313c2.593,7.93,3.576,22.076,11.159,22.076a9.33,9.33,0,0,0,1.746-.169c-6.894-1.607-7.71-15.6-11.917-22.846q-.5.459-.988.937" transform="translate(-63.508 -12.457)" fill="url(#linear-gradient)"/>
        <path id="Path_28667" data-name="Path 28667" d="M91.992,15.464C96.2,22.71,97.016,36.7,103.909,38.31a10.934,10.934,0,0,0,1.628-.439c-6.188-3.032-7.9-16.619-12.676-23.161q-.442.369-.87.754" transform="translate(-66.012 -10.545)" fill="url(#linear-gradient-2)"/>
        <path id="Path_28668" data-name="Path 28668" d="M97.972,2.145a9.36,9.36,0,0,0-1.747.169,13.377,13.377,0,0,0-4.664,1.95A11.575,11.575,0,0,1,92.783,5.7,16.752,16.752,0,0,1,97.55,2.8a10.628,10.628,0,0,1,1.779-.494,5.48,5.48,0,0,0-1.356-.166" transform="translate(-65.933 -1.535)" fill="#14559a"/>
        <path id="Path_28669" data-name="Path 28669" d="M129.161,26.1q.989-.784,1.9-1.668c-2.635-7.893-3.578-22.242-11.214-22.242a9.038,9.038,0,0,0-1.647.153c6.956,1.73,7.841,16.858,10.959,23.757" transform="translate(-84.806 -1.565)" fill="url(#linear-gradient-3)"/>
        <path id="Path_28670" data-name="Path 28670" d="M115.576,2.309a5.489,5.489,0,0,0-1.356-.165l3.006.01a8.941,8.941,0,0,0-1.647.154" transform="translate(-82.18 -1.535)" fill="#3092c4"/>
        <path id="Path_28671" data-name="Path 28671" d="M145.367,90.255a11.3,11.3,0,0,1-.861-.93,15.794,15.794,0,0,1-3.836,2.048,5.91,5.91,0,0,0,1.431.487,6.062,6.062,0,0,0,1.218.12,7.991,7.991,0,0,0,3.515-.63,6.673,6.673,0,0,1-1.468-1.1" transform="translate(-101.146 -64.047)" fill="#1969bc"/>
        <path id="Path_28672" data-name="Path 28672" d="M111.917,3.224c6.23,3.258,6.772,18.015,11.743,24.007q.507-.358.993-.746c-3.112-6.894-4-22.028-10.956-23.757a10.769,10.769,0,0,0-1.78.5" transform="translate(-80.299 -1.953)" fill="url(#linear-gradient-4)"/>
        <path id="Path_28673" data-name="Path 28673" d="M95.067,7.379c4.776,6.541,6.487,20.125,12.676,23.161a15.789,15.789,0,0,0,3.836-2.048C106.613,22.5,106.067,7.744,99.836,4.486a16.727,16.727,0,0,0-4.769,2.893" transform="translate(-68.218 -3.209)" fill="url(#linear-gradient-5)"/>
        <path id="Path_28674" data-name="Path 28674" d="M71.52,15.131a71.237,71.237,0,0,0-2.439,6.823,50.717,50.717,0,0,1,5.489-6.631,19.882,19.882,0,0,0-.812-2.118,27.378,27.378,0,0,0-2.245,1.926" transform="translate(-49.584 -9.466)" fill="url(#linear-gradient-6)"/>
        <path id="Path_28675" data-name="Path 28675" d="M87.109,11.479q-.336.239-.664.489a19.922,19.922,0,0,1,.81,2.117q.486-.477.988-.937a13.134,13.134,0,0,0-1.134-1.669" transform="translate(-62.265 -8.229)" fill="#2b74b1"/>
        <path id="Path_28676" data-name="Path 28676" d="M89.572,9.629q-.392.252-.784.523a13.192,13.192,0,0,1,1.137,1.67q.427-.392.87-.755a11.55,11.55,0,0,0-1.222-1.438" transform="translate(-63.944 -6.902)" fill="#125a9e"/>
        <path id="Path_28677" data-name="Path 28677" d="M193.9,0c-3.528,13.591-10.883,24.5-17.054,27.255h-.012c-.112.051-.223.1-.333.142a.268.268,0,0,1-.041.016l-.1.037a.248.248,0,0,1-.043.017c-.052.018-.1.034-.154.055-.022.009-.043.014-.064.022a.768.768,0,0,1-.077.025l-.075.026c-.022.009-.046.013-.065.022-.046.013-.086.024-.131.039a.237.237,0,0,0-.055.016c-.027.009-.059.016-.089.024a.273.273,0,0,1-.06.017l-.1.025-.118.026a2.512,2.512,0,0,0,.883.156c5.851,0,11.75-10.485,21.51-27.922h-3.833V0Z" transform="translate(-125.772 0.002)" fill="url(#linear-gradient-7)"/>
        <path id="Path_28678" data-name="Path 28678" d="M18.4,2.682s.008-.009.01-.009a.014.014,0,0,0,.014-.009h.008l.1-.037a.017.017,0,0,0,.018-.009c.008,0,.016-.009.025-.01l.1-.035h0c.077-.024.149-.052.225-.078.01,0,.021-.009.034-.009s.064-.021.1-.029a.179.179,0,0,1,.044-.014c.034-.01.065-.021.1-.029s.026-.009.037-.01c.107-.03.214-.058.321-.084.014,0,.027-.009.044-.01a.621.621,0,0,1,.094-.018.165.165,0,0,1,.046-.014c.031-.009.061-.01.1-.017h.022l.2-.037h.039a.826.826,0,0,1,.09-.016c.017,0,.034-.009.051-.009a.7.7,0,0,0,.086-.013.091.091,0,0,0,.047-.009c.068-.009.139-.013.21-.018q-.31-.031-.622-.033C13.345,2.125,4.266,14.351.177,30.19H.961c1.307-2.334,2.483-4.541,3.56-6.614C7.395,12.355,13.222,4.706,18.4,2.681" transform="translate(-0.177 -1.522)" fill="url(#linear-gradient-8)"/>
        <path id="Path_28679" data-name="Path 28679" d="M78.509,12.512a27.364,27.364,0,0,1,2.245-1.926,10.6,10.6,0,0,0-.534-1.034,12.666,12.666,0,0,0-1.711,2.96" transform="translate(-56.574 -6.847)" fill="#0d82ca"/>
        <path id="Path_28680" data-name="Path 28680" d="M80.211,4.31a5.62,5.62,0,0,1,1.168,1.452c.111-.131.223-.261.34-.38a6.608,6.608,0,0,0-1.592-1.115A.759.759,0,0,0,80.2,4.3s.009.009.013.009" transform="translate(-57.734 -3.061)" fill="#0d82ca"/>
        <path id="Path_28681" data-name="Path 28681" d="M15.54,24.98C21.551,13.4,24.4,6.076,29.419,4.092,24.244,6.12,18.4,13.773,15.54,24.98" transform="translate(-11.193 -2.932)" fill="url(#linear-gradient-9)"/>
        <path id="Path_28682" data-name="Path 28682" d="M84.891,8.208c-.116.119-.227.244-.34.38a10.744,10.744,0,0,1,.536,1.034q.328-.25.664-.487a9.018,9.018,0,0,0-.859-.925" transform="translate(-60.906 -5.883)" fill="#127bca"/>
        <path id="Path_28683" data-name="Path 28683" d="M23.96,60.238a.75.75,0,0,1-.108.013h-.021c-.031,0-.064.009-.093.009h-.014c-.076.009-.149.009-.221.014h-.024c6.081-.17,8.86-3.215,10.24-7.631,1.045-3.348,1.909-6.168,2.663-8.534a120.883,120.883,0,0,0-7.678,12.646,6.3,6.3,0,0,1-4.745,3.477" transform="translate(-16.885 -31.626)" fill="url(#linear-gradient-10)"/>
        <path id="Path_28684" data-name="Path 28684" d="M25.179,42.952a6.294,6.294,0,0,0,4.745-3.48A121.514,121.514,0,0,1,37.6,26.827,71.038,71.038,0,0,1,40.04,20c-5.072,4.827-10.163,12.855-14.861,22.944" transform="translate(-18.105 -14.344)" fill="url(#linear-gradient-11)"/>
        <path id="Path_28685" data-name="Path 28685" d="M7.33,77.916c-1.076,2.07-2.252,4.28-3.56,6.614H6.062A56.026,56.026,0,0,1,7.33,77.917" transform="translate(-2.982 -55.867)" fill="#05a1e6"/>
        <path id="Path_28686" data-name="Path 28686" d="M28.165,2.307c-.018,0-.033.009-.048.009a.378.378,0,0,1-.086.012.1.1,0,0,0-.051.009.768.768,0,0,1-.09.016.06.06,0,0,0-.039.009l-.195.034h-.022a.74.74,0,0,1-.1.018.163.163,0,0,1-.047.013.865.865,0,0,1-.093.018.088.088,0,0,1-.044.01c-.107.026-.214.054-.321.084-.012,0-.024.009-.037.01l-.1.029a.131.131,0,0,1-.044.013l-.1.029c-.013,0-.024.009-.034.009-.074.027-.148.056-.223.078l-.1.035a.2.2,0,0,1-.042.017c-.033.01-.065.024-.1.035a.152.152,0,0,1-.031.014C21.2,4.794,18.358,12.121,12.351,23.7a55.783,55.783,0,0,0-1.268,6.614H11.4c.906,0,1.162-.009,2.2-.009h1.01c.072-.009.146-.009.221-.014h.014c.031,0,.063-.009.093-.009h.022c.034,0,.072-.009.108-.013,4.7-10.089,9.788-18.115,14.861-22.944a12.7,12.7,0,0,1,1.709-2.959A5.606,5.606,0,0,0,30.48,2.91s-.012,0-.013-.009c-.025-.01-.047-.022-.072-.034l-.071-.037a.765.765,0,0,1-.069-.034.7.7,0,0,1-.081-.034l-.064-.027q-.067-.026-.131-.056c-.02-.009-.038-.014-.056-.021l-.1-.039a.3.3,0,0,0-.054-.018l-.14-.041h-.012c-.054-.017-.106-.03-.159-.046a.068.068,0,0,0-.035-.012l-.131-.038c-.012,0-.022-.009-.031-.009q-.166-.043-.335-.073c-.012,0-.024-.009-.034-.009q-.072-.014-.145-.024a.039.039,0,0,0-.029-.009l-.171-.022h-.03a1.245,1.245,0,0,0-.131-.014c-.073.009-.142.013-.21.02" transform="translate(-7.998 -1.647)" fill="url(#linear-gradient-12)"/>
        <path id="Path_28687" data-name="Path 28687" d="M184.927,9.059c-1.155,3.7-2.091,6.758-2.906,9.271a100.675,100.675,0,0,0,9.272-16.192c-3.471,1.09-5.321,3.585-6.364,6.926" transform="translate(-130.567 -1.53)" fill="url(#linear-gradient-13)"/>
        <path id="Path_28688" data-name="Path 28688" d="M181.151,27.035c-.162.082-.324.161-.484.231C186.838,24.514,194.2,13.6,197.721.011h-.714c-8.1,14.461-10.7,24.142-15.856,27.024" transform="translate(-129.597 -0.006)" fill="url(#linear-gradient-14)"/>
        <path id="Path_28689" data-name="Path 28689" d="M165.728,68.379c1.342-1.639,2.436-4.424,3.928-9.017a45.125,45.125,0,0,1-5.189,6.061c0,.009,0,.009-.009.014a15.8,15.8,0,0,0,1.268,2.943" transform="translate(-118.204 -42.565)" fill="#079ae1"/>
        <path id="Path_28690" data-name="Path 28690" d="M164.291,91.223a5.5,5.5,0,0,1-1.479,1.3c-.118.068-.237.131-.358.192a5.2,5.2,0,0,0,1.882.593c.1.01.2.02.308.027h.018a.835.835,0,0,1,.148.009h.5a.131.131,0,0,0,.056-.009.449.449,0,0,0,.111-.009h.055c.038,0,.08-.009.12-.013h.009c.012,0,.025-.009.037-.009.042-.009.088-.013.131-.02h.038l.144-.024h.024c.1-.018.192-.037.288-.061a4.19,4.19,0,0,1-2.037-1.96" transform="translate(-116.766 -65.409)" fill="#1969bc"/>
        <path id="Path_28691" data-name="Path 28691" d="M128.746,97.172A9.265,9.265,0,0,0,130.492,97a10.828,10.828,0,0,0,1.628-.439,5.919,5.919,0,0,0,1.428.487,6.071,6.071,0,0,0,1.219.12Z" transform="translate(-92.596 -69.238)" fill="#1e5cb3"/>
        <path id="Path_28692" data-name="Path 28692" d="M150.022,97.116a7.983,7.983,0,0,0,3.514-.63,5.2,5.2,0,0,0,1.883.593c.1.01.2.02.308.026h.018a.808.808,0,0,1,.148.009h-5.872Z" transform="translate(-107.849 -69.182)" fill="#1e5cb3"/>
        <path id="Path_28693" data-name="Path 28693" d="M171.408,98.323h.329a.123.123,0,0,0,.056-.009.467.467,0,0,0,.112-.009h.055c.038,0,.08-.009.119-.013h.01c.012,0,.024-.009.037-.009.042-.009.086-.013.131-.02a.065.065,0,0,0,.041-.009c.047-.009.1-.014.145-.024h.024c.1-.018.192-.037.288-.061a2.514,2.514,0,0,0,.883.156l-2.222.009Z" transform="translate(-123.187 -70.39)" fill="#1d60b5"/>
        <path id="Path_28694" data-name="Path 28694" d="M157.131,80.8V80.79q-.915.877-1.9,1.668-.486.392-.995.746a11.239,11.239,0,0,0,.861.93,6.674,6.674,0,0,0,1.468,1.1c.12-.059.24-.124.358-.192a5.489,5.489,0,0,0,1.479-1.3,15.835,15.835,0,0,1-1.268-2.943" transform="translate(-110.873 -57.928)" fill="#175fab"/>
        <path id="Path_28695" data-name="Path 28695" d="M185.75.011h-3.594c-.195.009-.383.016-.568.027-.088.188-.178.378-.261.567A100.66,100.66,0,0,1,172.055,16.8c-1.491,4.591-2.586,7.376-3.928,9.017a4.2,4.2,0,0,0,2.035,1.96.358.358,0,0,1,.063-.014h.013c.014,0,.029-.009.044-.009a.571.571,0,0,0,.1-.025.5.5,0,0,1,.059-.017l.089-.024a.208.208,0,0,1,.055-.016l.131-.041a.376.376,0,0,1,.065-.022.786.786,0,0,0,.074-.026c.026-.009.054-.014.076-.024s.042-.014.063-.024c.052-.018.1-.034.156-.055.014,0,.027-.013.043-.016a.824.824,0,0,0,.1-.037.114.114,0,0,1,.041-.014c.108-.046.221-.091.333-.142h.012q.244-.108.482-.231c5.157-2.875,7.761-12.563,15.857-27.024h-2.258Z" transform="translate(-120.601 -0.006)" fill="url(#linear-gradient-15)"/>
        <path id="Path_28696" data-name="Path 28696" d="M73.011,2.238a.056.056,0,0,1,.037.009.3.3,0,0,1,.094.01h.031c.057.009.114.014.171.022a.035.035,0,0,1,.029.009l.145.024c.01,0,.025.009.035.009.111.022.225.046.333.074.01,0,.021.009.03.009.047.01.088.025.131.038.014,0,.024.009.037.012.055.014.106.027.158.046l.012.009c.046.014.091.031.139.047a.279.279,0,0,0,.054.017l.1.041a.2.2,0,0,1,.056.02c.043.02.088.037.131.055.024.009.043.02.065.027a.55.55,0,0,0,.08.034l.071.034.071.037A6.638,6.638,0,0,1,76.61,3.935a5.172,5.172,0,0,1,.565-.512,6.214,6.214,0,0,0-3.683-1.192c-.162,0-.324.009-.489.021" transform="translate(-52.632 -1.596)" fill="#7dcbec"/>
        <path id="Path_28697" data-name="Path 28697" d="M85.753,6.908a9.019,9.019,0,0,1,.859.925q.392-.271.784-.523A8.277,8.277,0,0,0,86.316,6.4a5.054,5.054,0,0,0-.563.512" transform="translate(-61.769 -4.582)" fill="#5ec5ed"/>
        <path id="Path_28698" data-name="Path 28698" d="M70.619-6.359c.165-.014.327-.02.489-.02a6.222,6.222,0,0,1,3.683,1.192,6.665,6.665,0,0,1,4.391-1.2H70c.212,0,.419.013.623.031" transform="translate(-50.241 7)" fill="url(#linear-gradient-16)"/>
        <path id="Path_28699" data-name="Path 28699" d="M91.331-9.625a6.665,6.665,0,0,0-4.391,1.2,8.344,8.344,0,0,1,1.078.915,13.385,13.385,0,0,1,4.663-1.947,9.466,9.466,0,0,1,1.746-.167Z" transform="translate(-62.387 10.235)" fill="url(#linear-gradient-17)"/>
        <path id="Path_28700" data-name="Path 28700" d="M168.875,16.9c.815-2.516,1.75-5.57,2.908-9.279,1.045-3.338,2.892-5.832,6.362-6.926.091-.187.178-.379.261-.567-5.657.338-8.3,3.217-9.633,7.479-2.327,7.441-3.736,12.263-5.1,15.337a45.216,45.216,0,0,0,5.189-6.055" transform="translate(-117.421 -0.096)" fill="url(#linear-gradient-18)"/>
        <path id="Path_28701" data-name="Path 28701" d="M208.246,91.106H207.6V93.1h-.261V91.106H206.7V90.87h1.546Zm2.625,1.993h-.261V91.6c0-.118.009-.261.021-.433a1.54,1.54,0,0,1-.069.218L209.8,93.1h-.131l-.761-1.7a1.2,1.2,0,0,1-.069-.23h-.009c.009.09.012.235.012.436V93.1h-.25V90.868h.345l.683,1.556a2.011,2.011,0,0,1,.1.261h.01c.046-.123.082-.214.107-.274l.7-1.549h.328v2.229Z" transform="translate(-148.492 -65.155)"/>
      </g>
    </g>
  </g>
</svg>
