<svg xmlns="http://www.w3.org/2000/svg" xmlns:xlink="http://www.w3.org/1999/xlink" width="72" height="72" viewBox="0 0 72 72">
  <defs>
    <linearGradient id="linear-gradient" x1="0.13" y1="0.12" x2="0.796" y2="0.782" gradientUnits="objectBoundingBox">
      <stop offset="0" stop-color="#387eb8"/>
      <stop offset="1" stop-color="#366994"/>
    </linearGradient>
    <linearGradient id="linear-gradient-2" x1="0.191" y1="0.206" x2="0.907" y2="0.884" gradientUnits="objectBoundingBox">
      <stop offset="0" stop-color="#ffe052"/>
      <stop offset="1" stop-color="#ffc331"/>
    </linearGradient>
  </defs>
  <g id="Group_15348" data-name="Group 15348" transform="translate(-813 -2138)">
    <rect id="Rectangle_1861" data-name="Rectangle 1861" width="72" height="72" transform="translate(813 2138)" fill="none"/>
    <g id="python-seeklogo.com" transform="translate(812.855 2137.928)">
      <path id="Path_35" data-name="Path 35" d="M35.885.072C17.607.072,18.748,8,18.748,8l.02,8.212H36.211v2.466H11.841S.145,17.35.145,35.792,10.353,53.581,10.353,53.581h6.093V45.023s-.328-10.209,10.046-10.209h17.3s9.72.157,9.72-9.394V9.629S54.987.072,35.885.072ZM26.267,5.594a3.138,3.138,0,1,1-3.138,3.138,3.135,3.135,0,0,1,3.138-3.138Z" transform="translate(0 0)" fill="url(#linear-gradient)"/>
      <path id="Path_36" data-name="Path 36" d="M83.8,117.832c18.278,0,17.137-7.926,17.137-7.926l-.02-8.212H83.471V99.229h24.37s11.7,1.326,11.7-17.116-10.209-17.789-10.209-17.789h-6.092v8.558s.328,10.209-10.046,10.209h-17.3s-9.72-.157-9.72,9.394v15.792S64.7,117.832,83.8,117.832Zm9.618-5.522a3.138,3.138,0,1,1,3.138-3.138,3.135,3.135,0,0,1-3.138,3.138Z" transform="translate(-47.393 -46.135)" fill="url(#linear-gradient-2)"/>
    </g>
  </g>
</svg>
