<svg xmlns="http://www.w3.org/2000/svg" width="217" height="217" viewBox="0 0 217 217">
  <g id="Group_165141" data-name="Group 165141" transform="translate(-1062 -5804)">
    <rect id="Rectangle_1875" data-name="Rectangle 1875" width="216" height="216" rx="20" transform="translate(1062.5 5804.5)" fill="#fff" stroke="#d6dce6" stroke-width="1"/>
    <g id="Group_165140" data-name="Group 165140" transform="translate(-1)">
      <text id="Delhi" transform="translate(1171 5977)" fill="#1a1b22" font-size="20" font-family="Gilroy-Semibold, Gilroy" font-weight="600"><tspan x="-23" y="0">Delhi</tspan></text>
      <g id="Group_165139" data-name="Group 165139" transform="translate(84 -306)">
        <rect id="Rectangle_1900" data-name="Rectangle 1900" width="100" height="100" transform="translate(1037 6148)" fill="none"/>
        <path id="india-gate" d="M58.375,27a.781.781,0,0,0-.781.781V30.2a5.448,5.448,0,0,0-4.609,4.609H49a.781.781,0,0,0-.781.781v2.344H39.625a.781.781,0,0,0-.781.781V52H34.938a.781.781,0,0,0-.781.781v3.906H31.813a.781.781,0,0,0-.781.781v5.469H27.125a.784.784,0,0,0-.7,1.133l4.6,9.209V89.5H30.25a.781.781,0,0,0,0,1.563h.781v9.375H28.787a.784.784,0,0,0-.65,1.214l2.894,4.341V120.75H30.25a.781.781,0,0,0,0,1.563h.781v3.125h-6.25a.781.781,0,0,0,0,1.563h79.688a.781.781,0,0,0,0-1.562h-6.25v-3.125H99a.781.781,0,0,0,0-1.562h-.781V106.144l2.994-4.492a.781.781,0,0,0-.65-1.214H98.219V91.063H99A.781.781,0,0,0,99,89.5h-.781V73.277l4.6-9.209a.78.78,0,0,0-.7-1.13H98.219V57.469a.781.781,0,0,0-.781-.781H95.094V52.781A.781.781,0,0,0,94.313,52H90.406V38.719a.781.781,0,0,0-.781-.781H81.031V35.594a.781.781,0,0,0-.781-.781H76.266c-.016-.1-.011-.217-.031-.32A5.466,5.466,0,0,0,71.656,30.2V27.781A.781.781,0,0,0,70.875,27Zm.781,1.563H70.094v1.563H59.156Zm-.781,3.125h12.5a3.913,3.913,0,0,1,3.83,3.125H54.548a3.911,3.911,0,0,1,3.827-3.125Zm-8.594,4.688H79.469v1.563H49.781ZM40.406,39.5H88.844V52H40.406ZM55.25,42.625a.781.781,0,0,0-.781.781v4.688a.781.781,0,0,0,.781.781h2.344v.781a.781.781,0,0,0,.781.781h12.5a.781.781,0,0,0,.781-.781v-.781H74a.781.781,0,0,0,.781-.781V43.406A.781.781,0,0,0,74,42.625ZM49,42.658a3.906,3.906,0,1,0,3.906,3.906A3.909,3.909,0,0,0,49,42.658Zm31.25,0a3.906,3.906,0,1,0,3.906,3.906A3.909,3.909,0,0,0,80.25,42.658Zm-24.219,1.53H73.219v3.125H70.875a.781.781,0,0,0-.781.781v.781H59.156v-.781a.781.781,0,0,0-.781-.781H56.031ZM49,44.22a2.344,2.344,0,1,1-2.344,2.344A2.347,2.347,0,0,1,49,44.22Zm31.25,0a2.344,2.344,0,1,1-2.344,2.344A2.347,2.347,0,0,1,80.25,44.22ZM35.719,53.563H93.531v3.125H35.719ZM32.594,58.25H96.656v4.688H32.594Zm-4.2,6.25h72.47l-.781,1.563H29.172L28.391,64.5Zm1.563,3.125h1.08v2.161Zm2.642,0h3.125v4.688H32.594Zm4.688,0h3.125v4.688H37.281Zm4.688,0h3.125v4.688H41.969Zm4.688,0h3.125v4.688H46.656Zm4.688,0h3.125v4.688H51.344Zm4.688,0h3.125v4.688H56.031Zm4.688,0h3.125v4.688H60.719Zm4.688,0h3.125v4.688H65.406Zm4.688,0h3.125v4.688H70.094Zm4.688,0h3.125v4.688H74.781Zm4.688,0h3.125v4.688H79.469Zm4.688,0h3.125v4.688H84.156Zm4.688,0h3.125v4.688H88.844Zm4.688,0h3.125v4.688H93.531Zm4.688,0H99.3l-1.08,2.161Zm-65.625,6.25H49.781V89.5H48.219V84.031a.781.781,0,0,0-.781-.781h-12.5a.781.781,0,0,0-.781.781V89.5H32.594Zm18.75,0H77.906V77H66.188a.781.781,0,0,0-.781.781V83.25H63.844V77.781A.781.781,0,0,0,63.063,77H51.344Zm28.125,0H96.656V89.5H95.094V84.031a.781.781,0,0,0-.781-.781h-12.5a.781.781,0,0,0-.781.781V89.5H79.469ZM41.188,75.438a3.125,3.125,0,1,0,3.125,3.125A3.128,3.128,0,0,0,41.188,75.438Zm46.875,0a3.125,3.125,0,1,0,3.125,3.125A3.128,3.128,0,0,0,88.063,75.438ZM41.188,77a1.563,1.563,0,1,1-1.562,1.563A1.562,1.562,0,0,1,41.188,77Zm46.875,0A1.563,1.563,0,1,1,86.5,78.563,1.562,1.562,0,0,1,88.063,77ZM51.344,78.563H62.281v.259A11.722,11.722,0,0,0,52.942,89.5h-1.6Zm15.625,0H77.906V89.5h-1.6a11.722,11.722,0,0,0-9.339-10.678Zm-4.687,1.853v1.637A8.566,8.566,0,0,0,56.1,89.5H54.5a10.161,10.161,0,0,1,7.777-9.084Zm4.688,0A10.161,10.161,0,0,1,74.745,89.5h-1.6a8.562,8.562,0,0,0-6.18-7.447Zm-4.687,3.273v.342a.781.781,0,0,0,.781.781h3.125a.781.781,0,0,0,.781-.781v-.342a7,7,0,0,1,4.62,5.811h-.714a.781.781,0,0,0,0,1.563h.781v9.375h-.781a.781.781,0,0,0,0,1.563h.781v23.438H57.594V102h.781a.781.781,0,0,0,0-1.562h-.781V91.063h.781a.781.781,0,0,0,0-1.562h-.714a7.008,7.008,0,0,1,4.62-5.811ZM35.719,84.813h2.344v1.563H35.719Zm3.906,0H42.75v1.563H39.625Zm4.688,0h2.344v1.563H44.313Zm38.281,0h2.344v1.563H82.594Zm3.906,0h3.125v1.563H86.5Zm4.688,0h2.344v1.563H91.188ZM35.719,87.938H46.656V89.5H35.719Zm46.875,0H93.531V89.5H82.594Zm-50,3.125h1.563v1.563H32.594Zm3.125,0H46.656v1.563H35.719Zm12.5,0h1.563v1.563H48.219Zm3.125,0h4.688v9.375H51.344Zm21.875,0h4.688v9.375H73.219Zm6.25,0h1.563v1.563H79.469Zm3.125,0H93.531v1.563H82.594Zm12.5,0h1.563v1.563H95.094Zm-62.5,3.125h1.563v6.25H32.594Zm3.125,0h1.563v3.906a.781.781,0,0,0,.781.781h6.25a.781.781,0,0,0,.781-.781V94.188h1.563v6.25H35.719Zm3.125,0h4.688v3.125H38.844Zm9.375,0h1.563v6.25H48.219Zm31.25,0h1.563v6.25H79.469Zm3.125,0h1.563v3.906a.781.781,0,0,0,.781.781h6.25a.781.781,0,0,0,.781-.781V94.188h1.563v6.25H82.594Zm3.125,0h4.688v3.125H85.719Zm9.375,0h1.563v6.25H95.094ZM30.247,102H52.228l-2.084,3.125H32.328L30.247,102Zm23.859,0h1.925v23.438H51.344V106.144Zm19.112,0h2.027l2.661,3.992v19.445H73.219Zm3.9,0H99.1l-2.084,3.125H79.2Zm-44.528,4.688h1.563V120.75H32.594Zm3.125,0H46.656V120.75H35.719Zm12.5,0h1.563V120.75H48.219Zm31.25,0h1.563V120.75H79.469Zm3.125,0H93.531V120.75H82.594Zm12.5,0h1.563V120.75H95.094Zm-62.5,15.625h1.563v3.125H32.594Zm3.125,0h1.563v3.125H35.719Zm3.125,0h4.688v3.125H38.844Zm6.25,0h1.563v3.125H45.094Zm3.125,0h1.563v3.125H48.219Zm31.25,0h1.563v3.125H79.469Zm3.125,0h1.563v3.125H82.594Zm3.125,0h4.688v3.125H85.719Zm6.25,0h1.563v3.125H91.969Zm3.125,0h1.563v3.125H95.094Z" transform="translate(1022 6121)" fill="#54576e"/>
      </g>
    </g>
  </g>
</svg>
