<svg xmlns="http://www.w3.org/2000/svg" width="217" height="217" viewBox="0 0 217 217">
  <g id="Group_165131" data-name="Group 165131" transform="translate(-279 -6085)">
    <rect id="Rectangle_1875" data-name="Rectangle 1875" width="216" height="216" rx="20" transform="translate(279.5 6085.5)" fill="#fff" stroke="#d6dce6" stroke-width="1"/>
    <g id="Group_165130" data-name="Group 165130" transform="translate(-731 649)">
      <text id="Ahmedabad" transform="translate(1119 5609)" fill="#1a1b22" font-size="20" font-family="Gilroy-Semibold, Gilroy" font-weight="600"><tspan x="-58" y="0">Ahmedabad</tspan></text>
      <g id="Group_165129" data-name="Group 165129" transform="translate(-58 -206)">
        <rect id="Rectangle_1900" data-name="Rectangle 1900" width="100" height="100" transform="translate(1127 5680)" fill="none"/>
        <g id="jhulta-minar" transform="translate(1111.7 5675.1)">
          <path id="Path_98630" data-name="Path 98630" d="M21.317,75.407l-.556-.278a.62.62,0,0,0-.694,0l-.556.417A2.449,2.449,0,0,0,18.4,77.629v2.222a.656.656,0,0,0,.694.694h2.778a.656.656,0,0,0,.694-.694V77.629a3,3,0,0,0-1.25-2.222Zm-.278,3.75H19.65V77.629a1.049,1.049,0,0,1,.556-.972l.139-.139.139.139a1.406,1.406,0,0,1,.556.972Z" transform="translate(1.206 18.715)" fill="#54576e"/>
          <path id="Path_98631" data-name="Path 98631" d="M114.606,103.428h-.694V81.206h.694a.656.656,0,0,0,.694-.694V76.344a.656.656,0,0,0-.694-.694h-.694V73.567a.656.656,0,0,0-.694-.694h-3.889a7.668,7.668,0,0,0-4.583-5.833l-6.528-3.194v-.972a.656.656,0,0,0-.694-.694.744.744,0,0,0-.694.694v.972L90.439,66.9a7.668,7.668,0,0,0-4.583,5.833H83.494V68.567h.694a.656.656,0,0,0,.694-.694V63.706a.656.656,0,0,0-.694-.694h-.694V54.678h.694a.656.656,0,0,0,.694-.694V49.817a.656.656,0,0,0-.694-.694H82.106V43.567H82.8a.656.656,0,0,0,.694-.694V40.094A.656.656,0,0,0,82.8,39.4h-.694V36.622H82.8a.656.656,0,0,0,.694-.694V33.15a.656.656,0,0,0-.694-.694h-.694V31.067a2.676,2.676,0,0,0-2.083-2.639v-.833a.694.694,0,1,0-1.389,0v.833a2.676,2.676,0,0,0-2.083,2.639v1.389h-.694a.656.656,0,0,0-.694.694v2.778a.656.656,0,0,0,.694.694h.694V39.4h-.694a.656.656,0,0,0-.694.694v2.778a.656.656,0,0,0,.694.694h.694v5.556H74.467a.656.656,0,0,0-.694.694v4.167a.656.656,0,0,0,.694.694h.694v8.333h-.833a8.733,8.733,0,0,0-3.056-3.333l-5.278-3.194v-1.25a.694.694,0,0,0-1.389,0v1.25l-5.278,3.472a8,8,0,0,0-2.917,3.194h-.833V54.817h.694a.656.656,0,0,0,.694-.694V49.956a.656.656,0,0,0-.694-.694H54.189V43.706h.694a.656.656,0,0,0,.694-.694V40.233a.656.656,0,0,0-.694-.694h-.694V36.761h.694a.656.656,0,0,0,.694-.694V33.289a.656.656,0,0,0-.694-.694h-.694V31.206a2.676,2.676,0,0,0-2.083-2.639v-.833a.694.694,0,0,0-1.389,0v.833a2.676,2.676,0,0,0-2.083,2.639v1.389h-.694a.656.656,0,0,0-.694.694v2.778a.656.656,0,0,0,.694.694h.694v2.778h-.694a.656.656,0,0,0-.694.694v2.778a.656.656,0,0,0,.694.694h.694v5.556H46.55a.656.656,0,0,0-.694.694v4.167a.656.656,0,0,0,.694.694h.694V63.15H46.55a.656.656,0,0,0-.694.694v4.167a.656.656,0,0,0,.694.694h.694v4.167H44.05a7.668,7.668,0,0,0-4.583-5.833l-6.528-3.194v-.972a.656.656,0,0,0-.694-.694.744.744,0,0,0-.694.694v.972l-6.528,3.194a7.668,7.668,0,0,0-4.583,5.833H17.383a.656.656,0,0,0-.694.694V75.65h-.694a.656.656,0,0,0-.694.694v4.167a.656.656,0,0,0,.694.694h.694v22.222h-.694a.694.694,0,1,0,0,1.389h98.611a.694.694,0,1,0,0-1.389Zm-.694-23.611H83.356V77.039h30.556ZM86.133,74.261h2.778V75.65H86.133Zm19.444,1.389H102.8V74.261h2.778Zm-4.167,0H98.633V74.261h2.778Zm-4.167,0H94.467V74.261h2.778Zm-4.167,0H90.3V74.261h2.778Zm19.444-1.389V75.65h-1.389V74.261Zm-2.778,1.389h-2.778V74.261h2.778Zm-18.75-7.361,6.528-3.194,6.528,3.194a6.335,6.335,0,0,1,3.75,4.583H87.106A6.079,6.079,0,0,1,90.994,68.289Zm-6.25,5.972V75.65H83.356V74.261ZM77.8,31.206a1.392,1.392,0,0,1,1.389-1.389,1.494,1.494,0,0,1,1.389,1.389v1.389H77.8Zm-1.389,2.778h5.556v1.389H76.411ZM77.8,36.761h2.778v2.778H77.8Zm-1.389,4.167h5.556v1.389H76.411ZM77.8,43.706h2.778v5.556H77.8ZM75.022,50.65h8.333v2.778H75.022Zm1.389,4.167h5.556V63.15H76.411Zm-1.389,9.722h8.333v2.778H75.022ZM55.856,68.706h2.5v1.389H55.578V68.706Zm19.167,5.556H55.578V71.483H75.022Zm-6.944-4.167V68.706h2.778v1.389Zm-1.389,0H63.911V68.706h2.778Zm-4.167,0H59.744V68.706h2.778ZM55.578,93.428a13.151,13.151,0,0,1,6.111-11.111L65.3,79.956l3.611,2.361a12.808,12.808,0,0,1,6.111,11.111v10H55.578ZM69.606,81.067l-4.028-2.5a.62.62,0,0,0-.694,0l-4.028,2.639a14.038,14.038,0,0,0-5.278,6.111V75.65H75.022V87.178a13.51,13.51,0,0,0-5.417-6.111Zm5.417-10.972H72.244V68.706h2.778ZM60.161,61.067,65.3,57.872l5.139,3.194a6.533,6.533,0,0,1,3.194,5.556v.694H56.967v-.694A6.4,6.4,0,0,1,60.161,61.067ZM50.022,31.206a1.392,1.392,0,0,1,1.389-1.389A1.494,1.494,0,0,1,52.8,31.206v1.389H50.022Zm-1.389,2.778h5.556v1.389H48.633Zm1.389,2.778H52.8v2.778H50.022Zm-1.389,4.167h5.556v1.389H48.633Zm1.389,2.778H52.8v5.556H50.022ZM47.244,50.65h8.333v2.778H47.244Zm1.389,4.167h5.556V63.15H48.633Zm-1.389,9.722h8.333v2.778H47.244Zm0,9.722V75.65H45.856V74.261ZM44.467,75.65H41.689V74.261h2.778ZM20.856,74.261h2.778V75.65H20.856Zm4.167,0H27.8V75.65H25.022Zm4.167,0h2.778V75.65H29.189Zm4.167,0h2.778V75.65H33.356Zm4.167,0H40.3V75.65H37.522ZM25.717,68.289l6.528-3.194,6.528,3.194c2.222,1.111,3.611,2.778,3.889,4.583H21.828A6.3,6.3,0,0,1,25.717,68.289Zm-7.639,5.972h1.389V75.65H18.078Zm-1.389,2.778H47.244v2.778H16.689Zm1.389,4.167H47.244v22.222H40.3V94.261a9.606,9.606,0,0,0-4.583-8.333l-2.639-1.667a.62.62,0,0,0-.694,0l-2.639,1.667a9.776,9.776,0,0,0-4.583,8.333v9.167H18.217V81.206Zm20.833,22.222h-12.5V94.4A8.9,8.9,0,0,1,30.3,87.178l2.361-1.528,2.222,1.389a8.507,8.507,0,0,1,4.028,7.222Zm9.722-22.917V68.706h5.556v34.722H48.633ZM76.411,93.428V68.706h5.556v34.722H76.411Zm27.778,10h-12.5V94.4a8.9,8.9,0,0,1,3.889-7.222l2.361-1.528,2.222,1.389a8.507,8.507,0,0,1,4.028,7.222Zm1.389,0V94.261a9.606,9.606,0,0,0-4.583-8.333l-2.639-1.667a.62.62,0,0,0-.694,0l-2.639,1.667a9.776,9.776,0,0,0-4.583,8.333v9.167H83.494V81.206h29.167v22.222h-7.083Z" transform="translate(0)" fill="#54576e"/>
          <path id="Path_98632" data-name="Path 98632" d="M40.167,83.55h2.778a.656.656,0,0,0,.694-.694V80.633a2.449,2.449,0,0,0-1.111-2.083l-.556-.278a.62.62,0,0,0-.694,0l-.556.417a2.449,2.449,0,0,0-1.111,2.083v2.222c-.139.278.139.556.556.556Zm.694-2.917a1.048,1.048,0,0,1,.556-.972l.139-.139.139.139a1.406,1.406,0,0,1,.556.972v1.528H40.861ZM23.083,71.467A2.083,2.083,0,1,0,21,69.383,2.136,2.136,0,0,0,23.083,71.467Zm0-2.778a.694.694,0,1,1-.694.694A.656.656,0,0,1,23.083,68.689Zm13.889,2.778a2.083,2.083,0,1,0-2.083-2.083A2.136,2.136,0,0,0,36.972,71.467Zm0-2.778a.694.694,0,1,1-.694.694A.656.656,0,0,1,36.972,68.689Zm48.611,9.722-.556-.278a.62.62,0,0,0-.694,0l-.556.417a2.449,2.449,0,0,0-1.111,2.083v2.222a.656.656,0,0,0,.694.694h2.778a.656.656,0,0,0,.694-.694V80.633a3,3,0,0,0-1.25-2.222Zm-.278,3.75H83.917V80.633a1.048,1.048,0,0,1,.556-.972l.139-.139.139.139a1.406,1.406,0,0,1,.556.972Zm22.5-3.75-.556-.278a.62.62,0,0,0-.694,0L106,78.55a2.449,2.449,0,0,0-1.111,2.083v2.222a.656.656,0,0,0,.694.694h2.778a.656.656,0,0,0,.694-.694V80.633a3,3,0,0,0-1.25-2.222Zm-.278,3.75h-1.389V80.633a1.048,1.048,0,0,1,.556-.972l.139-.139.139.139a1.406,1.406,0,0,1,.556.972ZM88.361,67.3a2.083,2.083,0,1,0,2.083,2.083A2.136,2.136,0,0,0,88.361,67.3Zm0,2.778a.694.694,0,1,1,.694-.694A.656.656,0,0,1,88.361,70.078ZM102.25,67.3a2.083,2.083,0,1,0,2.083,2.083A2.136,2.136,0,0,0,102.25,67.3Zm0,2.778a.694.694,0,1,1,.694-.694A.656.656,0,0,1,102.25,70.078Z" transform="translate(2.217 15.711)" fill="#54576e"/>
        </g>
      </g>
    </g>
  </g>
</svg>
