<svg xmlns="http://www.w3.org/2000/svg" width="72" height="72" viewBox="0 0 72 72">
  <g id="Group_15363" data-name="Group 15363" transform="translate(-229 -2362)">
    <rect id="Rectangle_1861" data-name="Rectangle 1861" width="72" height="72" transform="translate(229 2362)" fill="none"/>
    <g id="react-seeklogo.com" transform="translate(228.246 2365.216)">
      <path id="Path_38" data-name="Path 38" d="M.754,33.035c0,5.438,5.31,10.513,13.68,13.375-1.672,8.415-.3,15.2,4.283,17.841,4.711,2.716,11.728.836,18.389-4.986C43.6,64.852,50.161,67.051,54.739,64.4c4.706-2.724,6.137-9.967,4.419-18.645,8.719-2.882,13.6-7.211,13.6-12.72,0-5.311-5.319-9.906-13.577-12.749,1.849-9.037.282-15.655-4.49-18.407-4.6-2.653-11.239-.341-17.827,5.393C30.006,1.186,23.434-.672,18.666,2.088c-4.6,2.661-5.908,9.567-4.231,18.138C6.346,23.046.754,27.745.754,33.035Z" fill="#fff"/>
      <path id="Path_39" data-name="Path 39" d="M67.817,32.954q-.995-.342-2.058-.649.174-.712.318-1.4c1.558-7.563.539-13.657-2.94-15.663-3.336-1.924-8.791.082-14.3,4.877q-.795.692-1.592,1.461-.531-.508-1.059-.978c-5.774-5.127-11.562-7.288-15.038-5.276-3.333,1.929-4.319,7.657-2.917,14.825q.2,1.039.473,2.118c-.819.233-1.61.48-2.367.744-6.77,2.36-11.093,6.059-11.093,9.9,0,3.963,4.641,7.937,11.692,10.348q.835.285,1.729.541-.29,1.166-.5,2.283c-1.337,7.044-.293,12.636,3.031,14.553,3.433,1.979,9.195-.055,14.805-4.959q.665-.582,1.334-1.23.867.835,1.728,1.577c5.434,4.676,10.8,6.565,14.122,4.642,3.43-1.985,4.544-7.993,3.1-15.3q-.166-.837-.383-1.709.607-.18,1.189-.372c7.33-2.429,12.1-6.355,12.1-10.371,0-3.851-4.463-7.575-11.369-9.952Z" transform="translate(-10.389 -9.844)" fill="#53c1de"/>
      <path id="Path_40" data-name="Path 40" d="M73.147,57.589c-.349.116-.708.228-1.074.336a64.071,64.071,0,0,0-3.238-8.1,64.094,64.094,0,0,0,3.112-7.982c.654.189,1.289.389,1.9.6,5.917,2.037,9.526,5.049,9.526,7.369,0,2.472-3.9,5.681-10.227,7.778Zm-2.626,5.2a23.13,23.13,0,0,1,.307,8.439c-.381,2.053-1.147,3.421-2.094,3.969-2.015,1.166-6.324-.35-10.972-4.349q-.8-.688-1.608-1.466a64.165,64.165,0,0,0,5.36-6.806,63.768,63.768,0,0,0,8.66-1.335q.2.789.346,1.547ZM43.963,75c-1.969.7-3.537.715-4.485.169-2.017-1.163-2.855-5.654-1.712-11.677q.2-1.035.467-2.123a64.247,64.247,0,0,0,8.617,1.247A66.508,66.508,0,0,0,52.339,69.4q-.612.59-1.218,1.122A23.134,23.134,0,0,1,43.963,75ZM34.74,57.574a23.135,23.135,0,0,1-7.458-3.962c-1.586-1.358-2.387-2.706-2.387-3.8,0-2.328,3.471-5.3,9.261-7.317.7-.245,1.438-.476,2.2-.693a65.476,65.476,0,0,0,3.116,8.076,66.563,66.563,0,0,0-3.156,8.19q-.816-.234-1.578-.494Zm3.092-21.046c-1.2-6.141-.4-10.774,1.6-11.937,2.139-1.238,6.869.527,11.855,4.954q.478.424.96.885A65.455,65.455,0,0,0,46.8,37.172,66.762,66.762,0,0,0,38.271,38.5q-.25-1-.44-1.97Zm27.582,6.811q-.949-1.639-1.944-3.2c2.04.258,3.995.6,5.83,1.019a58.258,58.258,0,0,1-2.047,5.506q-.87-1.652-1.839-3.327ZM54.166,32.383a58.445,58.445,0,0,1,3.763,4.543q-1.876-.089-3.793-.09-1.9,0-3.764.088c1.242-1.638,2.515-3.16,3.795-4.541ZM42.846,43.358Q41.9,45,41.041,46.664c-.8-1.887-1.476-3.742-2.032-5.533,1.824-.408,3.77-.742,5.8-1q-1.007,1.571-1.96,3.221Zm2.019,16.323a58.153,58.153,0,0,1-5.893-.947c.565-1.823,1.26-3.718,2.073-5.645q.859,1.658,1.813,3.309h0q.972,1.678,2.008,3.284Zm9.377,7.751c-1.295-1.4-2.586-2.942-3.847-4.6q1.836.072,3.741.072,1.955,0,3.86-.086a58.138,58.138,0,0,1-3.754,4.617ZM67.279,52.99a57.937,57.937,0,0,1,2.147,5.625,57.971,57.971,0,0,1-5.965,1.017q1-1.578,1.963-3.254.977-1.694,1.854-3.388Zm-4.221,2.023c-1,1.733-2.026,3.388-3.067,4.949-1.9.136-3.858.206-5.856.206s-3.925-.062-5.789-.183c-1.084-1.582-2.132-3.242-3.125-4.957h0c-.991-1.711-1.9-3.436-2.728-5.152.826-1.72,1.735-3.447,2.72-5.155h0c.987-1.712,2.027-3.364,3.1-4.936,1.9-.144,3.852-.219,5.822-.219h0c1.98,0,3.932.076,5.833.221,1.058,1.561,2.09,3.207,3.081,4.919,1,1.732,1.924,3.447,2.757,5.13-.83,1.712-1.749,3.445-2.748,5.176Zm5.635-30.5c2.141,1.235,2.974,6.215,1.629,12.745-.086.417-.183.841-.288,1.271a65.423,65.423,0,0,0-8.55-1.351,64.145,64.145,0,0,0-5.405-6.746q.737-.709,1.471-1.349c4.721-4.108,9.133-5.73,11.143-4.571Z" transform="translate(-17.31 -16.75)" fill="#fff"/>
      <path id="Path_41" data-name="Path 41" d="M113.754,94.665a5.71,5.71,0,1,1-5.71,5.71,5.71,5.71,0,0,1,5.71-5.71" transform="translate(-76.928 -67.314)" fill="#53c1de"/>
    </g>
  </g>
</svg>
