<svg xmlns="http://www.w3.org/2000/svg" width="73" height="73" viewBox="0 0 73 73">
  <g id="Group_165170" data-name="Group 165170" transform="translate(-1129 -6426)">
    <rect id="Rectangle_1901" data-name="Rectangle 1901" width="73" height="73" transform="translate(1129 6426)" fill="none"/>
    <g id="_x30_9" transform="translate(1129 6426)">
      <circle id="Ellipse_382" data-name="Ellipse 382" cx="7.821" cy="7.821" r="7.821" transform="translate(52.142 15.643)" fill="#3dd0e2"/>
      <path id="Path_28732" data-name="Path 28732" d="M39.285,12.408a2.6,2.6,0,0,1-1.833-.752c-6.075-6-18.937-6-25.012,0A2.608,2.608,0,1,1,8.774,7.947c8.009-7.913,24.335-7.913,32.349,0a2.609,2.609,0,0,1-1.834,4.461Z" transform="translate(7.642 -1.981)" fill="#121d30"/>
      <path id="Path_28733" data-name="Path 28733" d="M27.429,15.035H19.607a2.607,2.607,0,0,1,0-5.214h5.214V4.607a2.607,2.607,0,0,1,5.214,0v7.821a2.607,2.607,0,0,1-2.607,2.608Z" transform="translate(22.106 -2)" fill="#121d30"/>
      <path id="Path_28734" data-name="Path 28734" d="M12.607,25h7.821a2.607,2.607,0,1,1,0,5.214H15.214v5.214a2.607,2.607,0,1,1-5.214,0V27.607A2.607,2.607,0,0,1,12.607,25Z" transform="translate(10.856 34.964)" fill="#121d30"/>
      <path id="Path_28735" data-name="Path 28735" d="M27.946,36.4c-6.082,0-12.17-1.976-16.173-5.935a2.608,2.608,0,0,1,3.667-3.709c6.075,6,18.937,6,25.012,0a2.608,2.608,0,1,1,3.667,3.709C40.114,34.413,34.029,36.4,27.946,36.4Z" transform="translate(12.464 36.57)" fill="#121d30"/>
      <path id="Path_28736" data-name="Path 28736" d="M15.035,15A13.051,13.051,0,0,0,2,28.035v7.821a2.607,2.607,0,0,0,2.607,2.607H25.464a2.607,2.607,0,0,0,2.607-2.607V28.035A13.051,13.051,0,0,0,15.035,15Z" transform="translate(-2 18.892)" fill="#3dd0e2"/>
      <path id="Path_28737" data-name="Path 28737" d="M33.035,15A13.051,13.051,0,0,0,20,28.035v7.821a2.607,2.607,0,0,0,2.607,2.607H43.464a2.607,2.607,0,0,0,2.607-2.607V28.035A13.051,13.051,0,0,0,33.035,15Z" transform="translate(26.928 18.892)" fill="#3dd0e2"/>
      <circle id="Ellipse_381" data-name="Ellipse 381" cx="7.821" cy="7.821" r="7.821" transform="translate(5.214 15.643)" fill="#3dd0e2"/>
    </g>
  </g>
</svg>
