<svg xmlns="http://www.w3.org/2000/svg" width="73" height="73" viewBox="0 0 73 73">
  <g id="Group_165169" data-name="Group 165169" transform="translate(-1226 -6737)">
    <rect id="Rectangle_1901" data-name="Rectangle 1901" width="73" height="73" transform="translate(1226 6737)" fill="none"/>
    <g id="XMLID_520_" transform="translate(1226.02 6737)">
      <circle id="XMLID_904_" cx="7.114" cy="7.114" r="7.114" transform="translate(14.488 0)" fill="#3dd0e2"/>
      <path id="XMLID_910_" d="M38.191,141.951a3.868,3.868,0,0,0-2.869-3.254l-8.262-2.134.185-2.6a4.323,4.323,0,0,1-3.156-2.541l-5.037-11.847,7.678,9.772a3.223,3.223,0,0,0,2.788,1.222l6.642-.529a1.775,1.775,0,0,0,1.707,2.272H53.911A1.778,1.778,0,0,0,55.629,131l4.515-16.789a1.778,1.778,0,1,0-3.435-.923L52.546,128.76H44.217a3.22,3.22,0,0,0-2.375-5.636l-11.113.884-6.61-8.413,4.206,3.139.135-1.9a4.805,4.805,0,0,0-4.453-5.134l-8.159-.579a4.806,4.806,0,0,0-5.145,4.83l.181,23.788a4.1,4.1,0,0,0,1.007,2.66H8.6L5.138,115.033a2.582,2.582,0,1,0-5.115.648L3.773,145.3a2.582,2.582,0,0,0,2.558,2.255h9.31v10.558l-6.124,5a1.778,1.778,0,1,0,2.249,2.755l3.875-3.163v1.786a1.778,1.778,0,0,0,3.557,0V162.7l3.875,3.163a1.778,1.778,0,0,0,2.249-2.755l-6.124-5V147.55h8.49a2.582,2.582,0,0,0,2.545-2.18l.62.16,2.217,17.357a3.868,3.868,0,1,0,7.673-.98Z" transform="translate(0 -93.668)" fill="#3dd0e2"/>
      <path id="XMLID_911_" d="M274.766,259.363H245.48a2.582,2.582,0,1,0,0,5.157h26.707v21.327H260.054a2.582,2.582,0,0,0,0,5.157h14.712a2.582,2.582,0,0,0,2.582-2.582v-26.48a2.582,2.582,0,0,0-2.581-2.578Z" transform="translate(-204.367 -218.407)" fill="#121d30"/>
    </g>
  </g>
</svg>
