<svg xmlns="http://www.w3.org/2000/svg" width="72.003" height="72" viewBox="0 0 72.003 72">
  <g id="Group_15352" data-name="Group 15352" transform="translate(-937 -2399)">
    <rect id="Rectangle_1861" data-name="Rectangle 1861" width="72" height="72" transform="translate(937 2399)" fill="none"/>
    <g id="wordpress-seeklogo.com" transform="translate(937 2399)">
      <path id="Path_37" data-name="Path 37" d="M5.117,36A30.889,30.889,0,0,0,22.523,63.794L7.791,23.431A30.765,30.765,0,0,0,5.117,36Zm51.732-1.558A16.262,16.262,0,0,0,54.3,25.923c-1.566-2.544-3.033-4.7-3.033-7.242A5.348,5.348,0,0,1,56.455,13.2c.137,0,.267.017.4.025A30.876,30.876,0,0,0,10.2,19.037c.725.022,1.407.037,1.987.037,3.23,0,8.231-.392,8.231-.392a1.276,1.276,0,0,1,.2,2.544s-1.673.2-3.535.294L28.325,54.972,35.083,34.7,30.271,21.52c-1.663-.1-3.238-.294-3.238-.294a1.276,1.276,0,0,1,.2-2.544s5.1.392,8.135.392c3.23,0,8.231-.392,8.231-.392a1.276,1.276,0,0,1,.2,2.544s-1.677.2-3.535.294l11.161,33.2L54.5,44.424c1.335-4.272,2.351-7.34,2.351-9.983ZM36.542,38.7,27.276,65.626a30.9,30.9,0,0,0,18.98-.492,2.71,2.71,0,0,1-.22-.425L36.542,38.7ZM63.1,21.182a23.713,23.713,0,0,1,.208,3.176A29.131,29.131,0,0,1,60.959,35.42L51.525,62.694A30.889,30.889,0,0,0,63.1,21.182ZM36,0A36,36,0,1,0,72,36,36.041,36.041,0,0,0,36,0Zm0,70.35A34.35,34.35,0,1,1,70.348,36,34.39,34.39,0,0,1,36,70.35Z" fill="#00749a"/>
    </g>
  </g>
</svg>
